<?xml version="1.0" encoding="UTF-8"?>
<svg width="118px" height="44px" viewBox="0 0 118 44" version="1.1" xmlns="http://www.w3.org/2000/svg">
    <g transform="translate(3.000000, 3.000000)">
        <path d="M103.026402,0.5 L8.9735982,0.5 C5.99488122,0.5 4.90769924,0.792472871 3.81683947,1.37587106 C2.76452179,1.93865672 1.93865672,2.76452179 1.37587106,3.81683947 C0.792472871,4.90769924 0.5,5.99488122 0.5,8.9735982 L0.5,29.0264018 C0.5,32.0051188 0.792472871,33.0923008 1.37587106,34.1831605 C1.93865672,35.2354782 2.76452179,36.0613433 3.81683947,36.6241289 C4.90769924,37.2075271 5.99488122,37.5 8.9735982,37.5 L103.026402,37.5 C106.005119,37.5 107.092301,37.2075271 108.183161,36.6241289 C109.235478,36.0613433 110.061343,35.2354782 110.624129,34.1831605 C111.207527,33.0923008 111.5,32.0051188 111.5,29.0264018 L111.5,8.9735982 C111.5,5.99488122 111.207527,4.90769924 110.624129,3.81683947 C110.061343,2.76452179 109.235478,1.93865672 108.183161,1.37587106 C107.092301,0.792472871 106.005119,0.5 103.026402,0.5 Z" stroke-opacity="0.25" stroke="#FFFFFF" fill="#000000"></path>
        <path d="M48.34719,19.34765 C50.645,19.34766 52.15969,21.16406 52.15969,23.96973 C52.15969,26.78321 50.65383,28.59082 48.38137,28.59082 C47.2067553,28.6522646 46.1003324,28.0370307 45.53274,27.00682 L45.48974,27.00682 L45.48974,31.4912 L43.63134,31.4912 L43.63134,19.44238 L45.4302,19.44238 L45.4302,20.94824 L45.46438,20.94824 C46.0571883,19.9244879 47.1648043,19.3095188 48.34719,19.34765 Z M58.312,19.34766 C60.60988,19.34766 62.12453,21.16406 62.12453,23.96973 C62.12453,26.78321 60.61867,28.59082 58.34621,28.59082 C57.1715953,28.6522646 56.0651724,28.0370307 55.49758,27.00682 L55.45458,27.00682 L55.45458,31.4912 L53.59618,31.4912 L53.59618,19.44238 L55.395,19.44238 L55.395,20.94824 L55.42918,20.94824 C56.0219926,19.9244885 57.1296128,19.3095231 58.312,19.34766 Z M71.188,19.33105 C73.69289,19.33105 75.26809,21.05175 75.26809,23.79687 L75.26809,24.43359 L68.87356,24.43359 L68.87356,24.54589 C68.8138574,25.2199216 69.0466016,25.8871194 69.5125899,26.3777699 C69.9785783,26.8684204 70.6328975,27.1352333 71.30911,27.11034 C72.2109523,27.1948396 73.0612131,26.6769777 73.39993,25.8369 L75.16457,25.83691 C74.91457,27.48046 73.31398,28.60839 71.26613,28.60839 C68.63234,28.60839 66.99758,26.84374 66.99758,24.01269 C66.99758,21.17285 68.64113,19.33105 71.188,19.33105 Z M37.99367,16.0781 L42.47707,28.4961 L40.438,28.4961 L39.30227,25.13965 L34.56887,25.13965 L33.43215,28.4961 L31.42727,28.4961 L35.91067,16.0781 L37.99367,16.0781 Z M65.48879,16.07813 L65.48879,28.49613 L63.62941,28.49613 L63.62941,16.07813 L65.48879,16.07813 Z M89.314,16.07813 L89.314,17.73829 L85.51906,17.73829 L85.51906,28.49609 L83.59133,28.49609 L83.59133,17.73828 L79.78762,17.73828 L79.78762,16.07813 L89.314,16.07813 Z M92.0591,16.07809 L95.44094,26.32709 L95.4927,26.32709 L98.88333,16.07809 L100.94,16.07809 L96.50836,28.49609 L94.39992,28.49609 L89.9673,16.07809 L92.0591,16.07809 Z M47.85695,20.93164 C46.43703,20.93164 45.48195,22.16211 45.48195,23.96973 C45.48195,25.79395 46.43703,27.01563 47.85695,27.01563 C49.30227,27.01563 50.24953,25.81934 50.24953,23.96973 C50.24953,22.13673 49.30226,20.93164 47.85695,20.93164 Z M57.82179,20.93164 C56.40187,20.93164 55.44679,22.16211 55.44679,23.96973 C55.44679,25.79395 56.40187,27.01563 57.82179,27.01563 C59.26711,27.01563 60.21438,25.81934 60.21438,23.96973 C60.21438,22.13673 59.2671,20.93164 57.82179,20.93164 Z M36.96149,18.14355 L36.90973,18.14355 L35.0591,23.59082 L38.8111,23.59082 L36.96149,18.14355 Z M71.188,20.83691 C70.5767435,20.8332649 69.989355,21.0739385 69.556392,21.5054368 C69.123429,21.9369351 68.8807663,22.5235047 68.8823324,23.13477 L73.40871,23.13477 C73.4424326,22.5290965 73.2219613,21.9368223 72.8004133,21.5006311 C72.3788653,21.0644399 71.7944616,20.8238806 71.188,20.83691 Z" fill="#FFFFFF"></path>
        <path d="M41.9290141,8.42859737 C42.6179463,8.85611193 43.0049629,9.63722505 42.92775,10.44434 C43.0064319,11.2523223 42.6197687,12.0349504 41.9302255,12.4633853 C41.2406824,12.8918202 40.3677476,12.8918202 39.6782045,12.4633853 C38.9886613,12.0349504 38.6019981,11.2523223 38.68068,10.44434 C38.6034671,9.63722505 38.9904837,8.85611193 39.6794159,8.42859737 C40.3683482,8.0010828 41.2400818,8.0010828 41.9290141,8.42859737 Z M61.4664426,8.4285182 C62.155426,8.85603936 62.5425036,9.63717225 62.46535,10.44434 C62.543932,11.2523512 62.1571979,12.0349572 61.4676205,12.4633732 C60.7780432,12.8917893 59.9050968,12.8917893 59.2155195,12.4633732 C58.5259421,12.0349572 58.139208,11.2523512 58.21779,10.44434 C58.1406364,9.63717225 58.527714,8.85603936 59.2166974,8.4285182 C59.9056808,8.00099704 60.7774592,8.00099704 61.4664426,8.4285182 Z M79.4783341,8.42859737 C80.1672663,8.85611193 80.5542829,9.63722505 80.47707,10.44434 C80.5557519,11.2523223 80.1690887,12.0349504 79.4795455,12.4633853 C78.7900024,12.8918202 77.9170676,12.8918202 77.2275245,12.4633853 C76.5379813,12.0349504 76.1513181,11.2523223 76.23,10.44434 C76.1527871,9.63722505 76.5398037,8.85611193 77.2287359,8.42859737 C77.9176682,8.0010828 78.7894018,8.0010828 79.4783341,8.42859737 Z M65.41457,8.10792 C66.54348,8.10792 67.1802,8.66992 67.1802,9.6211 L67.1802,12.69776 L66.32473,12.69776 L66.32473,12.06495 L66.25442,12.06495 C65.9638686,12.5270763 65.4471736,12.7971632 64.90188,12.77195 C64.5196161,12.8117118 64.1383711,12.6879107 63.8523958,12.4311524 C63.5664205,12.1743942 63.4024061,11.8086433 63.4009,11.42432 C63.4009,10.61377 64.00442,10.14649 65.0757,10.08008 L66.29543,10.00977 L66.29543,9.6211 C66.29543,9.14551 65.98098,8.87696 65.37356,8.87696 C64.87747,8.87696 64.53372,9.05909 64.43508,9.37745 L63.57473,9.37745 C63.66555,8.60401 64.39309,8.10792 65.41457,8.10792 Z M72.55324,6.437 L72.55324,12.69774 L71.70168,12.69774 L71.70168,11.98631 L71.63137,11.98631 C71.3427542,12.490737 70.7980745,12.7933565 70.21731,12.77195 C69.0718,12.772 68.34816,11.87061 68.34816,10.44434 C68.34816,9.02149 69.07961,8.12012 70.2173,8.12012 C70.7917768,8.09365013 71.3298275,8.40147287 71.59816,8.91012 L71.66457,8.91012 L71.66457,6.437 L72.55324,6.437 Z M36.9317613,7.54887182 C37.4756303,8.12319621 37.7332859,8.91114479 37.63381,9.69584 C37.63381,11.60209 36.60354,12.69784 34.82619,12.69784 L32.67092,12.69784 L32.67092,6.731 L34.82619,6.731 C35.6151366,6.67438418 36.3878923,6.97454743 36.9317613,7.54887182 Z M44.47073,8.19482 L45.27737,11.63082 L45.34378,11.63082 L46.26956,8.19482 L47.1221,8.19482 L48.04788,11.63082 L48.11819,11.63082 L48.92092,8.19482 L49.80959,8.19482 L48.57326,12.69775 L47.65139,12.69775 L46.72073,9.38134 L46.65042,9.38134 L45.72366,12.69775 L44.81057,12.69775 L43.56936,8.19482 L44.47073,8.19482 Z M53.11916,8.1079 C53.5629768,8.07453177 53.9978859,8.2447899 54.3010908,8.57060207 C54.6042957,8.89641424 54.7428931,9.34242376 54.67775,9.7827 L54.67775,12.6977 L53.78908,12.6977 L53.78908,10.00586 C53.78908,9.28223 53.47463,8.92236 52.8174,8.92236 C52.5163658,8.90833912 52.2242202,9.02648257 52.0175546,9.24581678 C51.810889,9.465151 51.710315,9.76380101 51.7422,10.06347 L51.7422,12.69775 L50.85353,12.69775 L50.85353,8.19482 L51.709,8.19482 L51.709,8.91015 L51.77541,8.91015 C52.0063449,8.38347794 52.5459729,8.06130747 53.11916,8.1079 Z M56.98244,6.437 L56.98244,12.69774 L56.09377,12.69774 L56.09377,6.437 L56.98244,6.437 Z M83.93508,8.1079 C84.3788968,8.07453177 84.8138059,8.2447899 85.1170108,8.57060207 C85.4202157,8.89641424 85.5588131,9.34242376 85.49367,9.7827 L85.49367,12.6977 L84.605,12.6977 L84.605,10.00586 C84.605,9.28223 84.29055,8.92236 83.63332,8.92236 C83.3322858,8.90833912 83.0401402,9.02648257 82.8334746,9.24581678 C82.626809,9.465151 82.526235,9.76380101 82.55812,10.06347 L82.55812,12.69775 L81.66945,12.69775 L81.66945,8.19482 L82.52492,8.19482 L82.52492,8.91015 L82.59133,8.91015 C82.8222649,8.38347794 83.3618929,8.06130747 83.93508,8.1079 Z M66.29543,10.66309 L65.19582,10.7334 C64.5757,10.7749 64.29445,10.98584 64.29445,11.38281 C64.29445,11.78808 64.64601,12.02392 65.12945,12.02392 C65.4156361,12.0528899 65.7013264,11.9644751 65.9211204,11.7789156 C66.1409144,11.5933561 66.2759916,11.3265411 66.29543,11.03955 L66.29543,10.66309 Z M40.80568,8.89747 C40.03322,8.89747 39.59868,9.46827 39.59868,10.44435 C39.59868,11.42824 40.03325,11.99464 40.80568,11.99464 C41.57522,11.99464 42.01369,11.42432 42.01369,10.44434 C42.01369,9.46827 41.5752,8.89747 40.80568,8.89747 Z M60.34279,8.89747 C59.57033,8.89747 59.13579,9.46827 59.13579,10.44435 C59.13579,11.42824 59.57036,11.99464 60.34279,11.99464 C61.11232,11.99464 61.5508,11.42432 61.5508,10.44434 C61.5508,9.46827 61.11231,8.89747 60.34279,8.89747 Z M78.355,8.89747 C77.58254,8.89747 77.148,9.46827 77.148,10.44435 C77.148,11.42824 77.58257,11.99464 78.355,11.99464 C79.12453,11.99464 79.563,11.42432 79.563,10.44434 C79.563,9.46827 79.12452,8.89747 78.355,8.89747 Z M70.46929,8.91846 C69.72121,8.91846 69.26613,9.49707 69.26613,10.44434 C69.26616,11.39942 69.71636,11.97413 70.46929,11.97413 C71.21829,11.97413 71.6812,11.39113 71.6812,10.44825 C71.6812,9.50977 71.21343,8.91846 70.46929,8.91846 Z M34.72267,7.57421 L33.59767,7.57421 L33.59767,11.854 L34.72267,11.854 C35.2864919,11.887702 35.8354865,11.665559 36.2172185,11.2492518 C36.5989505,10.8329446 36.7727796,10.2667944 36.69044,9.708 C36.766789,9.15152453 36.5904566,8.59004622 36.2096711,8.17713398 C35.8288856,7.76422175 35.2834957,7.5430863 34.72267,7.57421 Z" fill="#FFFFFF"></path>
        <path d="M19.8550052,11.9736961 L20.13428,11.99094 C21.730392,12.0408784 23.2095126,12.8405128 24.12544,14.14862 C22.6801229,15.0371861 21.790737,16.6042091 21.76888,18.30068 C21.7709432,20.2200343 22.9203766,21.9521813 24.68812,22.69985 C24.3481437,23.8042759 23.8356761,24.8479997 23.1697,25.79236 C22.27532,27.13026 21.33757,28.43734 19.84919,28.4615 C18.40298,28.49488 17.91695,27.6104 16.25819,27.6104 C14.58389,27.6104 14.06585,28.43735 12.67879,28.49488 C11.26134,28.54738 10.17806,27.06693 9.25116,25.74158 C7.39855,23.03497 5.95596,18.11392 7.88996,14.7655 C8.79813717,13.1335255 10.4962013,12.0979384 12.36288,12.03763 C13.78161,12.00844 15.09911,12.99577 15.97138,12.99577 C16.82709,12.99577 18.45504,11.81468 20.13428,11.99094 Z M20.15177,6.72027 C20.248585,7.98450245 19.8487766,9.23668191 19.03725,10.21089 C18.2499161,11.1901532 17.0569368,11.7542068 15.80048,11.74127 C15.7205746,10.5134327 16.1320187,9.30418903 16.94419,8.37988 C17.7666802,7.44304968 18.9119378,6.85049049 20.15177,6.72027 Z" fill="#FFFFFF"></path>
    </g>
</svg>