<?xml version="1.0" encoding="UTF-8"?>
<svg width="110px" height="60px" viewBox="0 0 110 60" version="1.1" xmlns="http://www.w3.org/2000/svg" xmlns:xlink="http://www.w3.org/1999/xlink">
    <title>Clone from GitHub</title>
    <rect fill="rgba(40, 167, 69, 0.87)" x="1" y="1" width="108" height="57" rx="9"></rect>
    <path fill="rgb(247, 247, 247)" d="M89.200682,40.776006 C91.1193457,40.8323075 91.738501,40.1445758 91.738501,36.6596815 C91.738501,33.3549521 90.3665744,32.936444 88.9427446,33.060478 C87.8168317,33.1584086 86.8990577,33.7057277 86.8990577,33.7057277 L86.8990577,40.1299032 C86.8990577,40.1299032 87.8292816,40.7354006 89.200682,40.776006 Z M90.7602317,29.3462829 C93.0074983,29.3462829 96.3333333,30.1633376 96.3333333,36.4163906 C96.3333333,42.6694436 94.2508946,44.4615385 90.6197778,44.4615385 C87.5268052,44.4615385 85.8929078,42.9550459 85.8929078,42.9550459 C85.8929078,42.9550459 85.7934851,43.7813136 85.7245732,43.8903338 C85.6547848,44.0000365 85.5602716,44.0626506 85.4354236,44.0626506 L82.6631638,44.0626506 C82.4809766,44.0626506 82.3333333,43.9169491 82.3333333,43.7379785 L82.3333333,23.4518536 C82.3333333,23.2727124 82.4809766,23.1282051 82.6626376,23.1282051 L86.6583042,23.1282051 C86.8399653,23.1282051 86.9870826,23.2727124 86.9870826,23.4518536 L86.9870826,30.3211525 C86.9870826,30.3211525 88.5145435,29.3462829 90.7602317,29.3462829 Z M79.9903243,29.7948718 C80.1789881,29.7948718 80.332062,29.9401319 80.332062,30.1189791 L80.3333333,43.7273953 C80.3333333,43.9053901 80.1797145,44.0509912 79.9921398,44.0509912 L77.3484825,44.0619027 C77.216472,44.0619027 77.0942672,43.9737578 77.0472374,43.8864653 C77.000389,43.7988319 76.8967054,43.0605969 76.8967054,43.0605969 C76.8967054,43.0605969 74.7191697,44.4615385 72.0184955,44.4615385 C68.7264074,44.4615385 66.3333333,43.475236 66.3333333,39.4437568 L66.3333333,30.1189791 C66.3333333,29.9401319 66.4869522,29.7948718 66.6745269,29.7948718 L70.830039,29.7948718 C71.0179766,29.7948718 71.1705059,29.9401319 71.1705059,30.1189791 L71.1705059,38.7873585 C71.1705059,40.1446539 71.5623607,40.7736028 73.0386252,40.7736028 C74.5150715,40.7736028 75.555175,40.0590663 75.555175,40.0590663 L75.555175,30.1189791 C75.555175,29.9401319 75.7080675,29.7948718 75.8958236,29.7948718 L79.9903243,29.7948718 Z M64.3333333,23.4477137 L64.3333333,43.4743526 C64.3329863,43.651034 64.1886153,43.7948718 64.0079783,43.7948718 L60.0556517,43.7948718 C59.8753617,43.7948718 59.7290821,43.651034 59.7290821,43.4743526 C59.7290821,43.4736789 59.7398405,34.908254 59.7398405,34.908254 L53.5938399,34.908254 L53.5938399,43.4743526 C53.5938399,43.651034 53.4487748,43.7948718 53.2684849,43.7948718 L49.3257021,43.7948718 C49.1462796,43.7948718 49,43.651034 49,43.4743526 L49,23.4477137 C49,23.270864 49.1462796,23.1282051 49.3257021,23.1282051 L53.2684849,23.1282051 C53.4487748,23.1282051 53.5938399,23.270864 53.5938399,23.4477137 L53.5938399,30.8439089 L59.7398405,30.8439089 C59.7398405,30.8439089 59.7387993,23.4485559 59.7387993,23.4477137 C59.7387993,23.270864 59.8852523,23.1282051 60.0653688,23.1282051 L64.0083254,23.1282051 C64.1889624,23.1282051 64.3333333,23.270864 64.3333333,23.4477137 Z M46.6032738,29.8410365 C46.7908075,29.8410365 46.9426031,29.9848865 46.9426031,30.1632537 L46.9426031,33.2776238 C46.9426031,33.4565012 46.7908075,33.6006913 46.6032738,33.6006913 L43.5265694,33.6006913 C43.5265694,33.6006913 43.5267499,38.4288491 43.5267499,39.2849779 C43.5267499,40.1417867 44.038812,40.8037349 45.5499096,40.8037349 C46.0220824,40.8037349 46.4807183,40.7350406 46.659949,40.7350406 C46.8400821,40.7350406 47,40.8794007 47,41.0577679 L46.9965707,43.7929589 C46.9965707,43.9218458 46.9258169,44.0407006 46.8039834,44.0828694 C46.6025519,44.152924 45.3824109,44.4615385 44.3624381,44.4615385 C42.1300856,44.4615385 38.8219876,44.0250573 38.8219876,39.5821999 L38.8219876,33.6006913 L36.672482,33.6006913 C36.4849485,33.6006913 36.3333333,33.4565012 36.3333333,33.2776238 L36.3333333,30.7911948 C36.3333333,30.6446242 36.4374785,30.5216885 36.578986,30.4830905 C36.7210349,30.4444924 38.8219876,29.9666927 38.8219876,29.9666927 L38.8219876,26.0099667 C38.8219876,25.8623759 38.9095273,25.7948718 39.0725136,25.7948718 L43.2650333,25.7948718 C43.4428201,25.7948718 43.522057,25.8673069 43.522057,26.0121772 C43.522057,26.0130274 43.5267499,29.8410365 43.5267499,29.8410365 L46.6032738,29.8410365 Z M34.3333333,39.2867939 L34.3333333,43.2875104 C34.3333333,43.6111518 34.2366541,43.7948718 33.8423648,43.7948718 L30.2485031,43.7948718 C29.9202516,43.7948718 29.6666667,43.6800259 29.6666667,43.2936956 L29.6666667,30.1482695 C29.6666667,29.9740782 29.8304402,29.7948718 30.0134088,29.7948718 L34.0022641,29.7948718 C34.1852327,29.7948718 34.3333333,29.9373008 34.3333333,30.1114921 L34.3333333,39.2867939 Z M35,26.4607276 C35,27.9334895 33.806038,29.1282051 32.3330603,29.1282051 C30.8615386,29.1282051 29.6666667,27.9334895 29.6666667,26.4607276 C29.6666667,24.9863439 30.8615386,23.7948718 32.3330603,23.7948718 C33.806038,23.7948718 35,24.9863439 35,26.4607276 Z M27.3337995,31.8776232 C27.5176269,31.8776232 27.6666667,32.0209302 27.6666667,32.197269 L27.6666667,42.6212459 C27.6666667,42.6812112 27.6560714,42.8118137 27.5585952,42.8634788 C27.5585952,42.8634788 25.1937375,44.4615385 21.2953953,44.4615385 C16.5872235,44.4615385 11,43.0706472 11,33.7367185 C11,24.4031284 15.8799913,22.4615385 20.6374309,22.4615385 C24.7671025,22.4615385 26.4017715,23.3389976 26.6696545,23.5222815 C26.7678371,23.5898696 26.796974,23.6893036 26.796974,23.7717983 L26.0019778,27.0011188 C26.0019778,27.177627 25.8102039,27.3756482 25.6028904,27.3146665 C24.9431601,27.1188474 23.9062392,26.7123027 21.4993537,26.7123027 C18.7188094,26.7123027 15.7570865,27.5018464 15.7570865,33.5027858 C15.7570865,39.50237 18.6013788,40.2160255 20.6374309,40.2160255 C22.363219,40.2160255 22.9874552,40.0119061 22.9874552,40.0119061 L22.9874552,35.8593902 L20.2074407,35.8593902 C20.0236133,35.8593902 19.874397,35.7159138 19.874397,35.539575 L19.874397,32.197269 C19.874397,32.0209302 20.0236133,31.8776232 20.2074407,31.8776232 L27.3337995,31.8776232 Z" transform="translate(0.0, 1.0)"></path>
    <path fill="rgb(255, 255, 255)" d="M11.5,13.779 C11.511,10.677 12.655,9.5 15.064,9.5 C16.021,9.5 16.45,9.676 16.78,9.808 L16.78,11.469 C16.285,11.271 15.9,11.15 15.24,11.15 C13.898,11.15 13.282,11.689 13.282,13.779 C13.282,15.869 13.898,16.408 15.24,16.408 C15.9,16.408 16.285,16.287 16.78,16.089 L16.78,17.75 C16.45,17.882 16.021,18.058 15.064,18.058 C12.655,18.058 11.511,16.881 11.5,13.779 Z M20.7667143,16.529 L20.7667143,17.948 C20.7667143,17.948 20.5357143,17.992 20.2607143,17.992 C19.3147143,17.992 18.5667143,17.508 18.5667143,16.441 L18.5667143,9.654 L20.3157143,9.654 L20.3157143,16.199 C20.3157143,16.408 20.4147143,16.529 20.7667143,16.529 Z M24.6874285,18.058 C22.6524285,18.058 22.1024285,16.87 22.1024285,15.154 C22.1024285,13.438 22.6524285,12.25 24.6874285,12.25 C26.7224285,12.25 27.2724285,13.438 27.2724285,15.154 C27.2724285,16.87 26.7224285,18.058 24.6874285,18.058 Z M24.6874285,13.658 C24.0824285,13.658 23.8624285,14.054 23.8624285,15.154 C23.8624285,16.254 24.0824285,16.65 24.6874285,16.65 C25.2924285,16.65 25.5124285,16.254 25.5124285,15.154 C25.5124285,14.054 25.2924285,13.658 24.6874285,13.658 Z M28.8281428,12.404 L29.8841428,12.404 L30.1041428,12.8 C30.7201428,12.426 31.4131428,12.25 32.0181428,12.25 C33.5141428,12.25 33.9431428,13.042 33.9431428,14.098 L33.9431428,17.904 L32.1831428,17.904 L32.1831428,14.362 C32.1831428,13.955 32.0401428,13.68 31.5671428,13.68 C31.1381428,13.68 30.7531428,13.856 30.5881428,13.966 L30.5881428,17.904 L28.8281428,17.904 L28.8281428,12.404 Z M40.3938571,15.737 L37.1818571,15.737 C37.1378571,16.452 37.5118571,16.661 38.3698571,16.661 C39.1948571,16.661 39.8108571,16.496 40.2068571,16.298 L40.2068571,17.673 C39.5688571,17.937 38.7988571,18.058 38.1388571,18.058 C36.3238571,18.058 35.4438571,17.134 35.4438571,15.154 C35.4438571,13.174 36.3128571,12.25 38.0178571,12.25 C40.3718571,12.25 40.5368571,14.01 40.3938571,15.737 Z M38.0398571,13.57 C37.4458571,13.57 37.1818571,13.966 37.1818571,14.659 L38.7438571,14.659 C38.8428571,14.054 38.7108571,13.57 38.0398571,13.57 Z M48.8842856,9.687 L48.8842856,11.161 C48.7192856,11.084 48.4662856,10.963 48.0262856,10.963 C47.6412856,10.963 47.3002856,11.128 47.3002856,11.645 L47.3002856,12.404 L48.7192856,12.404 L48.7192856,13.867 L47.3002856,13.867 L47.3002856,17.904 L45.5402856,17.904 L45.5402856,13.867 L44.6492856,13.867 L44.6492856,12.701 L45.5402856,12.459 L45.5402856,11.436 C45.5402856,10.138 46.2552856,9.5 47.8502856,9.5 C48.0922856,9.5 48.5872856,9.555 48.8842856,9.687 Z M53.5749999,12.327 L53.5749999,13.746 C53.4869999,13.724 53.2669999,13.702 53.0359999,13.702 C52.4969999,13.702 52.0129999,13.889 51.8699999,14.021 L51.8699999,17.904 L50.1099999,17.904 L50.1099999,12.404 L51.1659999,12.404 L51.3859999,12.8 C51.6609999,12.536 52.2549999,12.25 53.0799999,12.25 C53.2999999,12.25 53.4979999,12.294 53.5749999,12.327 Z M57.3307141,18.058 C55.2957141,18.058 54.7457141,16.87 54.7457141,15.154 C54.7457141,13.438 55.2957141,12.25 57.3307141,12.25 C59.3657141,12.25 59.9157141,13.438 59.9157141,15.154 C59.9157141,16.87 59.3657141,18.058 57.3307141,18.058 Z M57.3307141,13.658 C56.7257141,13.658 56.5057141,14.054 56.5057141,15.154 C56.5057141,16.254 56.7257141,16.65 57.3307141,16.65 C57.9357141,16.65 58.1557141,16.254 58.1557141,15.154 C58.1557141,14.054 57.9357141,13.658 57.3307141,13.658 Z M69.3694284,17.904 L67.6094284,17.904 L67.6094284,14.12 C67.6094284,13.834 67.4554284,13.68 67.1144284,13.68 C66.7404284,13.68 66.4214284,13.856 66.3004284,13.966 L66.3004284,17.904 L64.5404284,17.904 L64.5404284,14.12 C64.5404284,13.834 64.3864284,13.68 64.0454284,13.68 C63.6714284,13.68 63.3524284,13.856 63.2314284,13.966 L63.2314284,17.904 L61.4714284,17.904 L61.4714284,12.404 L62.5274284,12.404 L62.7474284,12.8 C63.1434284,12.459 63.9024284,12.25 64.4744284,12.25 C65.2114284,12.25 65.5744284,12.448 65.7504284,12.701 C66.1464284,12.404 66.8724284,12.25 67.5324284,12.25 C68.9624284,12.25 69.3694284,13.108 69.3694284,14.098 L69.3694284,17.904 Z" transform="translate(0.0, 1.0)"></path>
</svg>