<svg viewBox="0 0 120 120" xmlns="http://www.w3.org/2000/svg">
    <polygon fill="#FF0100" points="113.923755 41.1900244 109.912111 47.7523824 116.487564 51.7428955 111.301383 57.4305982 117 62.5938335 110.83775 67.1918818 115.461064 73.3372719 108.535853 76.6893029 111.916306 83.5985912 104.485166 85.5840751 106.481228 93.0080582 98.8158312 93.5422983 99.3803245 101.225258 91.7507171 100.290337 90.8527334 107.939092 83.5354681 105.57736 81.2107967 112.915018 74.4726658 109.21117 70.8026457 115.977126 64.8827861 111.056579 60.0024402 117 55.1188407 111.056579 49.1989811 115.977126 45.5273342 109.21117 38.7908301 112.915018 36.4661587 105.57736 29.1505201 107.939092 28.2541633 100.290337 20.6213023 101.225258 21.1874224 93.5422983 13.5187722 93.0080582 15.5213408 85.5840751 8.088574 83.5985912 11.4625198 76.6893029 4.54218931 73.3372719 9.16387688 67.1918818 3 62.5954623 8.69861724 57.432227 3.51080954 51.7445243 10.0846355 47.7540112 6.07461792 41.1900244 13.2828888 38.5139375 10.580804 31.3098398 18.1664883 30.0507922 16.8731966 22.4639311 24.5597414 22.6626423 24.7273 14.9699104 32.2365255 16.6214942 33.8535468 9.0965267 40.9121538 12.1390893 43.9217004 5.05552142 50.2791643 9.38319212 54.572242 3 59.9991866 8.45641582 65.4245045 3 69.7224624 9.38319212 76.0815531 5.05552142 79.0878462 12.1390893 86.1464532 9.0965267 87.7651012 16.6214942 95.2743268 14.9699104 95.4418854 22.6626423 103.12843 22.4639311 101.833512 30.0507922 109.417569 31.3098398 106.717111 38.5155663"></polygon>
</svg>
