<?xml version="1.0" encoding="UTF-8"?>
<svg width="64" height="44" viewBox="0 0 64 44" version="1.1" xmlns="http://www.w3.org/2000/svg">
    <path fill="rgba(203, 229, 209, 0.9)" stroke="rgba(204, 204, 204, 0.5)" stroke-width="0.5" d="M55.590287,2.25 C57.7482845,2.25 58.5343402,2.46585564 59.3242145,2.88828506 C60.0948178,3.30040821 60.6995918,3.90518217 61.1117149,4.67578546 C61.5341444,5.46565979 61.75,6.25171546 61.75,8.409713 L61.75,35.590287 C61.75,37.7482845 61.5341444,38.5343402 61.1117149,39.3242145 C60.6995918,40.0948178 60.0948178,40.6995918 59.3242145,41.1117149 C58.5343402,41.5341444 57.7482845,41.75 55.590287,41.75 L8.409713,41.75 C6.25171546,41.75 5.46565979,41.5341444 4.67578546,41.1117149 C3.90518217,40.6995918 3.30040821,40.0948178 2.88828506,39.3242145 C2.46585564,38.5343402 2.25,37.7482845 2.25,35.590287 L2.25,8.409713 C2.25,6.25171546 2.46585564,5.46565979 2.88828506,4.67578546 C3.30040821,3.90518217 3.90518217,3.30040821 4.67578546,2.88828506 C5.46565979,2.46585564 6.25171546,2.25 8.409713,2.25 Z"></path>
    <path fill="white" d="M40.2852643,22.6257408 C41.1350574,22.6257408 41.6866665,23.1769364 41.6866665,24.0260925 L41.6866665,35.9888191 C41.6866665,37.1955692 40.8965519,38 39.6888964,38 L23.8111036,38 C22.6183677,38 21.8133057,37.1955692 21.8133057,35.9888191 L21.8133057,24.0260925 C21.8133057,23.1769364 22.3798622,22.6257408 23.2147357,22.6257408 Z M36.6325976,32.0260909 L26.8971723,32.0260909 C26.3455632,32.0260909 25.9280917,32.4432494 25.9280917,32.994445 C25.9280917,33.5158237 26.3455632,33.9329822 26.8971723,33.9329822 L36.6325976,33.9329822 C37.184276,33.9329822 37.5867585,33.5158237 37.5867585,32.994445 C37.5867585,32.4432494 37.184276,32.0260909 36.6325976,32.0260909 Z M36.6325976,26.6927586 L26.8971723,26.6927586 C26.3455632,26.6927586 25.9280917,27.0950087 25.9280917,27.6163874 C25.9280917,28.167583 26.3455632,28.5996499 26.8971723,28.5996499 L36.6325976,28.5996499 C37.184276,28.5996499 37.5867585,28.167583 37.5867585,27.6163874 C37.5867585,27.0950087 37.184276,26.6927586 36.6325976,26.6927586 Z"></path>
    <path fill="rgba(68, 68, 68, 0.85)" d="M19.4279034,32.2942345 L19.7708046,32.2942345 L19.7708046,24.0260925 C19.7708046,21.8957135 21.0827724,20.5847431 23.2147357,20.5847431 L40.2852643,20.5847431 C42.4172415,20.5847431 43.7291954,21.8957135 43.7291954,24.0260925 L43.7291954,32.2942345 L44.0571492,32.2942345 C46.9643908,32.2942345 48.5,30.8342492 48.5,27.9292563 L48.5,15.8026064 C48.5,12.8976135 46.9643908,11.4227197 44.0571492,11.4227197 L19.4279034,11.4227197 C16.6846873,11.4227197 15,12.8976135 15,15.8026064 L15,27.9292563 C15,30.8342492 16.5356023,32.2942345 19.4279034,32.2942345 Z M20.9038689,9.44134178 L42.596138,9.44134178 L42.596138,9.18808581 C42.596138,6.983241 40.8816323,6 38.4663907,6 L25.0336093,6 C22.7227356,6 20.9038689,6.983241 20.9038689,9.18808581 L20.9038689,9.44134178 Z M39.0030802,16.353802 C39.0030802,15.3258835 39.8827125,14.4320022 40.9412413,14.4320022 C41.9550806,14.4320022 42.8495631,15.3258835 42.8495631,16.353802 C42.8495631,17.4115372 41.9550806,18.2457849 40.9412413,18.2606933 C39.8827125,18.2606933 39.0030802,17.4264457 39.0030802,16.353802 Z"></path>
</svg>