<?xml version="1.0" encoding="UTF-8"?>
<svg width="64" height="44" viewBox="0 0 64 44" version="1.1" xmlns="http://www.w3.org/2000/svg">
    <path fill="rgb(158, 75, 208)" stroke="rgba(204, 204, 204, 0.25)" stroke-width="0.5" d="M55.590287,2.25 C57.7482845,2.25 58.5343402,2.46585564 59.3242145,2.88828506 C60.0948178,3.30040821 60.6995918,3.90518217 61.1117149,4.67578546 C61.5341444,5.46565979 61.75,6.25171546 61.75,8.409713 L61.75,35.590287 C61.75,37.7482845 61.5341444,38.5343402 61.1117149,39.3242145 C60.6995918,40.0948178 60.0948178,40.6995918 59.3242145,41.1117149 C58.5343402,41.5341444 57.7482845,41.75 55.590287,41.75 L8.409713,41.75 C6.25171546,41.75 5.46565979,41.5341444 4.67578546,41.1117149 C3.90518217,40.6995918 3.30040821,40.0948178 2.88828506,39.3242145 C2.46585564,38.5343402 2.25,37.7482845 2.25,35.590287 L2.25,8.409713 C2.25,6.25171546 2.46585564,5.46565979 2.88828506,4.67578546 C3.30040821,3.90518217 3.90518217,3.30040821 4.67578546,2.88828506 C5.46565979,2.46585564 6.25171546,2.25 8.409713,2.25 Z"></path>
    <path fill="white" d="M22,32.7205743 C22,34.9882703 23.6160152,36.5 26.0326198,36.5 L37.9525781,36.5 C40.3691482,36.5 42,34.9882703 42,32.7205743 L42,11.2794528 C42,9.01178382 40.3691482,7.5 37.9525781,7.5 L26.0326198,7.5 C23.6160152,7.5 22,9.01178382 22,11.2794528 L22,32.7205743 Z M24.5,18.4097321 L24.5,11.6284252 C24.5,10.4887106 25.1864694,9.84761905 26.4279501,9.84761905 L37.5720771,9.84761905 C38.7989619,9.84761905 39.5,10.4887106 39.5,11.6284252 L39.5,18.4097321 C39.5,19.5636704 38.7989619,20.2047619 37.5720771,20.2047619 L26.4279501,20.2047619 C25.1864694,20.2047619 24.5,19.5636704 24.5,18.4097321 Z M32.0075882,33.7380952 C28.8590265,33.7380952 26.2857143,31.2732807 26.2857143,28.2215926 C26.2857143,25.1552907 28.8590265,22.6904762 32.0075882,22.6904762 C35.1409312,22.6904762 37.7142857,25.1552907 37.7142857,28.2215926 C37.7142857,31.2732807 35.1409312,33.7380952 32.0075882,33.7380952 Z M32.0151582,31.6666667 C30.0326826,31.6666667 28.4285714,30.1126995 28.4285714,28.2215868 C28.4285714,26.3158719 30.0326826,24.7619048 32.0151582,24.7619048 C33.9824193,24.7619048 35.5714286,26.3158719 35.5714286,28.2215868 C35.5714286,30.1126995 33.9824193,31.6666667 32.0151582,31.6666667 Z"></path>
</svg>