<?xml version="1.0" encoding="UTF-8"?>
<svg width="64" height="44" viewBox="0 0 64 44" version="1.1" xmlns="http://www.w3.org/2000/svg">
    <path fill="rgb(34, 34, 34)" stroke="rgb(39, 39, 39)" stroke-width="0.5" d="M55.590287,2.25 C57.7482845,2.25 58.5343402,2.46585564 59.3242145,2.88828506 C60.0948178,3.30040821 60.6995918,3.90518217 61.1117149,4.67578546 C61.5341444,5.46565979 61.75,6.25171546 61.75,8.409713 L61.75,35.590287 C61.75,37.7482845 61.5341444,38.5343402 61.1117149,39.3242145 C60.6995918,40.0948178 60.0948178,40.6995918 59.3242145,41.1117149 C58.5343402,41.5341444 57.7482845,41.75 55.590287,41.75 L8.409713,41.75 C6.25171546,41.75 5.46565979,41.5341444 4.67578546,41.1117149 C3.90518217,40.6995918 3.30040821,40.0948178 2.88828506,39.3242145 C2.46585564,38.5343402 2.25,37.7482845 2.25,35.590287 L2.25,8.409713 C2.25,6.25171546 2.46585564,5.46565979 2.88828506,4.67578546 C3.30040821,3.90518217 3.90518217,3.30040821 4.67578546,2.88828506 C5.46565979,2.46585564 6.25171546,2.25 8.409713,2.25 Z"></path>
    <path fill="white" d="M32.4851297,14.5 C31.8446333,14.5 31.3680218,14.9608422 31.3680218,15.6149476 L31.3680218,23.0480701 L31.487192,26.184842 L29.9978073,24.400912 L28.2253673,22.616982 C28.0169061,22.4088418 27.7487559,22.2898947 27.4360294,22.2898947 C26.8253429,22.2898947 26.3636364,22.7507369 26.3636364,23.3602804 C26.3636364,23.6724906 26.4529967,23.9400697 26.6466222,24.1333329 L31.6212672,29.0689118 C31.919158,29.366245 32.172334,29.5 32.4851297,29.5 C32.8127611,29.5 33.080842,29.351368 33.3638279,29.0689118 L38.3235679,24.1333329 C38.5171934,23.9400697 38.6363636,23.6724906 38.6363636,23.3602804 C38.6363636,22.7507369 38.1597522,22.2898947 37.5491349,22.2898947 C37.2214343,22.2898947 36.9533533,22.3939648 36.7597278,22.616982 L35.0021927,24.400912 L33.4829981,26.1997191 L33.6021683,23.0480701 L33.6021683,15.6149476 C33.6021683,14.9608422 33.1404618,14.5 32.4851297,14.5 Z M32.5000342,37 C40.7058656,37 47.5,30.1912175 47.5,22.0000342 C47.5,13.7941207 40.6912175,7 32.4853176,7 C24.2941207,7 17.5,13.7941207 17.5,22.0000342 C17.5,30.1912175 24.3088304,37 32.5000342,37 Z M32.4926947,34.4431818 C25.5789542,34.4431818 20.0568182,28.9096248 20.0568182,22.0000204 C20.0568182,15.0903479 25.5643641,9.55681818 32.4780364,9.55681818 C39.3917087,9.55681818 44.9431818,15.0903479 44.9431818,22.0000204 C44.9431818,28.9096248 39.406367,34.4431818 32.4926947,34.4431818 Z"></path>
</svg>