<?xml version="1.0" encoding="UTF-8"?>
<svg width="64" height="44" viewBox="0 0 64 44" version="1.1" xmlns="http://www.w3.org/2000/svg">
    <path fill="rgb(78, 149, 83)" stroke="rgba(204, 204, 204, 0.25)" stroke-width="0.5" d="M55.590287,2.25 C57.7482845,2.25 58.5343402,2.46585564 59.3242145,2.88828506 C60.0948178,3.30040821 60.6995918,3.90518217 61.1117149,4.67578546 C61.5341444,5.46565979 61.75,6.25171546 61.75,8.409713 L61.75,35.590287 C61.75,37.7482845 61.5341444,38.5343402 61.1117149,39.3242145 C60.6995918,40.0948178 60.0948178,40.6995918 59.3242145,41.1117149 C58.5343402,41.5341444 57.7482845,41.75 55.590287,41.75 L8.409713,41.75 C6.25171546,41.75 5.46565979,41.5341444 4.67578546,41.1117149 C3.90518217,40.6995918 3.30040821,40.0948178 2.88828506,39.3242145 C2.46585564,38.5343402 2.25,37.7482845 2.25,35.590287 L2.25,8.409713 C2.25,6.25171546 2.46585564,5.46565979 2.88828506,4.67578546 C3.30040821,3.90518217 3.90518217,3.30040821 4.67578546,2.88828506 C5.46565979,2.46585564 6.25171546,2.25 8.409713,2.25 Z" id="Rectangle"></path>
    <path fill="white" d="M40.3947368,9 C42.9381535,9 45,11.0638581 45,13.6097561 C45,15.5754412 43.7708575,17.2537645 42.0399368,17.9166525 L42.0394737,19.5681133 C42.0394737,22.2036103 39.9040626,24.3411047 37.2711344,24.3411047 L34.1447368,24.3406098 L34.1452,27.0833475 C35.8761207,27.7462355 37.1052632,29.4245588 37.1052632,31.3902439 C37.1052632,33.9361419 35.0434166,36 32.5,36 C29.9565834,36 27.8947368,33.9361419 27.8947368,31.3902439 C27.8947368,29.424311 29.1241893,27.7458122 30.8554548,27.0830968 L30.8552632,24.3406098 L27.7288656,24.3411047 C25.1485959,24.3411047 23.0461418,22.2882551 22.9630757,19.7256324 L22.9605263,19.5681133 L22.960718,17.9169032 C21.2294524,17.2541878 20,15.575689 20,13.6097561 C20,11.0638581 22.0618465,9 24.6052632,9 C27.1486798,9 29.2105263,11.0638581 29.2105263,13.6097561 C29.2105263,15.6143533 27.9322386,17.3200992 26.1470843,17.9548201 L26.1468726,19.5681133 C26.1468726,20.4410168 26.856813,21.1572453 27.7344557,21.1572453 L37.2767244,21.1572453 C38.1487771,21.1572453 38.8643075,20.4466123 38.8643075,19.5681133 L38.8641789,17.9588082 C37.0731406,17.3272685 35.7894737,15.6185668 35.7894737,13.6097561 C35.7894737,11.0638581 37.8513202,9 40.3947368,9 Z M32.492157,29.4146341 C31.4156284,29.4146341 30.5263158,30.2886272 30.5263158,31.3811367 C30.5263158,32.4737188 31.4156284,33.3633306 32.492157,33.3633306 C33.5843716,33.3633306 34.4736842,32.4737188 34.4736842,31.3811367 C34.4736842,30.2886272 33.5843716,29.4146341 32.492157,29.4146341 Z M40.3868938,11.6341463 C39.3103652,11.6341463 38.4210526,12.5081394 38.4210526,13.6006489 C38.4210526,14.693231 39.3103652,15.5828428 40.3868938,15.5828428 C41.4791085,15.5828428 42.3684211,14.693231 42.3684211,13.6006489 C42.3684211,12.5081394 41.4791085,11.6341463 40.3868938,11.6341463 Z M24.5974201,11.6341463 C23.5208915,11.6341463 22.6315789,12.5081394 22.6315789,13.6006489 C22.6315789,14.693231 23.5208915,15.5828428 24.5974201,15.5828428 C25.6896348,15.5828428 26.5789474,14.693231 26.5789474,13.6006489 C26.5789474,12.5081394 25.6896348,11.6341463 24.5974201,11.6341463 Z"></path>
</svg>