<?xml version="1.0" encoding="UTF-8"?>
<svg width="64" height="44" viewBox="0 0 64 44" version="1.1" xmlns="http://www.w3.org/2000/svg">
    <path fill="rgb(34, 34, 34)" stroke="rgb(39, 39, 39)" stroke-width="0.5" d="M55.590287,2.25 C57.7482845,2.25 58.5343402,2.46585564 59.3242145,2.88828506 C60.0948178,3.30040821 60.6995918,3.90518217 61.1117149,4.67578546 C61.5341444,5.46565979 61.75,6.25171546 61.75,8.409713 L61.75,35.590287 C61.75,37.7482845 61.5341444,38.5343402 61.1117149,39.3242145 C60.6995918,40.0948178 60.0948178,40.6995918 59.3242145,41.1117149 C58.5343402,41.5341444 57.7482845,41.75 55.590287,41.75 L8.409713,41.75 C6.25171546,41.75 5.46565979,41.5341444 4.67578546,41.1117149 C3.90518217,40.6995918 3.30040821,40.0948178 2.88828506,39.3242145 C2.46585564,38.5343402 2.25,37.7482845 2.25,35.590287 L2.25,8.409713 C2.25,6.25171546 2.46585564,5.46565979 2.88828506,4.67578546 C3.30040821,3.90518217 3.90518217,3.30040821 4.67578546,2.88828506 C5.46565979,2.46585564 6.25171546,2.25 8.409713,2.25 Z"></path>
    <path fill="white" d="M37.6714725,14.2629876 C35.5428797,14.2629876 33.8000162,15.5505203 32.6857166,15.5505203 C31.5,15.5505203 29.9571521,14.3478748 28.0999861,14.3478748 C24.5714306,14.3478748 21,17.2341713 21,22.6672155 C21,26.062901 22.3142857,29.6424539 23.9571495,31.9486989 C25.3571455,33.9011703 26.5857209,35.5 28.3571833,35.5 C30.0999803,35.5 30.871439,34.353924 33.0428537,34.353924 C35.2428606,34.353924 35.7428924,35.4716823 37.6714725,35.4716823 C39.5857565,35.4716823 40.8571804,33.7313959 42.0714864,32.0194272 C43.4143245,30.052797 43.9857704,28.1427362 44,28.0436901 C43.885764,28.0153725 40.2286165,26.5298135 40.2286165,22.384302 C40.2286165,18.7905244 43.1000093,17.1776017 43.2714297,17.0503039 C41.3714419,14.3478748 38.4714569,14.2629876 37.6714725,14.2629876 Z M36.6714754,11.970941 C37.5428739,10.9239506 38.1571417,9.49494797 38.1571417,8.0517938 C38.1571417,7.85371357 38.1428456,7.655634 38.1143198,7.5 C36.685705,7.55659421 34.9714338,8.43380529 33.9571405,9.62228536 C33.14286,10.5277927 32.3999936,11.970941 32.3999936,13.4140958 C32.3999936,13.6404727 32.442882,13.8526972 32.4571781,13.9234453 C32.5428884,13.937591 32.6857166,13.9658889 32.842841,13.9658889 C34.1143314,13.9658889 35.7143002,13.1169774 36.6714754,11.970941 Z"></path>
</svg>