<?xml version="1.0" encoding="UTF-8"?>
<svg width="64" height="44" viewBox="0 0 64 44" version="1.1" xmlns="http://www.w3.org/2000/svg">
    <path fill="white" stroke="rgba(204, 204, 204, 0.5)" stroke-width="0.5" d="M55.590287,2.25 C57.7482845,2.25 58.5343402,2.46585564 59.3242145,2.88828506 C60.0948178,3.30040821 60.6995918,3.90518217 61.1117149,4.67578546 C61.5341444,5.46565979 61.75,6.25171546 61.75,8.409713 L61.75,35.590287 C61.75,37.7482845 61.5341444,38.5343402 61.1117149,39.3242145 C60.6995918,40.0948178 60.0948178,40.6995918 59.3242145,41.1117149 C58.5343402,41.5341444 57.7482845,41.75 55.590287,41.75 L8.409713,41.75 C6.25171546,41.75 5.46565979,41.5341444 4.67578546,41.1117149 C3.90518217,40.6995918 3.30040821,40.0948178 2.88828506,39.3242145 C2.46585564,38.5343402 2.25,37.7482845 2.25,35.590287 L2.25,8.409713 C2.25,6.25171546 2.46585564,5.46565979 2.88828506,4.67578546 C3.30040821,3.90518217 3.90518217,3.30040821 4.67578546,2.88828506 C5.46565979,2.46585564 6.25171546,2.25 8.409713,2.25 Z"></path>
    <path fill="rgb(69, 138, 231)" d="M32,6 C40.836556,6 48,13.163444 48,22 C48,30.836556 40.836556,38 32,38 C23.163444,38 16,30.836556 16,22 C16,13.163444 23.163444,6 32,6 Z M38.775411,13.808973 L29.4765773,18.3451595 C28.9722345,18.5814444 28.6255401,18.9279174 28.3576333,19.4792245 L23.7870039,28.8035713 C23.2826611,29.8745878 24.1179995,30.7251549 25.2054725,30.2053721 L34.5200051,25.6377346 C35.04012,25.4014497 35.40266,25.0234525 35.6547947,24.5194318 L40.1938797,15.2107737 C40.7297668,14.108233 39.9259728,13.2576879 38.775411,13.808973 Z M31.9913299,19.8181818 C33.1987236,19.8181818 34.1818182,20.7833997 34.1818182,21.9899422 C34.1818182,23.1965649 33.1987236,24.1790318 31.9913299,24.1790318 C30.8012764,24.1790318 29.8181818,23.1965649 29.8181818,21.9899422 C29.8181818,20.7833997 30.8012764,19.8181818 31.9913299,19.8181818 Z"></path>
</svg>