<?xml version="1.0" encoding="UTF-8"?>
<svg width="128px" height="64px" viewBox="0 0 128 64" version="1.1" xmlns="http://www.w3.org/2000/svg" xmlns:xlink="http://www.w3.org/1999/xlink">
    <g transform="translate(16.5, 12)">
        <path fill="white" stroke="rgba(0, 0, 0, 0.2)" stroke-width="0.5" d="M86.6666667,-0.25 C89.0844995,-0.25 91.2734363,0.730020379 92.8579148,2.31449896 C94.4423934,3.89897754 95.4224138,6.08791432 95.4224138,8.50574713 C95.4224138,11.0211135 94.3617448,13.2887569 92.6632335,14.8857738 L92.6637931,17.4712644 C92.6637931,19.8256162 91.7095035,21.9570817 90.1666259,23.4999593 C88.6237484,25.0428368 86.4922828,25.9971264 84.1381015,25.9971264 C85.0405815,27.5000772 85.7672414,29.4123015 85.7672414,31.4942529 C85.7672414,33.9120857 84.787221,36.1010225 83.2027424,37.685501 C81.6182638,39.2699796 79.4293271,40.25 77.0114943,40.25 C74.9829792,40.25 73.1156079,39.5601318 71.6311027,38.4023088 C70.1644147,37.2583821 69.0716272,35.6575154 68.5663518,33.8137757 L10.6938897,33.8132184 C7.63480071,33.8132184 5.98135673,33.3811425 4.48629462,32.5815745 C2.97541642,31.773548 1.78967037,30.587802 0.981643868,29.0769238 C0.182075903,27.5818617 -0.25,25.9284177 -0.25,22.8693287 L-0.25,20.3490621 C-0.25,17.2899731 0.182075903,15.6365291 0.981643868,14.141467 C1.78967037,12.6305888 2.97541642,11.4448428 4.48629462,10.6368163 C5.98135673,9.83724832 7.63480071,9.40517241 10.6938897,9.40517241 L21.9851321,9.40517241 C22.7245704,9.40517241 22.989195,9.49100001 23.25858,9.63506864 C23.5472359,9.78944355 23.7737748,10.0159824 23.9281497,10.3046384 C24.0722184,10.5740233 24.158046,10.838648 24.158046,11.5780891 L24.1580028,15.382 L59.9790261,15.382 L59.9791833,13.8741775 C58.8770165,12.4560013 58.2013197,10.6898009 58.1445638,8.76126966 C58.1426426,6.22995199 59.1104039,3.9902336 60.6758655,2.37706561 C62.2624907,0.742089151 64.463642,-0.25 66.8965517,-0.25 C69.3143845,-0.25 71.5033213,0.730020379 73.0877999,2.31449896 C74.6722785,3.89897754 75.6522989,6.08791432 75.6522989,8.50574713 C75.6522989,8.80964489 75.6368077,9.10992517 75.6065786,9.40584231 L77.9566398,9.40584231 C77.9264107,9.10992517 77.9109195,8.80964489 77.9109195,8.50574713 C77.9109195,6.08791432 78.8909399,3.89897754 80.4754185,2.31449896 C82.0598971,0.730020379 84.2488339,-0.25 86.6666667,-0.25 Z"></path>
        <path fill="rgb(78, 149, 83)" d="M86.8490511,2.75862069 C90.0540376,2.75862069 92.6521924,5.35931034 92.6521924,8.56742361 C92.6521924,11.0444044 91.1033369,13.1592776 88.9221852,13.9945897 L88.9216016,16.0756132 C88.9216016,19.3966311 86.2307473,22.0901106 82.9129662,22.0901106 L78.9733593,22.089487 L78.9739429,25.5456401 C81.1550946,26.3809523 82.7039502,28.4958255 82.7039502,30.9728063 C82.7039502,34.1809195 80.1057953,36.7816092 76.9008089,36.7816092 C73.6958224,36.7816092 71.0976675,34.1809195 71.0976675,30.9728063 C71.0976675,28.4955132 72.6469137,26.380419 74.8284999,25.5453242 L74.8282584,22.089487 L70.8886515,22.0901106 C67.637226,22.0901106 64.9879011,19.5032929 64.8832286,16.2741047 L64.8800161,16.0756132 L64.8802576,13.9949057 C62.6986714,13.1598109 61.1494253,11.0447167 61.1494253,8.56742361 C61.1494253,5.35931034 63.7475802,2.75862069 66.9525666,2.75862069 C70.1575531,2.75862069 72.7557079,5.35931034 72.7557079,8.56742361 C72.7557079,11.093438 71.144924,13.2428666 68.8954319,14.0426852 L68.8951652,16.0756132 C68.8951652,17.1755682 69.7897686,18.0780953 70.8956956,18.0780953 L82.9200104,18.0780953 C84.0188933,18.0780953 84.9205408,17.1826192 84.9205408,16.0756132 L84.9203787,14.0477107 C82.6634722,13.2519007 81.0459098,11.0987474 81.0459098,8.56742361 C81.0459098,5.35931034 83.6440647,2.75862069 86.8490511,2.75862069 Z M76.8909258,28.4833193 C75.5343806,28.4833193 74.4137483,29.5846473 74.4137483,30.9613302 C74.4137483,32.3381046 75.5343806,33.4591139 76.8909258,33.4591139 C78.2672372,33.4591139 79.3878694,32.3381046 79.3878694,30.9613302 C79.3878694,29.5846473 78.2672372,28.4833193 76.8909258,28.4833193 Z M10.3406909,11.954023 C12.5000738,11.954023 13.4680732,12.3511509 14.2126881,12.6489968 L14.2126881,16.3968915 C13.0957658,15.9501226 12.2270484,15.6770972 10.7378189,15.6770972 C7.70971852,15.6770972 6.3197706,16.8933014 6.3197706,21.6091954 C6.3197706,26.3250894 7.70971852,27.5412935 10.7378189,27.5412935 C12.2270484,27.5412935 13.0957658,27.2682681 14.2126881,26.8214992 L14.2126881,30.5693939 C13.4680732,30.8672399 12.5000738,31.2643678 10.3406909,31.2643678 C4.90500264,31.2643678 2.3236712,28.6085748 2.29885057,21.6091954 C2.3236712,14.6098159 4.90500264,11.954023 10.3406909,11.954023 Z M30.2159973,18.1591467 C34.8077887,18.1591467 36.0488135,20.8397601 36.0488135,24.7117573 C36.0488135,28.5837545 34.8077887,31.2643678 30.2159973,31.2643678 C25.6242058,31.2643678 24.383181,28.5837545 24.383181,24.7117573 C24.383181,20.8397601 25.6242058,18.1591467 30.2159973,18.1591467 Z M58.4558106,18.1591467 C63.7673963,18.1591467 64.1397039,22.1304258 63.8170373,26.0272434 L56.5694531,26.0272434 C56.4701709,27.6405757 57.3140677,28.112165 59.2500665,28.112165 C61.1116036,28.112165 62.5015512,27.7398576 63.395089,27.2930887 L63.395089,30.3956504 C61.9555004,30.9913424 60.2180658,31.2643678 58.728836,31.2643678 C54.6334544,31.2643678 52.6478147,29.1794462 52.6478147,24.7117573 C52.6478147,20.2440682 54.6086338,18.1591467 58.4558106,18.1591467 Z M21.2711639,12.3015099 L21.2711639,27.0697043 C21.2711639,27.5412935 21.4945484,27.8143189 22.2888042,27.8143189 L22.2888042,31.0161627 C22.2888042,31.0161627 21.7675738,31.115445 21.1470614,31.115445 C19.0124988,31.115445 17.3247052,30.0233431 17.3247052,27.6157551 L17.3247052,12.3015099 L21.2711639,12.3015099 Z M45.8375439,18.1591467 C49.2131312,18.1591467 50.1811303,19.9462223 50.1811303,22.3289898 L50.1811303,30.9168808 L46.2098512,30.9168808 L46.2098512,22.9246817 C46.2098512,22.0063233 45.8871849,21.385811 44.8199036,21.385811 C43.8519042,21.385811 42.9831871,21.7829389 42.6108795,22.0311438 L42.6108795,30.9168808 L38.6396004,30.9168808 L38.6396004,18.5066336 L41.0223677,18.5066336 L41.5187779,19.4001714 C42.9087255,18.5562746 44.4724166,18.1591467 45.8375439,18.1591467 Z M30.2159973,21.33617 C28.85087,21.33617 28.3544601,22.2297078 28.3544601,24.7117573 C28.3544601,27.1938068 28.85087,28.0873446 30.2159973,28.0873446 C31.5811246,28.0873446 32.0775344,27.1938068 32.0775344,24.7117573 C32.0775344,22.2297078 31.5811246,21.33617 30.2159973,21.33617 Z M58.5054515,21.137606 C57.1651449,21.137606 56.5694531,22.0311438 56.5694531,23.5948351 L60.0939633,23.5948351 C60.3173477,22.2297078 60.0195017,21.137606 58.5054515,21.137606 Z M86.839168,6.07793664 C85.4826228,6.07793664 84.3619905,7.17926464 84.3619905,8.55594752 C84.3619905,9.93272194 85.4826228,11.0537312 86.839168,11.0537312 C88.2154794,11.0537312 89.3361117,9.93272194 89.3361117,8.55594752 C89.3361117,7.17926464 88.2154794,6.07793664 86.839168,6.07793664 Z M66.9426835,6.07793664 C65.5861383,6.07793664 64.465506,7.17926464 64.465506,8.55594752 C64.465506,9.93272194 65.5861383,11.0537312 66.9426835,11.0537312 C68.3189949,11.0537312 69.4396272,9.93272194 69.4396272,8.55594752 C69.4396272,7.17926464 68.3189949,6.07793664 66.9426835,6.07793664 Z"></path>
    </g>
</svg>