<?xml version="1.0" encoding="UTF-8"?>
<svg width="124px" height="44px" viewBox="0 0 124 44" version="1.1" xmlns="http://www.w3.org/2000/svg" xmlns:xlink="http://www.w3.org/1999/xlink">
    <defs>
        <path id="path" d="M8.8326269,0.5 L109.167373,0.5 C112.064809,0.5 113.115489,0.801683236 114.174749,1.36818129 C115.234008,1.93467934 116.065321,2.7659922 116.631819,3.82525146 C117.198317,4.88451072 117.5,5.935191 117.5,8.8326269 L117.5,29.1673731 C117.5,32.064809 117.198317,33.1154893 116.631819,34.1747485 C116.065321,35.2340078 115.234008,36.0653207 114.174749,36.6318187 C113.115489,37.1983168 112.064809,37.5 109.167373,37.5 L8.8326269,37.5 C5.935191,37.5 4.88451072,37.1983168 3.82525146,36.6318187 C2.7659922,36.0653207 1.93467934,35.2340078 1.36818129,34.1747485 C0.801683236,33.1154893 0.5,32.064809 0.5,29.1673731 L0.5,8.8326269 C0.5,5.935191 0.801683236,4.88451072 1.36818129,3.82525146 C1.93467934,2.7659922 2.7659922,1.93467934 3.82525146,1.36818129 C4.88451072,0.801683236 5.935191,0.5 8.8326269,0.5 Z"></path>
    </defs>
    <g transform="translate(3.000000, 3.000000)">
        <mask id="mask" fill="#FFFFFF">
            <use xlink:href="#path"></use>
        </mask>
        <use fill="#333333" xlink:href="#path"></use>
        <path d="M99.9459128,31.4390798 L99.9445409,31.4390798 C91.2983908,31.6466935 82.5831886,31.4390798 73.6603727,32.2690773 C59.066136,33.2376364 45.5090532,36.4885742 32.2290935,40.5 C32.8961292,37.2985811 35.5926831,36.8126987 38.3707709,36.4696626 L38.8342064,36.4133714 C40.2247738,36.245819 41.6086693,36.0782464 42.7423949,35.5890672 C61.0027968,31.7847978 80.9231937,29.848137 99.9459128,31.4390798 Z M63.4946185,8.5 C64.0484074,9.26094535 64.8779476,10.159995 64.3941254,11.2666583 C61.5579577,16.1085389 59.2755789,21.2961375 57.2003566,26.3451745 C59.6212969,24.5470753 61.8346235,22.126135 64.2555638,20.2585263 C64.8779476,19.7742468 64.6012818,18.5294792 65.5693835,18.5985313 C66.1231725,19.0828109 66.6069947,19.6361425 66.3998383,20.3275784 C65.9155588,21.9185213 64.9469997,23.3713598 64.6703339,24.8927932 C67.1607836,22.2646965 69.9274419,20.3970879 72.5555386,17.837586 C72.970766,18.3223228 73.9388678,18.7366356 73.7317114,19.497581 C73.2474318,20.2585263 73.2474318,21.1575759 72.8322044,21.9185213 L72.9017139,21.9875734 C74.3540951,20.3275784 76.1526517,19.2904246 77.8126466,18.1142518 C78.4350304,18.1142518 78.7807484,18.8751972 79.1269236,19.3594767 L79.1269236,20.1199647 C78.2274167,22.0570828 77.1207534,23.9242342 76.3598081,25.9994565 L76.6364739,25.9994565 C78.5731347,23.8556394 81.7554776,22.8180282 82.6545273,19.9823178 C82.989093,19.6921543 83.2661276,19.243673 83.5529419,18.792418 L83.7267425,18.5225764 C84.2842377,17.6749051 84.9256358,16.9295232 86.1126214,17.3533065 C86.6659531,18.2528134 87.9802301,19.0137587 88.3259481,20.1199647 C87.7810695,20.4973056 87.1281441,20.7285544 86.4653708,20.9407322 L85.8688673,21.1299726 C84.5491791,21.5543068 83.3079381,22.0547825 82.9307358,23.6475684 C82.5850178,24.5470753 81.8935819,25.5156343 82.2392999,26.4837361 C87.7035643,23.7170778 93.3754424,21.5037512 99.2544769,19.8437562 C93.305933,22.4718529 87.1502326,25.1004069 81.8240725,29.6656217 C80.8559707,29.5961123 80.3721485,28.4203969 79.8874117,27.7285036 C79.7493074,26.2765797 80.3026391,25.1694591 80.7174092,23.9242342 C79.8874117,24.1323052 79.0574142,24.9618454 78.3659783,25.5846865 L74.7688652,29.458008 C73.9388678,29.803726 73.8007635,28.6280106 73.316484,28.2127832 C73.1583892,27.8571353 73.3165586,27.5918273 73.4940546,27.339297 L73.6261606,27.1510831 C73.710461,27.0255886 73.7810343,26.8984408 73.8007635,26.7599446 C74.6998131,24.4775658 76.2217038,22.4718529 76.9821919,20.1199647 L76.5674218,20.1199647 C73.5931498,22.3337487 70.4807736,25.4461249 69.1664966,28.6970627 C68.3360418,28.6970627 68.1288854,27.7285036 67.921729,27.175172 C68.8898307,24.8237411 70.3426693,22.6794666 71.2417189,20.2585263 L70.9645958,20.2585263 C67.7831674,23.2327983 64.7398433,26.2070702 62.318903,29.458008 C61.8346235,28.9737285 61.0736781,28.3513447 61.4889055,27.5903994 C62.1803415,25.7227907 63.1489005,23.9937436 63.7712843,22.0570828 C63.4255663,21.8490118 63.1489005,22.3337487 62.8722347,22.4718529 C60.1055764,24.9618454 57.3389181,27.7285036 55.2636958,30.6337235 C54.3646462,31.1870551 54.295594,29.9422876 53.8113145,29.6656217 C53.9494188,28.2127832 54.7798735,27.0366104 55.0560821,25.6537386 C53.8113145,26.0685087 52.773246,27.3827857 51.7356349,28.4203969 C50.9756041,29.2503943 50.2146587,30.0113397 49.4537134,30.772285 C48.8313296,30.6337235 48.4851544,29.9422876 48.1394364,29.458008 C48.6927681,27.0366104 50.0065878,24.9618454 50.9060947,22.6794666 C50.0760972,22.7485187 49.3846613,23.7861299 48.7618202,24.2699521 C47.1713347,26.1380181 46.4794414,28.3513447 45.1647071,30.3570576 C44.597127,30.5463553 44.3530244,30.0880557 44.1447185,29.6247533 L44.0500716,29.4129061 C43.9872714,29.2745577 43.9236702,29.1450953 43.8508874,29.0432379 C44.9575507,26.2070702 46.5484936,23.5094641 47.5861047,20.6047016 L46.9632637,20.6047016 C43.7818353,22.6099572 40.7380539,25.5156343 37.6256777,28.0056268 C37.072346,28.2127832 36.8647323,27.5903994 36.5880665,27.3137335 C33.8214082,31.3256167 32.0923611,36.4437058 27.6652506,39.349383 C26.1438172,39.2798735 24.4143128,38.0346487 24,36.5822674 C24.2762085,31.878491 26.5585873,27.9361173 28.4957054,23.9242342 C31.0547499,19.7742468 33.7523561,15.5552072 37.3490118,12.0276036 C38.8018504,12.3733216 40.4613881,12.4423737 40.9461249,14.102826 C40.8766155,15.9009252 40.1161274,17.3533065 39.0090068,18.6675835 L38.8018504,18.4599698 C38.9399547,17.0075885 39.5627958,15.6242594 39.2170778,14.1718781 L38.8709025,14.1718781 C33.5447424,20.2585263 29.1180892,27.1061199 26.4895351,34.4379929 C26.3514309,35.1298861 26.0747651,35.8908315 26.420483,36.512758 C26.7666583,37.0665469 27.4580942,37.2046512 28.0114258,37.1355991 C31.6771337,34.2998887 33.8904603,30.149444 36.1732964,26.4142266 C36.0351921,23.5094641 37.5566255,21.2961375 39.2170778,19.2904246 C39.5627958,19.0137587 40.1851795,19.151863 40.5999496,19.497581 C40.7760097,20.6860592 40.1957654,21.7065727 39.5721874,22.7192746 L39.3043652,23.1532784 C39.0380472,23.5877378 38.7824776,24.0249647 38.5937794,24.4775658 L38.5937794,24.6851795 C40.046618,24.8927932 40.7380539,23.3018504 42.121383,22.8870803 C44.1966054,21.8490118 45.7184961,19.9823178 47.9318227,19.0828109 C48.4224628,18.8186584 48.6454811,19.1102941 48.8366499,19.4748187 L48.9306717,19.6609195 C49.0554061,19.9111908 49.1834498,20.1580868 49.3846613,20.2585263 C49.4537134,21.2961375 48.5546638,21.9875734 48.6232586,22.8870803 C50.0065878,22.0570828 51.0446562,20.6047016 52.6351418,20.3970879 C53.1194213,20.811858 53.0503692,21.3651896 53.327035,21.8490118 C52.5660896,23.7170778 51.5289358,25.5156343 50.9060947,27.4518378 L51.2518126,27.4518378 C53.327035,25.3770728 56.8546386,23.8556394 57.2694087,20.6737537 C59.0679652,16.523309 61.1427303,12.4423737 63.4946185,8.5 Z" id="Online" fill="#FFFFFF" mask="url(#mask)"></path>
        <path d="M15.6796875,11.0742188 C15.921875,11.0742188 16.140625,11.0195312 16.3359375,10.9101562 L16.3359375,10.9101562 L16.3359375,10.1640625 C16.1484375,10.2473958 15.9882812,10.2890625 15.8554688,10.2890625 C15.0924479,10.2890625 14.7109375,9.54427083 14.7109375,8.0546875 C14.7109375,7.640625 14.7324219,7.28190104 14.7753906,6.97851562 C14.8183594,6.67513021 14.8847656,6.42447917 14.9746094,6.2265625 C15.0644531,6.02864583 15.1783854,5.88216146 15.3164062,5.78710938 C15.4544271,5.69205729 15.6197917,5.64453125 15.8125,5.64453125 C15.953125,5.64453125 16.1276042,5.6953125 16.3359375,5.796875 L16.3359375,5.796875 L16.3359375,5.06640625 C16.1145833,4.94661458 15.890625,4.88671875 15.6640625,4.88671875 C15.0494792,4.88671875 14.593099,5.14973958 14.2949219,5.67578125 C13.9967448,6.20182292 13.8476562,7.00390625 13.8476562,8.08203125 C13.8476562,10.0768229 14.4583333,11.0742188 15.6796875,11.0742188 Z M25.4453125,11.0742188 C26.0026042,11.0742188 26.3997396,10.8502604 26.6367188,10.4023438 C26.8736979,9.95442708 26.9921875,9.19791667 26.9921875,8.1328125 C26.9921875,7.37239583 26.9557292,6.79427083 26.8828125,6.3984375 C26.8098958,5.97135417 26.6927083,5.64192708 26.53125,5.41015625 C26.2864583,5.06380208 25.9114583,4.890625 25.40625,4.890625 C24.8411458,4.890625 24.4401042,5.11458333 24.203125,5.5625 C23.96875,6.0078125 23.8515625,6.76692708 23.8515625,7.83984375 C23.8515625,9.04296875 23.9700521,9.88020833 24.2070312,10.3515625 C24.4466146,10.8333333 24.859375,11.0742188 25.4453125,11.0742188 Z M25.4257812,10.3320312 C25.1471354,10.3320312 24.9570312,10.1705729 24.8554688,9.84765625 C24.7565104,9.50651042 24.7070312,8.89453125 24.7070312,8.01171875 C24.7070312,7.05338542 24.7539062,6.41536458 24.8476562,6.09765625 C24.9440104,5.78255208 25.1367188,5.625 25.4257812,5.625 C25.7148438,5.625 25.90625,5.796875 26,6.140625 C26.09375,6.48177083 26.140625,7.17447917 26.140625,8.21875 C26.140625,9.02604167 26.0898438,9.57942708 25.9882812,9.87890625 C25.8867188,10.1809896 25.6992188,10.3320312 25.4257812,10.3320312 Z M36.171875,11.0742188 C36.6640625,11.0742188 37.0299479,10.9427083 37.2695312,10.6796875 C37.4700521,10.4479167 37.5703125,10.0039062 37.5703125,9.34765625 L37.5703125,9.34765625 L37.5703125,4.96875 L36.7734375,4.96875 L36.7734375,9.34765625 C36.7734375,9.73828125 36.734375,9.99739583 36.65625,10.125 C36.5807292,10.25 36.4244792,10.3125 36.1875,10.3125 C35.9505208,10.3125 35.7916667,10.2408854 35.7109375,10.0976562 C35.6328125,9.95442708 35.59375,9.66536458 35.59375,9.23046875 L35.59375,9.23046875 L35.59375,4.96875 L34.796875,4.96875 L34.796875,9.23046875 C34.796875,9.88932292 34.8736979,10.3346354 35.0273438,10.5664062 C35.2486979,10.9049479 35.6302083,11.0742188 36.171875,11.0742188 Z M47.2109375,11.0742188 C47.453125,11.0742188 47.671875,11.0195312 47.8671875,10.9101562 L47.8671875,10.9101562 L47.8671875,10.1640625 C47.6796875,10.2473958 47.5195312,10.2890625 47.3867188,10.2890625 C46.6236979,10.2890625 46.2421875,9.54427083 46.2421875,8.0546875 C46.2421875,7.640625 46.2636719,7.28190104 46.3066406,6.97851562 C46.3496094,6.67513021 46.4160156,6.42447917 46.5058594,6.2265625 C46.5957031,6.02864583 46.7096354,5.88216146 46.8476562,5.78710938 C46.9856771,5.69205729 47.1510417,5.64453125 47.34375,5.64453125 C47.484375,5.64453125 47.6588542,5.6953125 47.8671875,5.796875 L47.8671875,5.796875 L47.8671875,5.06640625 C47.6458333,4.94661458 47.421875,4.88671875 47.1953125,4.88671875 C46.5807292,4.88671875 46.124349,5.14973958 45.8261719,5.67578125 C45.5279948,6.20182292 45.3789062,7.00390625 45.3789062,8.08203125 C45.3789062,10.0768229 45.9895833,11.0742188 47.2109375,11.0742188 Z M56.3632812,11 L56.3632812,8.015625 L57.5546875,8.015625 L57.5546875,11 L58.3671875,11 L58.3671875,4.96875 L57.5546875,4.96875 L57.5546875,7.328125 L56.3632812,7.328125 L56.3632812,4.96875 L55.5507812,4.96875 L55.5507812,11 L56.3632812,11 Z M67.0976562,11 L67.0546875,8.37109375 C67.0546875,8.29557292 67.0540365,8.22786458 67.0527344,8.16796875 C67.0514323,8.10807292 67.0494792,8.05729167 67.046875,8.015625 L67.046875,8.015625 L67.0039062,7.26953125 L66.9609375,6.65625 C66.9583333,6.62239583 66.9544271,6.58138021 66.9492188,6.53320312 C66.9440104,6.48502604 66.9375,6.42708333 66.9296875,6.359375 C66.9453125,6.42708333 66.9589844,6.48697917 66.9707031,6.5390625 C66.9824219,6.59114583 66.9908854,6.63541667 66.9960938,6.671875 C67.0585938,6.96354167 67.1269531,7.2421875 67.2011719,7.5078125 C67.2753906,7.7734375 67.3541667,8.03255208 67.4375,8.28515625 L67.4375,8.28515625 L68.3476562,11 L69.109375,11 L69.109375,4.96875 L68.2929688,4.96875 L68.2929688,7.21875 C68.2929688,7.55208333 68.3085938,7.90755208 68.3398438,8.28515625 C68.3710938,8.66276042 68.4192708,9.08463542 68.484375,9.55078125 C68.3046875,8.77994792 68.0976562,8.0546875 67.8632812,7.375 L67.8632812,7.375 L67.0546875,4.96875 L66.296875,4.96875 L66.296875,11 L67.0976562,11 Z M77.4804688,11 L77.7109375,9.82421875 L78.90625,9.82421875 L79.1328125,11 L79.9375,11 L78.6445312,4.96875 L78.0117188,4.96875 L76.6992188,11 L77.4804688,11 Z M78.7890625,9.1953125 L77.8242188,9.1953125 L77.9726562,8.421875 C78.0507812,8.00520833 78.1184896,7.61132812 78.1757812,7.24023438 C78.2330729,6.86914062 78.2799479,6.50260417 78.3164062,6.140625 C78.3919271,6.8828125 78.4895833,7.58072917 78.609375,8.234375 L78.609375,8.234375 L78.7890625,9.1953125 Z M88.0703125,11 C88.8307292,11 89.3580729,10.8684896 89.6523438,10.6054688 C89.8919271,10.3945312 90.0638021,10.0885417 90.1679688,9.6875 C90.2747396,9.26822917 90.328125,8.7265625 90.328125,8.0625 C90.328125,7.33854167 90.2799479,6.78255208 90.1835938,6.39453125 C90.0872396,5.99348958 89.9257812,5.66796875 89.6992188,5.41796875 C89.5481771,5.25130208 89.3763021,5.13541667 89.1835938,5.0703125 C88.9752604,5.00260417 88.71875,4.96875 88.4140625,4.96875 L88.4140625,4.96875 L87.4140625,4.96875 L87.4140625,11 L88.0703125,11 Z M88.2265625,10.2890625 L88.2265625,5.65234375 L88.328125,5.65234375 C88.765625,5.65234375 89.0664062,5.82682292 89.2304688,6.17578125 C89.3945312,6.52473958 89.4765625,7.1640625 89.4765625,8.09375 C89.4765625,8.95833333 89.390625,9.54036458 89.21875,9.83984375 C89.0520833,10.1393229 88.7213542,10.2890625 88.2265625,10.2890625 L88.2265625,10.2890625 Z M99.609375,11.0742188 C100.166667,11.0742188 100.563802,10.8502604 100.800781,10.4023438 C101.03776,9.95442708 101.15625,9.19791667 101.15625,8.1328125 C101.15625,7.37239583 101.119792,6.79427083 101.046875,6.3984375 C100.973958,5.97135417 100.856771,5.64192708 100.695312,5.41015625 C100.450521,5.06380208 100.075521,4.890625 99.5703125,4.890625 C99.0052083,4.890625 98.6041667,5.11458333 98.3671875,5.5625 C98.1328125,6.0078125 98.015625,6.76692708 98.015625,7.83984375 C98.015625,9.04296875 98.1341146,9.88020833 98.3710938,10.3515625 C98.6106771,10.8333333 99.0234375,11.0742188 99.609375,11.0742188 Z M99.5898438,10.3320312 C99.3111979,10.3320312 99.1210938,10.1705729 99.0195312,9.84765625 C98.9205729,9.50651042 98.8710938,8.89453125 98.8710938,8.01171875 C98.8710938,7.05338542 98.9179688,6.41536458 99.0117188,6.09765625 C99.1080729,5.78255208 99.3007812,5.625 99.5898438,5.625 C99.8789062,5.625 100.070312,5.796875 100.164062,6.140625 C100.257812,6.48177083 100.304688,7.17447917 100.304688,8.21875 C100.304688,9.02604167 100.253906,9.57942708 100.152344,9.87890625 C100.050781,10.1809896 99.8632812,10.3320312 99.5898438,10.3320312 Z" fill="#FFFFFF" mask="url(#mask)"></path>
    </g>
</svg>