<?xml version="1.0" encoding="UTF-8"?>
<svg width="192px" height="64px" viewBox="0 0 192 64" version="1.1" xmlns="http://www.w3.org/2000/svg" xmlns:xlink="http://www.w3.org/1999/xlink">
    <g transform="translate(5, 10)">
        <path fill="white" stroke="rgba(0, 0, 0, 0.2)" stroke-width="0.5" d="M178.154172,1.75 C179.56225,1.75 180.069339,1.9054468 180.583168,2.18024576 C181.116269,2.46535098 181.534649,2.88373131 181.819754,3.41683173 C182.094553,3.9306611 182.25,4.43775038 182.25,5.8458278 L182.25,38.1541722 C182.25,39.5622496 182.094553,40.0693389 181.819754,40.5831683 C181.534649,41.1162687 181.116269,41.534649 180.583168,41.8197542 C180.069339,42.0945532 179.56225,42.25 178.154172,42.25 L20,42.25 C14.4081169,42.25 9.34561691,39.9834415 5.68108768,36.3189123 C2.01655845,32.6543831 -0.25,27.5918831 -0.25,22 C-0.25,16.4081169 2.01655845,11.3456169 5.68108768,7.68108768 C9.34561691,4.01655845 14.4081169,1.75 20,1.75 Z"></path>
        <text fill="rgba(0, 0, 0, 0.75)" font-family="ui-monospace, monospace" font-size="14px" transform="translate(106, 21) rotate(-1) translate(-106, -21)">
            <tspan x="51.5" y="28">Couchnado Mac</tspan>
        </text>
        <path fill="black" d="M20.483147,13.5 C19.757251,13.5 19.2170914,14.0222879 19.2170914,14.7636073 L19.2170914,23.1878128 L19.352151,26.742821 L17.6641816,24.7210336 L15.6554163,22.6992462 C15.4191603,22.463354 15.1152566,22.3285473 14.7608334,22.3285473 C14.0687219,22.3285473 13.5454545,22.8508352 13.5454545,23.5416511 C13.5454545,23.8954894 13.6467296,24.1987457 13.8661719,24.4177773 L19.5041028,30.0114334 C19.8417124,30.348411 20.1286452,30.5 20.483147,30.5 C20.8544626,30.5 21.1582876,30.3315504 21.479005,30.0114334 L27.1000436,24.4177773 C27.3194859,24.1987457 27.4545455,23.8954894 27.4545455,23.5416511 C27.4545455,22.8508352 26.9143858,22.3285473 26.2223529,22.3285473 C25.8509588,22.3285473 25.5471338,22.4464934 25.3276915,22.6992462 L23.3358184,24.7210336 L21.6140645,26.7596816 L21.7491241,23.1878128 L21.7491241,14.7636073 C21.7491241,14.0222879 21.2258567,13.5 20.483147,13.5 Z M20.5000388,39 C29.7999811,39 37.5,31.2833798 37.5,22.0000388 C37.5,12.7000034 29.7833798,5 20.48336,5 C11.2000034,5 3.5,12.7000034 3.5,22.0000388 C3.5,31.2833798 11.2166745,39 20.5000388,39 Z M20.4917207,36.1022727 C12.6561481,36.1022727 6.39772727,29.8309081 6.39772727,22.0000232 C6.39772727,14.169061 12.6396127,7.89772727 20.4751079,7.89772727 C28.3106032,7.89772727 34.6022727,14.169061 34.6022727,22.0000232 C34.6022727,29.8309081 28.327216,36.1022727 20.4917207,36.1022727 Z"></path>
    </g>
</svg>