<?xml version="1.0" encoding="UTF-8"?>
<svg width="144px" height="44px" viewBox="0 0 144 44" version="1.1" xmlns="http://www.w3.org/2000/svg" xmlns:xlink="http://www.w3.org/1999/xlink">
    <path transform="translate(4.0, 4.0)" fill="rgba(203, 229, 209, 0.9)" stroke="rgba(37, 37, 37, 0.25)" d="M8.9735982,-0.5 L127.026402,-0.5 C130.288316,-0.5 131.464138,-0.142693593 132.654759,0.494057864 C133.883923,1.15142186 134.848578,2.11607681 135.505942,3.34524061 C136.142694,4.53586232 136.5,5.711684 136.5,8.9735982 L136.5,8.9735982 L136.5,27.0264018 C136.5,30.288316 136.142694,31.4641377 135.505942,32.6547594 C134.848578,33.8839232 133.883923,34.8485781 132.654759,35.5059421 C131.464138,36.1426936 130.288316,36.5 127.026402,36.5 L127.026402,36.5 L8.9735982,36.5 C5.711684,36.5 4.53586232,36.1426936 3.34524061,35.5059421 C2.11607681,34.8485781 1.15142186,33.8839232 0.494057864,32.6547594 C-0.142693593,31.4641377 -0.5,30.288316 -0.5,27.0264018 L-0.5,27.0264018 L-0.5,8.9735982 C-0.5,5.711684 -0.142693593,4.53586232 0.494057864,3.34524061 C1.15142186,2.11607681 2.11607681,1.15142186 3.34524061,0.494057864 C4.53586232,-0.142693593 5.711684,-0.5 8.9735982,-0.5 L8.9735982,-0.5 Z" />
    <path transform="translate(10.5, 9.5)" fill="rgba(0, 0, 238, 0.75)" d="M35.9072266,24.6708984 L35.9072266,18.4702148 C35.9072266,17.6152344 36.3222656,17.0756836 36.9697266,17.0756836 C37.5922852,17.0756836 37.940918,17.5405273 37.940918,18.3789062 L37.940918,24.6708984 L39.5927734,24.6708984 L39.5927734,18.4702148 C39.5927734,17.6152344 39.9912109,17.0756836 40.6303711,17.0756836 C41.2446289,17.0756836 41.6015625,17.5488281 41.6015625,18.3789062 L41.6015625,24.6708984 L43.2617188,24.6708984 L43.2617188,17.7646484 C43.2617188,16.2207031 42.6391602,15.3989258 41.4604492,15.3989258 C40.5722656,15.3989258 39.8999023,15.9633789 39.6923828,16.8930664 L39.4848633,16.8930664 C39.2939453,15.9384766 38.7128906,15.3989258 37.8662109,15.3989258 C36.9946289,15.3989258 36.3554688,15.9550781 36.1479492,16.9428711 L35.9404297,16.9428711 L35.9404297,15.581543 L34.2470703,15.581543 L34.2470703,24.6708984 L35.9072266,24.6708984 Z M48.1591797,24.8203125 C49.3959961,24.8203125 50.3671875,24.3056641 50.8071289,23.4008789 L50.9814453,23.4008789 L50.9814453,24.6708984 L52.815918,24.6708984 L52.815918,18.4785156 C52.815918,16.5361328 51.5375977,15.4321289 49.2880859,15.4321289 C47.2460938,15.4321289 45.7768555,16.4697266 45.6108398,18.0385742 L47.503418,18.0385742 C47.7026367,17.3745117 48.3500977,16.9926758 49.2382812,16.9926758 C50.3007812,16.9926758 50.9067383,17.5239258 50.9067383,18.4619141 L50.9067383,19.2255859 L48.6323242,19.3583984 C46.4575195,19.4912109 45.2788086,20.4541016 45.2788086,22.0810547 C45.2788086,23.7246094 46.4326172,24.8203125 48.1591797,24.8203125 Z M48.7817383,23.2431641 C47.8105469,23.2431641 47.1962891,22.753418 47.1962891,21.9648438 C47.1962891,21.159668 47.7856445,20.703125 48.9228516,20.6367188 L50.9067383,20.5288086 L50.9067383,21.3588867 C50.9067383,22.4545898 50.0102539,23.2431641 48.7817383,23.2431641 Z M59.9462891,24.8535156 C62.1625977,24.8535156 63.5488281,23.7080078 63.7563477,21.6743164 L61.8637695,21.6743164 C61.6977539,22.6787109 60.9921875,23.2265625 59.9296875,23.2265625 C58.5683594,23.2265625 57.8212891,22.2470703 57.8212891,20.4624023 L57.8212891,19.7651367 C57.8212891,17.9804688 58.5683594,17.0009766 59.9296875,17.0009766 C60.9838867,17.0009766 61.7060547,17.5737305 61.8637695,18.6113281 L63.7563477,18.6113281 C63.5405273,16.527832 62.1708984,15.3740234 59.9462891,15.3740234 C57.3481445,15.3740234 55.8789062,16.8930664 55.8789062,19.5908203 L55.8789062,20.6367188 C55.8789062,23.3427734 57.3481445,24.8535156 59.9462891,24.8535156 Z M70.2807617,24.9116211 C73.0947266,24.9116211 74.8046875,22.9443359 74.8046875,19.6157227 L74.8046875,17.7480469 C74.8046875,14.4194336 73.0947266,12.4521484 70.2807617,12.4521484 C67.4667969,12.4521484 65.7568359,14.4194336 65.7568359,17.7480469 L65.7568359,19.6157227 C65.7568359,22.9443359 67.4667969,24.9116211 70.2807617,24.9116211 Z M70.2807617,23.1186523 C68.6870117,23.1186523 67.7905273,21.9067383 67.7905273,19.5991211 L67.7905273,17.7646484 C67.7905273,15.4570312 68.6870117,14.2451172 70.2807617,14.2451172 C71.8745117,14.2451172 72.7709961,15.4570312 72.7709961,17.7646484 L72.7709961,19.5991211 C72.7709961,21.9067383 71.8745117,23.1186523 70.2807617,23.1186523 Z M80.855957,24.9116211 C83.5371094,24.9116211 85.1972656,23.5087891 85.1972656,21.234375 C85.1972656,19.4165039 84.2011719,18.387207 81.8852539,17.8476562 L80.7314453,17.5737305 C79.3286133,17.25 78.7475586,16.7270508 78.7475586,15.8056641 C78.7475586,14.7680664 79.5527344,14.1455078 80.8808594,14.1455078 C82.1425781,14.1455078 82.9643555,14.7929688 83.0722656,15.8886719 L84.9814453,15.8886719 C84.9067383,13.8134766 83.2714844,12.4521484 80.8642578,12.4521484 C78.3491211,12.4521484 76.7387695,13.8300781 76.7387695,15.9799805 C76.7387695,17.7397461 77.784668,18.84375 79.9760742,19.3666992 L81.1298828,19.640625 C82.6074219,19.9892578 83.2050781,20.5039062 83.2050781,21.4086914 C83.2050781,22.5126953 82.300293,23.2182617 80.8891602,23.2182617 C79.4282227,23.2182617 78.4985352,22.5375977 78.3823242,21.3837891 L76.4648438,21.3837891 C76.5644531,23.5751953 78.2329102,24.9116211 80.855957,24.9116211 Z M106.405762,24.6708984 L106.405762,22.9858398 L103.218262,22.9858398 L103.218262,12.6928711 L101.259277,12.6928711 L97.8891602,14.9174805 L97.8891602,16.8681641 L101.109863,14.7514648 L101.250977,14.7514648 L101.250977,22.9858398 L97.9057617,22.9858398 L97.9057617,24.6708984 L106.405762,24.6708984 Z M116.416504,24.6708984 L116.416504,22.9609375 L111.079102,22.9609375 L111.079102,22.8115234 L113.61084,20.2299805 C115.586426,18.2294922 116.225586,17.1586914 116.225586,15.8803711 C116.225586,13.8383789 114.623535,12.4521484 112.257812,12.4521484 C109.875488,12.4521484 108.207031,13.987793 108.207031,16.2041016 L108.207031,16.2539062 L110.091309,16.2539062 L110.091309,16.1958008 C110.091309,14.9423828 110.929688,14.1040039 112.199707,14.1040039 C113.444824,14.1040039 114.266602,14.8510742 114.266602,15.996582 C114.266602,16.8598633 113.859863,17.4907227 112.274414,19.1591797 L108.314941,23.284668 L108.314941,24.6708984 L116.416504,24.6708984 Z" />
    <path transform="translate(10.5, 9.5)" fill="rgb(37, 37, 37)" d="M36.03125,6.67089844 C37.8242188,6.67089844 38.7338867,5.58984375 38.7338867,3.46728516 C38.7338867,1.39746094 37.8154297,0.329589844 36.03125,0.329589844 L34.0976562,0.329589844 L34.0976562,6.67089844 L36.03125,6.67089844 Z M35.8994141,5.74365234 L35.1611328,5.74365234 L35.1611328,1.25683594 L35.8994141,1.25683594 C37.0859375,1.25683594 37.6484375,1.97753906 37.6484375,3.48486328 C37.6484375,5.03613281 37.0947266,5.74365234 35.8994141,5.74365234 Z M41.8452148,6.76757812 C43.1723633,6.76757812 44.0117188,5.94140625 44.0117188,4.63183594 L44.0117188,3.89794922 C44.0117188,2.58837891 43.1723633,1.76220703 41.8452148,1.76220703 C40.5180664,1.76220703 39.6787109,2.58837891 39.6787109,3.89794922 L39.6787109,4.63183594 C39.6787109,5.94140625 40.5180664,6.76757812 41.8452148,6.76757812 Z M41.8452148,5.91943359 C41.1333008,5.91943359 40.6894531,5.40527344 40.6894531,4.57470703 L40.6894531,3.95507812 C40.6894531,3.12451172 41.1333008,2.61035156 41.8452148,2.61035156 C42.5571289,2.61035156 43.0009766,3.12451172 43.0009766,3.95507812 L43.0009766,4.57470703 C43.0009766,5.40527344 42.5571289,5.91943359 41.8452148,5.91943359 Z M46.6704102,6.67089844 L47.3867188,3.22558594 L47.4350586,3.22558594 L48.1469727,6.67089844 L49.0610352,6.67089844 L50.0541992,1.85888672 L49.0698242,1.85888672 L48.5952148,5.44042969 L48.4677734,5.44042969 L47.8481445,1.86767578 L46.9692383,1.86767578 L46.3496094,5.44042969 L46.222168,5.44042969 L45.7431641,1.85888672 L44.7631836,1.85888672 L45.7563477,6.67089844 L46.6704102,6.67089844 Z M51.9174805,6.67089844 L51.9174805,3.8671875 C51.9174805,3.13769531 52.3657227,2.65869141 53.0512695,2.65869141 C53.7104492,2.65869141 54.0268555,3.02783203 54.0268555,3.80126953 L54.0268555,6.67089844 L55.0507812,6.67089844 L55.0507812,3.55078125 C55.0507812,2.38623047 54.4838867,1.76220703 53.4379883,1.76220703 C52.7304688,1.76220703 52.1987305,2.09179688 51.9526367,2.68066406 L51.8823242,2.68066406 L51.8823242,1.85888672 L50.8935547,1.85888672 L50.8935547,6.67089844 L51.9174805,6.67089844 Z M60.6538086,6.67089844 L60.6538086,5.85351562 L59.1552734,5.85351562 L59.1552734,0 L56.6108398,0 L56.6108398,0.817382812 L58.1357422,0.817382812 L58.1357422,5.85351562 L56.5581055,5.85351562 L56.5581055,6.67089844 L60.6538086,6.67089844 Z M64.0991211,6.76757812 C65.4262695,6.76757812 66.265625,5.94140625 66.265625,4.63183594 L66.265625,3.89794922 C66.265625,2.58837891 65.4262695,1.76220703 64.0991211,1.76220703 C62.7719727,1.76220703 61.9326172,2.58837891 61.9326172,3.89794922 L61.9326172,4.63183594 C61.9326172,5.94140625 62.7719727,6.76757812 64.0991211,6.76757812 Z M64.0991211,5.91943359 C63.387207,5.91943359 62.9433594,5.40527344 62.9433594,4.57470703 L62.9433594,3.95507812 C62.9433594,3.12451172 63.387207,2.61035156 64.0991211,2.61035156 C64.8110352,2.61035156 65.2548828,3.12451172 65.2548828,3.95507812 L65.2548828,4.57470703 C65.2548828,5.40527344 64.8110352,5.91943359 64.0991211,5.91943359 Z M69.078125,6.75 C69.7329102,6.75 70.2470703,6.47753906 70.4799805,5.99853516 L70.5722656,5.99853516 L70.5722656,6.67089844 L71.543457,6.67089844 L71.543457,3.39257812 C71.543457,2.36425781 70.8666992,1.77978516 69.6757812,1.77978516 C68.5947266,1.77978516 67.8168945,2.32910156 67.7290039,3.15966797 L68.730957,3.15966797 C68.8364258,2.80810547 69.1791992,2.60595703 69.6494141,2.60595703 C70.2119141,2.60595703 70.5327148,2.88720703 70.5327148,3.38378906 L70.5327148,3.78808594 L69.3286133,3.85839844 C68.1772461,3.92871094 67.5532227,4.43847656 67.5532227,5.29980469 C67.5532227,6.16992188 68.1640625,6.75 69.078125,6.75 Z M69.4077148,5.91503906 C68.8935547,5.91503906 68.5683594,5.65576172 68.5683594,5.23828125 C68.5683594,4.81201172 68.8803711,4.5703125 69.4824219,4.53515625 L70.5327148,4.47802734 L70.5327148,4.91748047 C70.5327148,5.49755859 70.0581055,5.91503906 69.4077148,5.91503906 Z M74.7822266,6.74560547 C75.480957,6.74560547 75.96875,6.44238281 76.1708984,5.87988281 L76.2587891,5.87988281 L76.2587891,6.67089844 L77.2958984,6.67089844 L77.2958984,0 L76.2412109,0 L76.2412109,2.64550781 L76.1533203,2.64550781 C75.9731445,2.08740234 75.4765625,1.77539063 74.7822266,1.77539063 C73.6791992,1.77539063 72.9936523,2.55322266 72.9936523,3.83203125 L72.9936523,4.68896484 C72.9936523,5.97216797 73.6791992,6.74560547 74.7822266,6.74560547 Z M75.1513672,5.85351562 C74.4614258,5.85351562 74.0351562,5.38330078 74.0351562,4.62744141 L74.0351562,3.87597656 C74.0351562,3.12011719 74.4614258,2.64550781 75.1513672,2.64550781 C75.8369141,2.64550781 76.2631836,3.11572266 76.2631836,3.87597656 L76.2631836,4.62744141 C76.2631836,5.38330078 75.8369141,5.85351562 75.1513672,5.85351562 Z M86.5947266,6.67089844 L86.5947266,2.71582031 L88.5898438,2.71582031 L88.5898438,1.88964844 L86.5771484,1.88964844 L86.5771484,1.43701172 C86.5771484,1.02832031 86.8540039,0.817382812 87.3901367,0.817382812 C87.4604492,0.817382812 87.644668,0.819492187 87.8491367,0.822867187 L88.1593203,0.828773438 C88.360625,0.833203125 88.5353516,0.838476563 88.5898438,0.84375 L88.5898438,0.0747070312 C88.4887695,0.0615234375 87.5483398,0.0439453125 87.3681641,0.0439453125 C86.1113281,0.0439453125 85.5751953,0.465820312 85.5751953,1.48974609 L85.5751953,1.88964844 L84.2875977,1.88964844 L84.2875977,2.71582031 L85.5751953,2.71582031 L85.5751953,6.67089844 L86.5947266,6.67089844 Z M91.9165039,6.76757812 C93.2436523,6.76757812 94.0830078,5.94140625 94.0830078,4.63183594 L94.0830078,3.89794922 C94.0830078,2.58837891 93.2436523,1.76220703 91.9165039,1.76220703 C90.5893555,1.76220703 89.75,2.58837891 89.75,3.89794922 L89.75,4.63183594 C89.75,5.94140625 90.5893555,6.76757812 91.9165039,6.76757812 Z M91.9165039,5.91943359 C91.2045898,5.91943359 90.7607422,5.40527344 90.7607422,4.57470703 L90.7607422,3.95507812 C90.7607422,3.12451172 91.2045898,2.61035156 91.9165039,2.61035156 C92.628418,2.61035156 93.0722656,3.12451172 93.0722656,3.95507812 L93.0722656,4.57470703 C93.0722656,5.40527344 92.628418,5.91943359 91.9165039,5.91943359 Z M98.7807617,6.67089844 L98.7807617,5.90625 L97.3481445,5.90625 L97.3481445,4.52636719 C97.3481445,3.41455078 97.9326172,2.80810547 99.0444336,2.80810547 C99.3081055,2.80810547 99.6245117,2.86083984 99.8398438,2.94433594 L99.8398438,1.83251953 C99.6728516,1.76660156 99.4223633,1.73144531 99.1499023,1.73144531 C98.2358398,1.73144531 97.699707,2.16210938 97.5019531,3.08935547 L97.3525391,3.08935547 L97.3525391,1.85888672 L95.3354492,1.85888672 L95.3354492,2.62353516 L96.3637695,2.62353516 L96.3637695,5.90625 L95.4277344,5.90625 L95.4277344,6.67089844 L98.7807617,6.67089844 Z" />
    <path transform="translate(10.5, 9.5)" fill="rgba(37, 37, 37, 0.5)" d="M12.006176,24.6708984 C13.6448791,24.6708984 15.1888832,24.3559216 16.6381884,23.7259679 C18.0874936,23.0960142 19.3638703,22.2293133 20.4673186,21.125865 C21.5707669,20.0224167 22.4354092,18.7480986 23.0612455,17.3029108 C23.6870818,15.8577229 24,14.3116601 24,12.6647224 C24,11.0260194 23.6850232,9.48201527 23.0550695,8.03271007 C22.4251158,6.58340487 21.5584148,5.30496946 20.4549665,4.19740384 C19.3515183,3.08983822 18.0751415,2.22519592 16.6258363,1.60347692 C15.1765311,0.981757933 13.632527,0.670898438 11.993824,0.670898438 C10.3551209,0.670898438 8.8131755,0.981757933 7.36798765,1.60347692 C5.92279979,2.22519592 4.64642306,3.08983822 3.53885744,4.19740384 C2.43129182,5.30496946 1.56459084,6.58340487 0.938754503,8.03271007 C0.312918168,9.48201527 0,11.0260194 0,12.6647224 C0,14.3116601 0.31497684,15.8577229 0.94493052,17.3029108 C1.5748842,18.7480986 2.44158518,20.0224167 3.54503345,21.125865 C4.64848173,22.2293133 5.92279979,23.0960142 7.36798765,23.7259679 C8.8131755,24.3559216 10.3592383,24.6708984 12.006176,24.6708984 Z M12.006176,22.4722366 C10.6474524,22.4722366 9.375193,22.2190199 8.18939784,21.7125865 C7.00360268,21.2061532 5.96191457,20.504146 5.0643335,19.6065649 C4.16675244,18.7089839 3.46680391,17.6672958 2.96448791,16.4815006 C2.4621719,15.2957054 2.2110139,14.023446 2.2110139,12.6647224 C2.2110139,11.3059988 2.4621719,10.0337394 2.96448791,8.84794424 C3.46680391,7.66214908 4.16675244,6.62046097 5.0643335,5.72287991 C5.96191457,4.82529885 7.001544,4.12535032 8.18322182,3.62303431 C9.36489964,3.1207183 10.6351004,2.8695603 11.993824,2.8695603 C13.3525476,2.8695603 14.624807,3.1207183 15.8106022,3.62303431 C16.9963973,4.12535032 18.0380854,4.82529885 18.9356665,5.72287991 C19.8332476,6.62046097 20.5352548,7.66214908 21.0416881,8.84794424 C21.5481215,10.0337394 21.8013381,11.3059988 21.8013381,12.6647224 C21.8095728,14.023446 21.5604735,15.2957054 21.0540401,16.4815006 C20.5476068,17.6672958 19.8476583,18.7089839 18.9541945,19.6065649 C18.0607308,20.504146 17.0190427,21.2061532 15.8291302,21.7125865 C14.6392177,22.2190199 13.3648996,22.4722366 12.006176,22.4722366 Z M11.993824,18.519586 C12.2655687,18.519586 12.5208441,18.400183 12.75965,18.1613771 L16.6381884,14.2704867 C16.8111168,14.0893236 16.8975811,13.8711043 16.8975811,13.615829 C16.8975811,13.3605536 16.8111168,13.1485104 16.6381884,12.9796993 C16.4652599,12.8108881 16.251158,12.7264826 15.9958827,12.7264826 C15.7159032,12.7264826 15.4894493,12.8170642 15.3165208,12.9982273 L13.9825013,14.381655 L12.8584663,15.7403786 L12.9572826,13.3070281 L12.9572826,7.63744501 C12.9572826,7.36570029 12.866701,7.13924635 12.6855378,6.9580832 C12.5043747,6.77692005 12.2738034,6.68633848 11.993824,6.68633848 C11.7220793,6.68633848 11.4956253,6.77692005 11.3144622,6.9580832 C11.133299,7.13924635 11.0427174,7.36570029 11.0427174,7.63744501 L11.0427174,13.3070281 L11.1415337,15.7280266 L10.0298507,14.381655 L8.68347916,12.9982273 C8.50231601,12.8170642 8.27997941,12.7264826 8.01646938,12.7264826 C7.76119403,12.7264826 7.54709213,12.8108881 7.37416366,12.9796993 C7.2012352,13.1485104 7.11477097,13.3605536 7.11477097,13.615829 C7.11477097,13.879339 7.2012352,14.0975582 7.37416366,14.2704867 L11.252702,18.1613771 C11.491508,18.400183 11.7385486,18.519586 11.993824,18.519586 Z" />
</svg>