<?xml version="1.0" encoding="UTF-8"?>
<svg width="164px" height="44px" viewBox="0 0 164 44" version="1.1" xmlns="http://www.w3.org/2000/svg" xmlns:xlink="http://www.w3.org/1999/xlink">
    <path transform="translate(4.0, 4.0)" fill="rgba(203, 229, 209, 0.9)" stroke="rgba(37, 37, 37, 0.25)" d="M8.9735982,-0.5 L147.026402,-0.5 C150.288316,-0.5 151.464138,-0.142693593 152.654759,0.494057864 C153.883923,1.15142186 154.848578,2.11607681 155.505942,3.34524061 C156.142694,4.53586232 156.5,5.711684 156.5,8.9735982 L156.5,8.9735982 L156.5,27.0264018 C156.5,30.288316 156.142694,31.4641377 155.505942,32.6547594 C154.848578,33.8839232 153.883923,34.8485781 152.654759,35.5059421 C151.464138,36.1426936 150.288316,36.5 147.026402,36.5 L147.026402,36.5 L8.9735982,36.5 C5.711684,36.5 4.53586232,36.1426936 3.34524061,35.5059421 C2.11607681,34.8485781 1.15142186,33.8839232 0.494057864,32.6547594 C-0.142693593,31.4641377 -0.5,30.288316 -0.5,27.0264018 L-0.5,27.0264018 L-0.5,8.9735982 C-0.5,5.711684 -0.142693593,4.53586232 0.494057864,3.34524061 C1.15142186,2.11607681 2.11607681,1.15142186 3.34524061,0.494057864 C4.53586232,-0.142693593 5.711684,-0.5 8.9735982,-0.5 L8.9735982,-0.5 Z" />
    <path transform="translate(10.5, 8.75)" fill="rgba(0, 0, 238, 0.75)" d="M36.5712891,25.2773438 L36.5712891,20.0561523 L40.9375,20.0561523 L40.9375,25.2773438 L42.9130859,25.2773438 L42.9130859,13.2993164 L40.9375,13.2993164 L40.9375,18.3046875 L36.5712891,18.3046875 L36.5712891,13.2993164 L34.5957031,13.2993164 L34.5957031,25.2773438 L36.5712891,25.2773438 Z M46.6318359,28.5395508 C48.640625,28.5395508 49.5952148,27.7758789 50.3837891,25.4848633 L53.6293945,16.1879883 L51.5791016,16.1879883 L49.3544922,23.4428711 L49.2299805,23.4428711 L47.0053711,16.1879883 L44.8886719,16.1879883 L48.1508789,25.34375 L48.0263672,25.7504883 C47.7441406,26.6054688 47.2543945,26.9458008 46.3662109,26.9458008 C46.2333984,26.9458008 45.9428711,26.9375 45.8598633,26.9208984 L45.8598633,28.5229492 C45.9511719,28.53125 46.3164062,28.5395508 46.6318359,28.5395508 Z M57.862793,28.3237305 L57.862793,23.7915039 L58.0288086,23.7915039 C58.3691406,24.8374023 59.2988281,25.4350586 60.6103516,25.4350586 C62.7021484,25.4350586 63.9970703,23.9658203 63.9970703,21.5419922 L63.9970703,19.9233398 C63.9970703,17.5078125 62.7021484,16.0385742 60.6103516,16.0385742 C59.2988281,16.0385742 58.3774414,16.6196289 57.9956055,17.6821289 L57.8295898,17.6821289 L57.8295898,16.1879883 L55.8706055,16.1879883 L55.8706055,28.3237305 L57.862793,28.3237305 Z M59.9213867,23.7915039 C58.6264648,23.7915039 57.8212891,22.9033203 57.8212891,21.4755859 L57.8212891,20.0478516 C57.8212891,18.6201172 58.6264648,17.7319336 59.9213867,17.7319336 C61.2246094,17.7319336 62.0297852,18.6201172 62.0297852,20.0478516 L62.0297852,21.4755859 C62.0297852,22.8950195 61.2246094,23.7915039 59.9213867,23.7915039 Z M70.4799805,25.4599609 C72.5136719,25.4599609 74.0576172,24.3725586 74.2734375,22.8120117 L72.4389648,22.8120117 C72.2480469,23.484375 71.4760742,23.9243164 70.4716797,23.9243164 C69.1518555,23.9243164 68.296875,23.027832 68.296875,21.6416016 L68.296875,21.2016602 L74.2900391,21.2016602 L74.2900391,20.0976562 C74.2900391,17.5742188 72.8041992,16.0053711 70.4135742,16.0053711 C67.9980469,16.0053711 66.3959961,17.5825195 66.3959961,19.9648438 L66.3959961,21.3842773 C66.3959961,23.9741211 67.8901367,25.4599609 70.4799805,25.4599609 Z M72.4140625,19.9067383 L68.296875,19.9067383 C68.296875,18.4208984 69.0771484,17.5327148 70.3803711,17.5327148 C71.6503906,17.5327148 72.4140625,18.4291992 72.4140625,19.9067383 Z M83.246582,25.2773438 L83.246582,23.8330078 L80.5405273,23.8330078 L80.5405273,21.2265625 C80.5405273,19.1264648 81.6445312,17.980957 83.7446289,17.980957 C84.2426758,17.980957 84.840332,18.0805664 85.2470703,18.2382812 L85.2470703,16.1381836 C84.9316406,16.0136719 84.4584961,15.9472656 83.9438477,15.9472656 C82.2172852,15.9472656 81.2045898,16.7607422 80.8310547,18.512207 L80.5488281,18.512207 L80.5488281,16.1879883 L76.7387695,16.1879883 L76.7387695,17.6323242 L78.6811523,17.6323242 L78.6811523,23.8330078 L76.9130859,23.8330078 L76.9130859,25.2773438 L83.246582,25.2773438 Z M91.5722656,25.5180664 C94.1870117,25.5180664 95.8720703,23.8994141 95.8720703,21.3510742 L93.8383789,21.3510742 C93.8134766,22.8120117 92.9501953,23.7084961 91.5639648,23.7084961 C89.9038086,23.7084961 89.0405273,22.5878906 89.0405273,20.4462891 L89.0405273,18.1303711 C89.0405273,15.9887695 89.9038086,14.8681641 91.5390625,14.8681641 C92.8837891,14.8681641 93.8051758,15.8642578 93.8383789,17.375 L95.8720703,17.375 C95.8388672,14.6606445 94.2368164,13.0585938 91.5722656,13.0585938 C88.6669922,13.0585938 86.965332,14.9262695 86.965332,18.1303711 L86.965332,20.4462891 C86.965332,23.6503906 88.6669922,25.5180664 91.5722656,25.5180664 Z M101.807129,25.4599609 C104.313965,25.4599609 105.899414,23.8994141 105.899414,21.4257812 L105.899414,20.0395508 C105.899414,17.565918 104.313965,16.0053711 101.807129,16.0053711 C99.300293,16.0053711 97.7148438,17.565918 97.7148438,20.0395508 L97.7148438,21.4257812 C97.7148438,23.8994141 99.300293,25.4599609 101.807129,25.4599609 Z M101.807129,23.8579102 C100.462402,23.8579102 99.6240234,22.8867188 99.6240234,21.3178711 L99.6240234,20.1474609 C99.6240234,18.5786133 100.462402,17.6074219 101.807129,17.6074219 C103.151855,17.6074219 103.990234,18.5786133 103.990234,20.1474609 L103.990234,21.3178711 C103.990234,22.8867188 103.151855,23.8579102 101.807129,23.8579102 Z M111.436035,25.4599609 C112.772461,25.4599609 113.776855,24.8374023 114.241699,23.7250977 L114.374512,23.7250977 L114.374512,25.2773438 L116.242188,25.2773438 L116.242188,16.1879883 L114.308105,16.1879883 L114.308105,21.4838867 C114.308105,22.8618164 113.461426,23.7583008 112.166504,23.7583008 C110.921387,23.7583008 110.32373,23.0693359 110.32373,21.6083984 L110.32373,16.1879883 L108.389648,16.1879883 L108.389648,22.0732422 C108.389648,24.28125 109.460449,25.4599609 111.436035,25.4599609 Z M122.999023,25.4599609 C125.215332,25.4599609 126.601562,24.3144531 126.809082,22.2807617 L124.916504,22.2807617 C124.750488,23.2851562 124.044922,23.8330078 122.982422,23.8330078 C121.621094,23.8330078 120.874023,22.8535156 120.874023,21.0688477 L120.874023,20.371582 C120.874023,18.5869141 121.621094,17.6074219 122.982422,17.6074219 C124.036621,17.6074219 124.758789,18.1801758 124.916504,19.2177734 L126.809082,19.2177734 C126.593262,17.1342773 125.223633,15.9804688 122.999023,15.9804688 C120.400879,15.9804688 118.931641,17.4995117 118.931641,20.1972656 L118.931641,21.2431641 C118.931641,23.9492188 120.400879,25.4599609 122.999023,25.4599609 Z M131.316406,25.2773438 L131.316406,20.0063477 C131.316406,18.628418 132.179688,17.715332 133.491211,17.715332 C134.744629,17.715332 135.350586,18.4208984 135.350586,19.8735352 L135.350586,25.2773438 L137.284668,25.2773438 L137.284668,19.4003906 C137.284668,17.2172852 136.205566,16.0219727 134.22168,16.0219727 C132.876953,16.0219727 131.847656,16.652832 131.391113,17.7568359 L131.266602,17.7568359 L131.266602,12.6767578 L129.390625,12.6767578 L129.390625,25.2773438 L131.316406,25.2773438 Z" />
    <path transform="translate(10.5, 8.75)" fill="rgb(37, 37, 37)" d="M36.4750977,7.27734375 C37.8374023,7.27734375 38.6591797,6.59619141 38.6591797,5.484375 C38.6591797,4.65380859 38.074707,4.02099609 37.230957,3.95068359 L37.230957,3.88037109 C37.8813477,3.77490234 38.3515625,3.19921875 38.3515625,2.50927734 C38.3515625,1.52490234 37.6308594,0.936035156 36.4311523,0.936035156 L34.2075195,0.936035156 L34.2075195,7.27734375 L36.4750977,7.27734375 Z M36.0795898,3.59912109 L35.253418,3.59912109 L35.253418,1.77539062 L36.1586914,1.77539062 C36.8793945,1.77539062 37.2836914,2.10498047 37.2836914,2.69824219 C37.2836914,3.27392578 36.8530273,3.59912109 36.0795898,3.59912109 Z M36.1762695,6.42480469 L35.253418,6.42480469 L35.253418,4.39892578 L36.1586914,4.39892578 C37.0859375,4.39892578 37.5561523,4.73730469 37.5561523,5.40087891 C37.5561523,6.09082031 37.0991211,6.42480469 36.1762695,6.42480469 Z M43.1459961,7.27734375 L43.1459961,6.51269531 L41.7133789,6.51269531 L41.7133789,5.1328125 C41.7133789,4.02099609 42.2978516,3.41455078 43.409668,3.41455078 C43.6733398,3.41455078 43.9897461,3.46728516 44.2050781,3.55078125 L44.2050781,2.43896484 C44.0380859,2.37304688 43.7875977,2.33789062 43.5151367,2.33789062 C42.6010742,2.33789062 42.0649414,2.76855469 41.8671875,3.69580078 L41.7177734,3.69580078 L41.7177734,2.46533203 L39.7006836,2.46533203 L39.7006836,3.22998047 L40.7290039,3.22998047 L40.7290039,6.51269531 L39.7929688,6.51269531 L39.7929688,7.27734375 L43.1459961,7.27734375 Z M47.4086914,7.37402344 C48.7358398,7.37402344 49.5751953,6.54785156 49.5751953,5.23828125 L49.5751953,4.50439453 C49.5751953,3.19482422 48.7358398,2.36865234 47.4086914,2.36865234 C46.081543,2.36865234 45.2421875,3.19482422 45.2421875,4.50439453 L45.2421875,5.23828125 C45.2421875,6.54785156 46.081543,7.37402344 47.4086914,7.37402344 Z M47.4086914,6.52587891 C46.6967773,6.52587891 46.2529297,6.01171875 46.2529297,5.18115234 L46.2529297,4.56152344 C46.2529297,3.73095703 46.6967773,3.21679688 47.4086914,3.21679688 C48.1206055,3.21679688 48.5644531,3.73095703 48.5644531,4.56152344 L48.5644531,5.18115234 C48.5644531,6.01171875 48.1206055,6.52587891 47.4086914,6.52587891 Z M52.2338867,7.27734375 L52.9501953,3.83203125 L52.9985352,3.83203125 L53.7104492,7.27734375 L54.6245117,7.27734375 L55.6176758,2.46533203 L54.6333008,2.46533203 L54.1586914,6.046875 L54.03125,6.046875 L53.4116211,2.47412109 L52.5327148,2.47412109 L51.9130859,6.046875 L51.7856445,6.046875 L51.3066406,2.46533203 L50.3266602,2.46533203 L51.3198242,7.27734375 L52.2338867,7.27734375 Z M58.5444336,7.37402344 C59.7529297,7.37402344 60.5219727,6.77197266 60.5219727,5.8359375 C60.5219727,5.11523438 60.0957031,4.70654297 59.1333008,4.5 L58.4169922,4.34619141 C57.894043,4.23193359 57.6743164,4.05615234 57.6743164,3.74853516 C57.6743164,3.38818359 58.0126953,3.15087891 58.5268555,3.15087891 C59.0234375,3.15087891 59.3706055,3.375 59.440918,3.73535156 L60.4077148,3.73535156 C60.3417969,2.86962891 59.6430664,2.35986328 58.5400391,2.35986328 C57.4018555,2.35986328 56.6635742,2.93115234 56.6635742,3.82763672 C56.6635742,4.54394531 57.1118164,5.00097656 57.9995117,5.19873047 L58.7202148,5.35693359 C59.2695312,5.47558594 59.4716797,5.63818359 59.4716797,5.95458984 C59.4716797,6.328125 59.1201172,6.57421875 58.5620117,6.57421875 C58.0170898,6.57421875 57.6523438,6.35888672 57.5644531,5.98095703 L56.5493164,5.98095703 C56.6196289,6.85107422 57.3666992,7.37402344 58.5444336,7.37402344 Z M64.2045898,7.37402344 C65.28125,7.37402344 66.0986328,6.79833984 66.2128906,5.97216797 L65.2416992,5.97216797 C65.140625,6.328125 64.7319336,6.56103516 64.2001953,6.56103516 C63.5014648,6.56103516 63.0488281,6.08642578 63.0488281,5.35253906 L63.0488281,5.11962891 L66.2216797,5.11962891 L66.2216797,4.53515625 C66.2216797,3.19921875 65.4350586,2.36865234 64.1694336,2.36865234 C62.890625,2.36865234 62.0424805,3.20361328 62.0424805,4.46484375 L62.0424805,5.21630859 C62.0424805,6.58740234 62.8334961,7.37402344 64.2045898,7.37402344 Z M65.2285156,4.43408203 L63.0488281,4.43408203 C63.0488281,3.64746094 63.4619141,3.17724609 64.1518555,3.17724609 C64.8242188,3.17724609 65.2285156,3.65185547 65.2285156,4.43408203 Z M75.2260742,7.37402344 C76.5532227,7.37402344 77.3925781,6.54785156 77.3925781,5.23828125 L77.3925781,4.50439453 C77.3925781,3.19482422 76.5532227,2.36865234 75.2260742,2.36865234 C73.8989258,2.36865234 73.0595703,3.19482422 73.0595703,4.50439453 L73.0595703,5.23828125 C73.0595703,6.54785156 73.8989258,7.37402344 75.2260742,7.37402344 Z M75.2260742,6.52587891 C74.5141602,6.52587891 74.0703125,6.01171875 74.0703125,5.18115234 L74.0703125,4.56152344 C74.0703125,3.73095703 74.5141602,3.21679688 75.2260742,3.21679688 C75.9379883,3.21679688 76.3818359,3.73095703 76.3818359,4.56152344 L76.3818359,5.18115234 C76.3818359,6.01171875 75.9379883,6.52587891 75.2260742,6.52587891 Z M79.7348633,7.27734375 L79.7348633,4.47363281 C79.7348633,3.74414062 80.1831055,3.26513672 80.8686523,3.26513672 C81.527832,3.26513672 81.8442383,3.63427734 81.8442383,4.40771484 L81.8442383,7.27734375 L82.8681641,7.27734375 L82.8681641,4.15722656 C82.8681641,2.99267578 82.3012695,2.36865234 81.2553711,2.36865234 C80.5478516,2.36865234 80.0161133,2.69824219 79.7700195,3.28710938 L79.699707,3.28710938 L79.699707,2.46533203 L78.7109375,2.46533203 L78.7109375,7.27734375 L79.7348633,7.27734375 Z M88.4711914,7.27734375 L88.4711914,6.45996094 L86.9726562,6.45996094 L86.9726562,0.606445312 L84.4282227,0.606445312 L84.4282227,1.42382812 L85.953125,1.42382812 L85.953125,6.45996094 L84.3754883,6.45996094 L84.3754883,7.27734375 L88.4711914,7.27734375 Z M91.9912109,1.39746094 C92.4306641,1.39746094 92.7382812,1.11181641 92.7382812,0.698730469 C92.7382812,0.285644531 92.4306641,0 91.9912109,0 C91.5561523,0 91.2485352,0.285644531 91.2485352,0.698730469 C91.2485352,1.11181641 91.5561523,1.39746094 91.9912109,1.39746094 Z M94.034668,7.27734375 L94.034668,6.45996094 L92.5229492,6.45996094 L92.5229492,2.46533203 L89.9916992,2.46533203 L89.9916992,3.28271484 L91.5253906,3.28271484 L91.5253906,6.45996094 L89.9389648,6.45996094 L89.9389648,7.27734375 L94.034668,7.27734375 Z M96.425293,7.27734375 L96.425293,4.47363281 C96.425293,3.74414062 96.8735352,3.26513672 97.559082,3.26513672 C98.2182617,3.26513672 98.534668,3.63427734 98.534668,4.40771484 L98.534668,7.27734375 L99.5585938,7.27734375 L99.5585938,4.15722656 C99.5585938,2.99267578 98.9916992,2.36865234 97.9458008,2.36865234 C97.2382812,2.36865234 96.706543,2.69824219 96.4604492,3.28710938 L96.3901367,3.28710938 L96.3901367,2.46533203 L95.4013672,2.46533203 L95.4013672,7.27734375 L96.425293,7.27734375 Z M103.148926,7.37402344 C104.225586,7.37402344 105.042969,6.79833984 105.157227,5.97216797 L104.186035,5.97216797 C104.084961,6.328125 103.67627,6.56103516 103.144531,6.56103516 C102.445801,6.56103516 101.993164,6.08642578 101.993164,5.35253906 L101.993164,5.11962891 L105.166016,5.11962891 L105.166016,4.53515625 C105.166016,3.19921875 104.379395,2.36865234 103.11377,2.36865234 C101.834961,2.36865234 100.986816,3.20361328 100.986816,4.46484375 L100.986816,5.21630859 C100.986816,6.58740234 101.777832,7.37402344 103.148926,7.37402344 Z M104.172852,4.43408203 L101.993164,4.43408203 C101.993164,3.64746094 102.40625,3.17724609 103.096191,3.17724609 C103.768555,3.17724609 104.172852,3.65185547 104.172852,4.43408203 Z" />
    <path transform="translate(10.5, 8.75)" fill="rgba(37, 37, 37, 0.5)" d="M12.006176,25.2773438 C13.6448791,25.2773438 15.1888832,24.9623669 16.6381884,24.3324132 C18.0874936,23.7024596 19.3638703,22.8357586 20.4673186,21.7323103 C21.5707669,20.628862 22.4354092,19.354544 23.0612455,17.9093561 C23.6870818,16.4641682 24,14.9181055 24,13.2711677 C24,11.6324647 23.6850232,10.0884606 23.0550695,8.63915538 C22.4251158,7.18985018 21.5584148,5.91141477 20.4549665,4.80384915 C19.3515183,3.69628353 18.0751415,2.83164123 16.6258363,2.20992224 C15.1765311,1.58820325 13.632527,1.27734375 11.993824,1.27734375 C10.3551209,1.27734375 8.8131755,1.58820325 7.36798765,2.20992224 C5.92279979,2.83164123 4.64642306,3.69628353 3.53885744,4.80384915 C2.43129182,5.91141477 1.56459084,7.18985018 0.938754503,8.63915538 C0.312918168,10.0884606 0,11.6324647 0,13.2711677 C0,14.9181055 0.31497684,16.4641682 0.94493052,17.9093561 C1.5748842,19.354544 2.44158518,20.628862 3.54503345,21.7323103 C4.64848173,22.8357586 5.92279979,23.7024596 7.36798765,24.3324132 C8.8131755,24.9623669 10.3592383,25.2773438 12.006176,25.2773438 Z M12.006176,23.0786819 C10.6474524,23.0786819 9.375193,22.8254652 8.18939784,22.3190319 C7.00360268,21.8125985 5.96191457,21.1105913 5.0643335,20.2130102 C4.16675244,19.3154292 3.46680391,18.2737411 2.96448791,17.0879459 C2.4621719,15.9021507 2.2110139,14.6298914 2.2110139,13.2711677 C2.2110139,11.9124441 2.4621719,10.6401847 2.96448791,9.45438956 C3.46680391,8.26859439 4.16675244,7.22690628 5.0643335,6.32932522 C5.96191457,5.43174416 7.001544,4.73179563 8.18322182,4.22947962 C9.36489964,3.72716362 10.6351004,3.47600561 11.993824,3.47600561 C13.3525476,3.47600561 14.624807,3.72716362 15.8106022,4.22947962 C16.9963973,4.73179563 18.0380854,5.43174416 18.9356665,6.32932522 C19.8332476,7.22690628 20.5352548,8.26859439 21.0416881,9.45438956 C21.5481215,10.6401847 21.8013381,11.9124441 21.8013381,13.2711677 C21.8095728,14.6298914 21.5604735,15.9021507 21.0540401,17.0879459 C20.5476068,18.2737411 19.8476583,19.3154292 18.9541945,20.2130102 C18.0607308,21.1105913 17.0190427,21.8125985 15.8291302,22.3190319 C14.6392177,22.8254652 13.3648996,23.0786819 12.006176,23.0786819 Z M7.21358724,19.1013273 L13.8095728,15.9021507 C14.1883685,15.7292223 14.4683479,15.4574776 14.6495111,15.0869166 L17.8116315,8.47857895 C18.009264,8.07507921 17.990736,7.74980901 17.7560473,7.50276835 C17.5213587,7.25572769 17.1899125,7.23102363 16.7617087,7.42865615 L10.1780751,10.6031286 C9.81574884,10.7678224 9.53988677,11.0436845 9.35048893,11.4307148 L6.16366444,18.0514045 C5.98250129,18.4466695 6.0113227,18.7657637 6.25012867,19.008687 C6.48893464,19.2516103 6.81008749,19.2824904 7.21358724,19.1013273 Z M12.006176,14.7287076 C11.6026763,14.7287076 11.258878,14.5866592 10.9747813,14.3025625 C10.6906845,14.0184657 10.5486361,13.6746675 10.5486361,13.2711677 C10.5486361,12.8759027 10.6906845,12.5341631 10.9747813,12.245949 C11.258878,11.9577349 11.6026763,11.8136278 12.006176,11.8136278 C12.4014411,11.8136278 12.741122,11.9577349 13.0252187,12.245949 C13.3093155,12.5341631 13.4513639,12.8759027 13.4513639,13.2711677 C13.4513639,13.6746675 13.3093155,14.0184657 13.0252187,14.3025625 C12.741122,14.5866592 12.4014411,14.7287076 12.006176,14.7287076 Z" />
</svg>