<?xml version="1.0" encoding="UTF-8"?>
<svg width="128px" height="64px" viewBox="0 0 128 64" version="1.1" xmlns="http://www.w3.org/2000/svg" xmlns:xlink="http://www.w3.org/1999/xlink">
    <g transform="translate(3, 9)">
        <path fill="white" stroke="rgba(0, 0, 0, 0.2)" stroke-width="0.5" d="M112.385431,-0.25 C115.799425,-0.25 117.033908,0.114304426 118.281071,0.78129434 C119.547505,1.45859052 120.541409,2.45249514 121.218706,3.7189289 C121.885696,4.9660916 122.25,6.20057492 122.25,9.6145695 L122.25,36.3854305 C122.25,39.7994251 121.885696,41.0339084 121.218706,42.2810711 C120.541409,43.5475049 119.547505,44.5414095 118.281071,45.2187057 C117.033908,45.8856956 115.799425,46.25 112.385431,46.25 L9.6145695,46.25 C6.20057492,46.25 4.9660916,45.8856956 3.7189289,45.2187057 C2.45249514,44.5414095 1.45859052,43.5475049 0.78129434,42.2810711 C0.114304426,41.0339084 -0.25,39.7994251 -0.25,36.3854305 L-0.25,9.6145695 C-0.25,6.20057492 0.114304426,4.9660916 0.78129434,3.7189289 C1.45859052,2.45249514 2.45249514,1.45859052 3.7189289,0.78129434 C4.9660916,0.114304426 6.20057492,-0.25 9.6145695,-0.25 L112.385431,-0.25 Z"></path>
        <path fill="rgb(34, 34, 34)" d="M112.590287,3 C114.819084,3 115.627299,3.23206403 116.442114,3.66783176 C117.256929,4.10359949 117.896401,4.74307093 118.332168,5.55788574 C118.767936,6.37270056 119,7.18091615 119,9.409713 L119,36.590287 C119,38.8190838 118.767936,39.6272994 118.332168,40.4421143 C117.896401,41.2569291 117.256929,41.8964005 116.442114,42.3321682 C115.627299,42.767936 114.819084,43 112.590287,43 L9.409713,43 C7.18091615,43 6.37270056,42.767936 5.55788574,42.3321682 C4.74307093,41.8964005 4.10359949,41.2569291 3.66783176,40.4421143 C3.23206403,39.6272994 3,38.8190838 3,36.590287 L3,9.409713 C3,7.18091615 3.23206403,6.37270056 3.66783176,5.55788574 C4.10359949,4.74307093 4.74307093,4.10359949 5.55788574,3.66783176 C6.37270056,3.23206403 7.18091615,3 9.409713,3 L112.590287,3 Z M63.4003034,24.561162 C62.1952414,24.5220977 61.0663802,25.1520174 60.4621991,26.2006638 L60.4273636,26.2006638 L60.4273636,24.6581853 L58.5940473,24.6581853 L58.5940473,37 L60.4880862,37 L60.4880862,32.406572 L60.5319108,32.406572 C61.110388,33.4618346 62.2380289,34.0920294 63.4351695,34.0290906 C65.7512089,34.0290906 67.285947,32.1775244 67.285947,29.2956282 C67.285947,26.4217319 65.7422503,24.561162 63.4003034,24.561162 Z M53.2443964,24.5611517 C52.0393359,24.5220933 50.9104789,25.1520168 50.3063022,26.2006638 L50.2714668,26.2006638 L50.2714668,24.6581853 L48.4381097,24.6581853 L48.4381097,37 L50.3321486,37 L50.3321486,32.406572 L50.3759732,32.406572 C50.9544504,33.4618346 52.0820914,34.0920294 53.2792319,34.0290906 C55.5952713,34.0290906 57.1300094,32.1775244 57.1300094,29.2956282 C57.1300094,26.4217319 55.5862719,24.561162 53.2443964,24.5611517 Z M24.0842026,16.279917 C22.094431,16.279917 20.4652325,17.4754831 19.4236046,17.4754831 C18.3152201,17.4754831 16.87299,16.3587409 15.1369435,16.3587409 C11.8385112,16.3587409 8.5,19.0388733 8.5,24.0838429 C8.5,27.2369795 9.72857143,30.5608501 11.2642919,32.7023633 C12.5729838,34.5153725 13.7214348,36 15.377367,36 C17.0065034,36 17.7276495,34.9357866 19.7574502,34.9357866 C21.8139784,34.9357866 22.2813994,35.973705 24.0842026,35.973705 C25.8736419,35.973705 27.0621469,34.3577248 28.197259,32.7680396 C29.1270825,31.4153309 29.6612494,30.0914447 29.8811328,29.4585269 L29.9377507,29.2900428 C29.9772108,29.1680171 29.9975367,29.0933154 30,29.0762837 C29.8932142,29.0499887 26.4745763,27.6705411 26.4745763,23.8211376 C26.4745763,20.4840584 29.1587043,18.9863445 29.3189452,18.8681393 C27.5428696,16.3587409 24.8320141,16.279917 24.0842026,16.279917 Z M76.9979922,21 C74.2957865,21 72.3927891,22.5074673 72.3927891,24.702149 C72.3927891,26.4746994 73.4716901,27.5670416 75.7956892,28.131215 L77.4359224,28.5283429 C79.0761556,28.9334808 79.7688801,29.5246451 79.7688801,30.5119538 C79.7688801,31.6493147 78.6203184,32.4775675 77.0238691,32.4775675 C75.3577692,32.4775675 74.1385275,31.6493557 73.9981868,30.3879602 L72.0593347,30.387868 C72.1817583,32.6885871 74.0767857,34.1440395 76.883508,34.1440395 C79.8833133,34.1440395 81.7693924,32.6535759 81.7693924,30.273841 C81.7693924,28.4132915 80.6904915,27.3649438 78.0937809,26.7477516 L76.6993834,26.4036425 C75.0681088,25.9985557 74.4012612,25.4693934 74.4012612,24.5701145 C74.4012612,23.4417676 75.4453165,22.6665233 76.9710961,22.6665233 C78.4968757,22.6665233 79.5409411,23.4327536 79.6553947,24.702149 L81.5673711,24.702149 C81.50566,22.5074673 79.6723131,21 76.9979922,21 Z M108.341676,24.5441481 C105.745954,24.5441481 104.070885,26.4307357 104.070885,29.3396329 C104.070885,32.2395264 105.736995,34.0470879 108.421294,34.0470879 C110.508416,34.0470879 112.1397,32.8917297 112.394495,31.208213 L110.596014,31.2082027 C110.250801,32.0687088 109.384235,32.5991638 108.465098,32.5126093 C107.775918,32.538108 107.10905,32.2648069 106.634126,31.7622252 C106.159201,31.2596434 105.921993,30.5762211 105.982841,29.8857989 L105.982841,29.770768 L112.5,29.770768 L112.5,29.1185647 C112.5,26.3066908 110.894592,24.5441481 108.341676,24.5441481 Z M93.0042921,24.5441583 C90.3379004,24.5441583 88.6279963,26.3777272 88.6279963,29.2956282 C88.6279963,32.2215291 90.3209413,34.0470981 93.0042921,34.0470981 C95.6885908,34.0470981 97.3815766,32.2215393 97.3815766,29.2956282 C97.3815766,26.3776863 95.6796322,24.5441583 93.0042921,24.5441583 Z M85.8570675,22.4635036 L83.9540497,22.4635036 L83.9540497,24.6581853 L82.6124252,24.6581853 L82.6124252,26.1656526 L83.9540701,26.1656526 L83.9540701,31.4812652 C83.9540701,33.279823 84.6826289,33.985045 86.5507807,33.985045 C86.9035187,33.9916359 87.2560088,33.9621408 87.6028059,33.8970151 L87.6028059,32.3985516 C87.3960375,32.4242442 87.1880634,32.4389465 86.9797523,32.4425973 C86.2084085,32.4425973 85.8570675,32.0724807 85.8570675,31.2782353 L85.8570675,26.1656526 L87.6117645,26.1656526 L87.6117645,24.6581853 L85.8570675,24.6581853 L85.8570675,22.4635036 Z M103.012918,24.5611415 C101.971729,24.5211845 101.045341,25.2205236 100.793425,26.2366583 L100.7496,26.2366583 L100.7496,24.6581853 L98.9431395,24.6581853 L98.9431395,33.9320468 L100.837178,33.9320468 L100.837178,28.43134 C100.774118,27.8748394 100.95622,27.3184369 101.33567,26.9082273 C101.715119,26.4980177 102.254006,26.2749835 102.810835,26.2976871 C103.098844,26.2892378 103.386294,26.3280922 103.661848,26.4127179 L103.661848,24.6321677 C103.448858,24.5841996 103.231189,24.5603755 103.012918,24.5611415 Z M42.6923251,21.2120951 L40.569379,21.2120951 L36,33.9320673 L38.043328,33.9320673 L39.201847,30.4939975 L44.0260203,30.4939975 L45.1835304,33.9320673 L47.2617041,33.9320673 L42.6923251,21.2120951 Z M93.0042819,26.1126442 C94.5390201,26.1126442 95.4517035,27.2940098 95.4517035,29.2956282 C95.4517035,31.3052466 94.5390201,32.4776187 93.0042819,32.4776187 C91.4695438,32.4776187 90.5578592,31.3052466 90.5578592,29.2956282 C90.5578592,27.3030135 91.4695438,26.1126442 93.0042819,26.1126442 Z M62.9006926,26.1836601 C64.3737196,26.1836601 65.3391657,27.4180546 65.3391657,29.2956282 C65.3391657,31.1902157 64.3737297,32.4155963 62.9006926,32.4155963 C61.4535425,32.4155963 60.4801468,31.1642083 60.4801468,29.2956282 C60.4801468,27.4440518 61.4535425,26.1836601 62.9006926,26.1836601 Z M52.744755,26.1836601 C54.217782,26.1836601 55.1832179,27.4180546 55.1832179,29.2956282 C55.1832179,31.1902157 54.2177922,32.4155963 52.744755,32.4155963 C51.2976049,32.4155963 50.3242092,31.1642083 50.3242092,29.2956282 C50.3242092,27.4440518 51.2976049,26.1836601 52.744755,26.1836601 Z M41.6403508,23.3277713 L43.5254311,28.9075041 L39.7014783,28.9075041 L41.5875981,23.3277713 L41.6403508,23.3277713 Z M108.341676,26.0866265 C108.959767,26.0732801 109.555377,26.3196894 109.985007,26.766488 C110.414638,27.2132865 110.639335,27.8199634 110.604962,28.4403642 L105.991782,28.4403642 C105.990185,27.8142328 106.237503,27.2133979 106.678771,26.7714064 C107.12004,26.3294149 107.718695,26.08289 108.341676,26.0866265 Z M100.597078,12.5767247 C100.026835,12.5718808 99.4825376,12.8137464 99.1051979,13.2396612 C98.7278583,13.6655761 98.5546062,14.2336302 98.6303262,14.7966574 C98.5525402,15.3581242 98.7264438,15.9252696 99.1058965,16.3476163 C99.4853491,16.7699631 100.03199,17.0048138 100.600781,16.9898571 C101.434422,17.0799202 102.213061,16.5620609 102.449121,15.7605589 L101.638736,15.7605306 C101.436679,16.1214068 101.035763,16.3249121 100.623905,16.2756595 C100.306274,16.2791735 100.001891,16.1490558 99.7856135,15.9173064 C99.5693359,15.6855569 99.4612315,15.3736793 99.4878865,15.0583738 L99.4878865,15.0113809 L102.5,15.0113809 L102.5,14.71877 C102.5,13.3844739 101.783975,12.5767247 100.597078,12.5767247 Z M81.3405624,12.8793356 C80.6879384,12.4759191 79.862147,12.4759191 79.209523,12.8793356 C78.5568989,13.2827522 78.190279,14.0198357 78.2634226,14.7814555 C78.1888873,15.5438937 78.5551726,16.2824068 79.2083753,16.6866919 C79.861578,17.0909769 80.6885073,17.0909769 81.34171,16.6866919 C81.9949127,16.2824068 82.361198,15.5438937 82.2866628,14.7814555 C82.3598064,14.0198357 81.9931865,13.2827522 81.3405624,12.8793356 Z M45.7701726,12.8793356 C45.1175485,12.4759191 44.2917571,12.4759191 43.6391331,12.8793356 C42.986509,13.2827522 42.6198891,14.0198357 42.6930327,14.7814555 C42.6184975,15.5438937 42.9847828,16.2824068 43.6379855,16.6866919 C44.2911882,17.0909769 45.1181175,17.0909769 45.7713202,16.6866919 C46.4245229,16.2824068 46.7908082,15.5438937 46.7162729,14.7814555 C46.7894165,14.0198357 46.4227966,13.2827522 45.7701726,12.8793356 Z M64.2779365,12.8792609 C63.625264,12.4758381 62.7994302,12.4758381 62.1467577,12.8792609 C61.4940852,13.2826837 61.1274075,14.0197859 61.2004949,14.7814555 C61.1260543,15.543921 61.4924067,16.2824133 62.1456418,16.6866805 C62.798877,17.0909477 63.6258172,17.0909477 64.2790523,16.6866805 C64.9322875,16.2824133 65.2986399,15.543921 65.2241993,14.7814555 C65.2972867,14.0197859 64.930609,13.2826837 64.2779365,12.8792609 Z M68.017989,12.5767341 C67.0503432,12.5767341 66.3611462,13.0448606 66.2751126,13.7747036 L67.0901203,13.7747036 C67.1835617,13.4742888 67.5091954,13.3024251 67.9791404,13.3024251 C68.554548,13.3024251 68.8524258,13.5558375 68.8524258,14.0046196 L68.8524258,14.3713812 L67.6969782,14.437728 C66.682157,14.5003946 66.1104438,14.9413351 66.1104438,15.7061963 C66.1118705,16.0688562 66.267241,16.4139906 66.5381448,16.6562759 C66.8090486,16.8985613 67.1702012,17.015384 67.5323189,16.9778635 C68.0488744,17.0016555 68.5383384,16.7467928 68.8135771,16.3107154 L68.8801816,16.3107154 L68.8801816,16.9078554 L69.6905665,16.9078554 L69.6905665,14.0046196 C69.6905665,13.1070555 69.0874031,12.5767341 68.017989,12.5767341 Z M74.7804357,11 L73.9386006,11 L73.9386006,13.3337159 L73.8756905,13.3337159 C73.6214997,12.8537401 73.1118054,12.5632686 72.5676048,12.5882464 C71.4898735,12.5882464 70.7969725,13.4388083 70.7969725,14.7814555 C70.7969725,16.1273299 71.4824751,16.9779107 72.5676143,16.9778635 C73.1177713,16.9980633 73.6337451,16.7125018 73.9071503,16.2365082 L73.9737548,16.2365082 L73.9737548,16.9078365 L74.7804357,16.9078365 L74.7804357,11 Z M91.7957238,11.600839 L90.9529603,11.600839 L90.9529603,12.6780519 L90.2757939,12.6780519 L90.2757939,13.3843984 L90.9529603,13.3843984 L90.9529603,15.7840554 C90.9529603,16.6032792 91.3257788,16.9313424 92.2619744,16.9313424 C92.4155461,16.9297666 92.5687184,16.9154335 92.7198981,16.8884921 L92.7198981,16.1899871 C92.6133531,16.2025371 92.5061741,16.208999 92.3988873,16.209341 C91.9798217,16.209341 91.7957238,16.0144432 91.7957238,15.5693507 L91.7957238,13.3844362 L92.7198981,13.3844362 L92.7198981,12.6780896 L91.7957238,12.6780896 L91.7957238,11.600839 Z M39.2280883,11.2710406 L39.0416826,11.2774279 L37,11.2774279 L37,16.9079309 L39.0416826,16.9079309 C40.7253624,16.9079309 41.701335,15.8739458 41.701335,14.0751467 C41.7955683,13.334683 41.5514917,12.5911492 41.0362858,12.0491982 C40.5210798,11.5072471 39.78905,11.2240034 39.0416826,11.2774279 Z M94.7042219,11 L93.8697851,11 L93.869823,16.907846 L94.7116582,16.907846 L94.7116582,14.4261874 C94.6856282,14.1346147 94.7901186,13.8464631 94.9971949,13.6387673 C95.2042711,13.4310714 95.4928179,13.3250097 95.785695,13.3489367 C96.3804938,13.3489367 96.6978386,13.6926642 96.6978386,14.3713623 L96.6978386,16.907846 L97.5405169,16.907846 L97.5405169,14.1644898 C97.5962605,13.7511653 97.4640891,13.3346067 97.180003,13.0282752 C96.895917,12.7219437 96.4895056,12.5577456 96.0714663,12.5804048 C95.5202338,12.5358442 95.0000988,12.8402421 94.7708264,13.3415764 L94.7042219,13.3415764 L94.7042219,11 Z M48.1779346,12.6587357 L47.3240687,12.6587357 L48.4998643,16.907846 L49.3648325,16.907846 L50.2427502,13.7783743 L50.3093547,13.7783743 L51.1909669,16.907846 L52.0642524,16.907846 L53.2354251,12.6587357 L52.39359,12.6587357 L51.6331656,15.9010564 L51.5665611,15.9010564 L50.6895717,12.6587357 L49.8819623,12.6587357 L49.004973,15.9010564 L48.9420629,15.9010564 L48.1779346,12.6587357 Z M85.5624282,12.5767152 C85.0194493,12.532749 84.5082608,12.8367595 84.2894968,13.3337442 L84.2265867,13.3337442 L84.2265867,12.6587357 L83.4162018,12.6587357 L83.4162018,16.907846 L84.258037,16.907846 L84.258037,14.4220543 C84.2278324,14.1392769 84.323106,13.8574611 84.5188798,13.6504903 C84.7146537,13.4435194 84.9914026,13.3320354 85.2765716,13.345266 C85.8991642,13.345266 86.197042,13.684851 86.197042,14.3676916 L86.197042,16.9077988 L87.0388772,16.9077988 L87.0388772,14.1571106 C87.1005871,13.7416517 86.9692941,13.3207827 86.6820687,13.0133358 C86.3948433,12.705889 85.9828549,12.5452279 85.5624282,12.5767152 Z M56.3705737,12.5767152 C55.8275947,12.532749 55.3164063,12.8367595 55.0976422,13.3337442 L55.0347321,13.3337442 L55.0347321,12.6587357 L54.2243472,12.6587357 L54.2243472,16.907846 L55.0661824,16.907846 L55.0661824,14.4220543 C55.0359779,14.1392769 55.1312514,13.8574611 55.3270252,13.6504903 C55.5227991,13.4435194 55.799548,13.3320354 56.0847171,13.345266 C56.7073096,13.345266 57.0051874,13.684851 57.0051874,14.3676916 L57.0051874,16.9077988 L57.8470226,16.9077988 L57.8470226,14.1571106 C57.9087325,13.7416517 57.7774395,13.3207827 57.4902141,13.0133358 C57.2029888,12.705889 56.7910004,12.5452279 56.3705737,12.5767152 Z M60.0302505,11 L59.1884153,11 L59.1884153,16.9078365 L60.0302505,16.9078365 L60.0302505,11 Z M68.8524258,14.9878751 L68.8524258,15.3431149 C68.8340119,15.6139289 68.7060535,15.8657042 68.4978431,16.0408041 C68.2896327,16.215904 68.0189989,16.2993351 67.7478955,16.2719982 C67.2899338,16.2719982 66.9569018,16.049452 66.9569018,15.6670261 C66.9569018,15.2924324 67.2233293,15.0933826 67.8107676,15.0542218 L68.8524258,14.9878751 Z M44.7060406,13.321779 C45.4350052,13.321779 45.8503859,13.8604043 45.8503859,14.7814555 C45.8503859,15.7061963 45.4350242,16.2443687 44.7060406,16.2443687 C43.9743193,16.2443687 43.5626521,15.7098953 43.5626521,14.7814649 C43.5626521,13.8604043 43.9742909,13.321779 44.7060406,13.321779 Z M80.2764305,13.321779 C81.0053951,13.321779 81.4207663,13.8604043 81.4207663,14.7814555 C81.4207663,15.7061963 81.0054046,16.2443687 80.2764305,16.2443687 C79.5447092,16.2443687 79.133042,15.7098953 79.133042,14.7814649 C79.133042,13.8604043 79.5446808,13.321779 80.2764305,13.321779 Z M63.2135028,13.321779 C63.9424674,13.321779 64.3578481,13.8604043 64.3578481,14.7814555 C64.3578481,15.7061963 63.9424769,16.2443687 63.2135028,16.2443687 C62.4817815,16.2443687 62.0701143,15.7098953 62.0701143,14.7814649 C62.0701143,13.8604043 62.4817531,13.321779 63.2135028,13.321779 Z M72.8063144,13.3415858 C73.5112366,13.3415858 73.9543541,13.899565 73.9543541,14.7851451 C73.9543541,15.6748771 73.5158405,16.2250148 72.8063144,16.2250148 C72.0930654,16.2250148 71.6665919,15.6826998 71.6665919,14.7814555 C71.6665635,13.8875809 72.0976598,13.3415858 72.8063144,13.3415858 Z M38.9436184,12.0731081 C39.4748873,12.0437388 39.991534,12.2524093 40.3522513,12.6420466 C40.7129686,13.031684 40.8800079,13.5615131 40.8076826,14.0866213 C40.8856828,14.6139177 40.7210148,15.1481553 40.3594009,15.5409963 C39.997787,15.9338372 39.4777257,16.1434585 38.9436184,16.1116562 L37.8779083,16.1116562 L37.8779083,12.0731081 Z M24.4981685,10 C23.1627243,10.0525518 21.5602533,10.8671049 20.6121096,11.9706935 C19.8509344,12.8115218 19.1565158,14.151588 19.1565158,15.4916604 C19.1565158,15.7018675 19.1966071,15.8989331 19.2099709,15.9646278 C19.2900913,15.9777631 19.4236046,16.0040397 19.5704818,16.0040397 C20.7590489,16.0040397 22.2546719,15.2157648 23.1494227,14.151588 C23.9639908,13.1793827 24.5381977,11.8524517 24.5381977,10.51238 C24.5381977,10.3284483 24.5248339,10.1445173 24.4981685,10 Z M100.592426,13.290441 C100.882638,13.2838131 101.162165,13.399575 101.362122,13.6091991 C101.562079,13.8188232 101.66387,14.1028144 101.642411,14.391188 L99.4878865,14.391188 C99.4840624,14.0981843 99.599189,13.8160597 99.8071508,13.608812 C100.015113,13.4015643 100.298283,13.2867598 100.592426,13.290441 Z"></path>
    </g>
</svg>