<?xml version="1.0" encoding="UTF-8"?>
<svg width="114px" height="44px" viewBox="0 0 114 44" version="1.1" xmlns="http://www.w3.org/2000/svg">
    <g transform="translate(3.000000, 3.000000)">
        <path d="M99.0264018,0.5 L8.9735982,0.5 C5.99488122,0.5 4.90769924,0.792472871 3.81683947,1.37587106 C2.76452179,1.93865672 1.93865672,2.76452179 1.37587106,3.81683947 C0.792472871,4.90769924 0.5,5.99488122 0.5,8.9735982 L0.5,29.0264018 C0.5,32.0051188 0.792472871,33.0923008 1.37587106,34.1831605 C1.93865672,35.2354782 2.76452179,36.0613433 3.81683947,36.6241289 C4.90769924,37.2075271 5.99488122,37.5 8.9735982,37.5 L99.0264018,37.5 C102.005119,37.5 103.092301,37.2075271 104.183161,36.6241289 C105.235478,36.0613433 106.061343,35.2354782 106.624129,34.1831605 C107.207527,33.0923008 107.5,32.0051188 107.5,29.0264018 L107.5,8.9735982 C107.5,5.99488122 107.207527,4.90769924 106.624129,3.81683947 C106.061343,2.76452179 105.235478,1.93865672 104.183161,1.37587106 C103.092301,0.792472871 102.005119,0.5 99.0264018,0.5 Z" stroke-opacity="0.25" stroke="#F7F7F7" fill="#44B25D"></path>
        <path d="M88.7640704,28.1546611 C89.9850382,28.1904894 90.3790461,27.7528419 90.3790461,25.5351819 C90.3790461,23.4321723 89.5060019,23.165849 88.5999284,23.2447797 C87.8834384,23.3070992 87.2994004,23.6553931 87.2994004,23.6553931 L87.2994004,27.7435048 C87.2994004,27.7435048 87.891361,28.1288213 88.7640704,28.1546611 Z M89.7565111,20.881201 C91.1865898,20.881201 93.3030303,21.4011449 93.3030303,25.3803604 C93.3030303,29.359576 91.977842,30.5 89.6671313,30.5 C87.698876,30.5 86.6591231,29.5413229 86.6591231,29.5413229 C86.6591231,29.5413229 86.5958542,30.0671296 86.5520011,30.1365061 C86.5075903,30.2063169 86.4474456,30.2461622 86.3679968,30.2461622 L84.6038315,30.2461622 C84.4878942,30.2461622 84.3939394,30.1534431 84.3939394,30.0395527 L84.3939394,17.1302005 C84.3939394,17.0162016 84.4878942,16.9242424 84.6034967,16.9242424 L87.1461936,16.9242424 C87.2617961,16.9242424 87.3554162,17.0162016 87.3554162,17.1302005 L87.3554162,21.5015725 C87.3554162,21.5015725 88.3274368,20.881201 89.7565111,20.881201 Z M82.9029336,21.1666666 C83.0229924,21.1666666 83.1204031,21.2591049 83.1204031,21.3729167 L83.1212121,30.032818 C83.1212121,30.1460874 83.0234547,30.2387426 82.904089,30.2387426 L81.2217616,30.2456863 C81.1377549,30.2456863 81.0599882,30.1895941 81.0300602,30.1340443 C81.0002475,30.0782776 80.9342671,29.6084917 80.9342671,29.6084917 C80.9342671,29.6084917 79.5485625,30.5 77.8299517,30.5 C75.7349865,30.5 74.2121212,29.872353 74.2121212,27.3068662 L74.2121212,21.3729167 C74.2121212,21.2591049 74.3098787,21.1666666 74.4292444,21.1666666 L77.0736612,21.1666666 C77.1932578,21.1666666 77.2903219,21.2591049 77.2903219,21.3729167 L77.2903219,26.8891582 C77.2903219,27.7528916 77.5396841,28.1531318 78.4791251,28.1531318 C79.4186819,28.1531318 80.0805659,27.6984268 80.0805659,27.6984268 L80.0805659,21.3729167 C80.0805659,21.2591049 80.1778611,21.1666666 80.2973423,21.1666666 L82.9029336,21.1666666 Z M72.9393939,17.127566 L72.9393939,29.8717908 C72.9391731,29.9842244 72.8473006,30.0757576 72.7323498,30.0757576 L70.2172329,30.0757576 C70.1025029,30.0757576 70.0094159,29.9842244 70.0094159,29.8717908 C70.0094159,29.8713621 70.0162621,24.4206371 70.0162621,24.4206371 L66.1051708,24.4206371 L66.1051708,29.8717908 C66.1051708,29.9842244 66.0128567,30.0757576 65.8981268,30.0757576 L63.3890832,30.0757576 C63.2749052,30.0757576 63.1818182,29.9842244 63.1818182,29.8717908 L63.1818182,17.127566 C63.1818182,17.0150253 63.2749052,16.9242424 63.3890832,16.9242424 L65.8981268,16.9242424 C66.0128567,16.9242424 66.1051708,17.0150253 66.1051708,17.127566 L66.1051708,21.8342357 L70.0162621,21.8342357 C70.0162621,21.8342357 70.0155996,17.128102 70.0155996,17.127566 C70.0155996,17.0150253 70.1087969,16.9242424 70.2234165,16.9242424 L72.7325707,16.9242424 C72.8475215,16.9242424 72.9393939,17.0150253 72.9393939,17.127566 Z M61.6566288,21.1960442 C61.7759684,21.1960442 61.8725656,21.2875851 61.8725656,21.4010915 L61.8725656,23.3829634 C61.8725656,23.4967944 61.7759684,23.5885518 61.6566288,23.5885518 L59.698726,23.5885518 C59.698726,23.5885518 59.6988408,26.6610158 59.6988408,27.2058251 C59.6988408,27.751067 60.0246985,28.1723068 60.9863061,28.1723068 C61.2867797,28.1723068 61.5786389,28.1285922 61.6926948,28.1285922 C61.807325,28.1285922 61.9090909,28.2204578 61.9090909,28.3339642 L61.9069086,30.0745403 C61.9069086,30.1565592 61.8618835,30.2321941 61.7843531,30.2590288 C61.6561694,30.303609 60.879716,30.5 60.2306424,30.5 C58.8100545,30.5 56.7049012,30.2222392 56.7049012,27.3949663 L56.7049012,23.5885518 L55.337034,23.5885518 C55.2176945,23.5885518 55.1212121,23.4967944 55.1212121,23.3829634 L55.1212121,21.8006904 C55.1212121,21.7074182 55.1874863,21.6291864 55.2775365,21.604624 C55.3679313,21.5800616 56.7049012,21.2760072 56.7049012,21.2760072 L56.7049012,18.7580907 C56.7049012,18.6641693 56.7606083,18.6212121 56.8643268,18.6212121 L59.5322939,18.6212121 C59.645431,18.6212121 59.6958545,18.6673072 59.6958545,18.7594974 C59.6958545,18.7600384 59.6988408,21.1960442 59.6988408,21.1960442 L61.6566288,21.1960442 Z M53.8484848,27.2069807 L53.8484848,29.7528912 C53.8484848,29.9588448 53.7869617,30.0757576 53.5360503,30.0757576 L51.2490474,30.0757576 C51.0401601,30.0757576 50.8787879,30.0026738 50.8787879,29.7568272 L50.8787879,21.3915561 C50.8787879,21.2807071 50.9830074,21.1666666 51.099442,21.1666666 L53.6378044,21.1666666 C53.754239,21.1666666 53.8484848,21.2573033 53.8484848,21.3681523 L53.8484848,27.2069807 Z M54.2727273,19.0449385 C54.2727273,19.9821506 53.5129333,20.7424242 52.5755838,20.7424242 C51.6391609,20.7424242 50.8787879,19.9821506 50.8787879,19.0449385 C50.8787879,18.1066943 51.6391609,17.3484848 52.5755838,17.3484848 C53.5129333,17.3484848 54.2727273,18.1066943 54.2727273,19.0449385 Z M49.394236,22.4920539 C49.5112171,22.4920539 49.6060606,22.5832493 49.6060606,22.6954649 L49.6060606,29.3289047 C49.6060606,29.3670644 49.5993182,29.4501751 49.5372879,29.4830529 C49.5372879,29.4830529 48.0323784,30.5 45.5516152,30.5 C42.5555059,30.5 39,29.6148874 39,23.6751145 C39,17.7355572 42.105449,16.5 45.1329106,16.5 C47.7608834,16.5 48.8011273,17.0583831 48.9715983,17.1750183 C49.0340782,17.2180289 49.0526198,17.2813051 49.0526198,17.3338017 L48.5467131,19.3888238 C48.5467131,19.5011472 48.4246752,19.6271607 48.2927484,19.5883542 C47.8729201,19.463742 47.2130613,19.2050318 45.6814069,19.2050318 C43.9119696,19.2050318 42.0272369,19.7074687 42.0272369,23.5262483 C42.0272369,27.3441655 43.8372411,27.7983099 45.1329106,27.7983099 C46.2311394,27.7983099 46.6283806,27.6684157 46.6283806,27.6684157 L46.6283806,25.0259056 L44.8592804,25.0259056 C44.7422994,25.0259056 44.6473435,24.9346025 44.6473435,24.8223869 L44.6473435,22.6954649 C44.6473435,22.5832493 44.7422994,22.4920539 44.8592804,22.4920539 L49.394236,22.4920539 Z" fill="#F7F7F7"></path>
        <path d="M39.5,9.75 C39.5083548,7.39395887 40.3772494,6.5 42.2069409,6.5 C42.9338046,6.5 43.2596401,6.63367609 43.5102828,6.73393316 L43.5102828,7.99550129 C43.1343188,7.84511568 42.8419023,7.75321337 42.340617,7.75321337 C41.3213368,7.75321337 40.8534704,8.1625964 40.8534704,9.75 C40.8534704,11.3374036 41.3213368,11.7467866 42.340617,11.7467866 C42.8419023,11.7467866 43.1343188,11.6548843 43.5102828,11.5044987 L43.5102828,12.7660668 C43.2596401,12.8663239 42.9338046,13 42.2069409,13 C40.3772494,13 39.5083548,12.1060411 39.5,9.75 Z M46.538285,11.8386889 L46.538285,12.9164524 C46.538285,12.9164524 46.3628351,12.9498715 46.1539662,12.9498715 C45.4354572,12.9498715 44.8673338,12.5822622 44.8673338,11.7718509 L44.8673338,6.61696658 L46.19574,6.61696658 L46.19574,11.5880463 C46.19574,11.7467866 46.2709328,11.8386889 46.538285,11.8386889 Z M49.5161586,13 C47.9705288,13 47.552791,12.0976864 47.552791,10.7943445 C47.552791,9.49100257 47.9705288,8.58868895 49.5161586,8.58868895 C51.0617884,8.58868895 51.4795262,9.49100257 51.4795262,10.7943445 C51.4795262,12.0976864 51.0617884,13 49.5161586,13 Z M49.5161586,9.65809769 C49.056647,9.65809769 48.8895519,9.95886889 48.8895519,10.7943445 C48.8895519,11.6298201 49.056647,11.9305913 49.5161586,11.9305913 C49.9756702,11.9305913 50.1427653,11.6298201 50.1427653,10.7943445 C50.1427653,9.95886889 49.9756702,9.65809769 49.5161586,9.65809769 Z M52.6611274,8.70565553 L53.4631839,8.70565553 L53.6302791,9.00642674 C54.0981454,8.72236504 54.624495,8.58868895 55.0840066,8.58868895 C56.2202534,8.58868895 56.5460888,9.19023136 56.5460888,9.99228792 L56.5460888,12.8830334 L55.2093279,12.8830334 L55.2093279,10.1928021 C55.2093279,9.88367609 55.1007161,9.6748072 54.7414616,9.6748072 C54.4156261,9.6748072 54.1232097,9.80848329 53.9978883,9.89203085 L53.9978883,12.8830334 L52.6611274,12.8830334 L52.6611274,8.70565553 Z M61.4455563,11.2371465 L59.0059677,11.2371465 C58.9725486,11.7802057 59.2566103,11.938946 59.9082813,11.938946 C60.534888,11.938946 61.0027543,11.8136247 61.3035255,11.6632391 L61.3035255,12.7075835 C60.8189497,12.9080977 60.2341168,13 59.7328314,13 C58.3542967,13 57.6859162,12.2982005 57.6859162,10.7943445 C57.6859162,9.29048843 58.3459419,8.58868895 59.6409291,8.58868895 C61.4288468,8.58868895 61.5541682,9.92544987 61.4455563,11.2371465 Z M59.6576386,9.59125964 C59.2064818,9.59125964 59.0059677,9.89203085 59.0059677,10.4183805 L60.192343,10.4183805 C60.2675358,9.95886889 60.1672787,9.59125964 59.6576386,9.59125964 Z M67.8942342,6.64203085 L67.8942342,7.76156812 C67.7689129,7.70308483 67.5767535,7.61118252 67.2425633,7.61118252 C66.9501468,7.61118252 66.6911494,7.73650386 66.6911494,8.12917738 L66.6911494,8.70565553 L67.7689129,8.70565553 L67.7689129,9.81683805 L66.6911494,9.81683805 L66.6911494,12.8830334 L65.3543885,12.8830334 L65.3543885,9.81683805 L64.6776532,9.81683805 L64.6776532,8.93123393 L65.3543885,8.74742931 L65.3543885,7.97043702 C65.3543885,6.98457584 65.8974476,6.5 67.1088872,6.5 C67.2926918,6.5 67.6686558,6.54177378 67.8942342,6.64203085 Z M71.4569408,8.64717224 L71.4569408,9.72493573 C71.3901028,9.70822622 71.2230076,9.69151671 71.0475578,9.69151671 C70.6381747,9.69151671 70.2705655,9.83354756 70.1619537,9.93380463 L70.1619537,12.8830334 L68.8251927,12.8830334 L68.8251927,8.70565553 L69.6272493,8.70565553 L69.7943444,9.00642674 C70.0032133,8.8059126 70.4543701,8.58868895 71.0809768,8.58868895 C71.2480719,8.58868895 71.3984575,8.62210797 71.4569408,8.64717224 Z M74.3094931,13 C72.7638632,13 72.3461255,12.0976864 72.3461255,10.7943445 C72.3461255,9.49100257 72.7638632,8.58868895 74.3094931,8.58868895 C75.8551229,8.58868895 76.2728607,9.49100257 76.2728607,10.7943445 C76.2728607,12.0976864 75.8551229,13 74.3094931,13 Z M74.3094931,9.65809769 C73.8499815,9.65809769 73.6828864,9.95886889 73.6828864,10.7943445 C73.6828864,11.6298201 73.8499815,11.9305913 74.3094931,11.9305913 C74.7690046,11.9305913 74.9360997,11.6298201 74.9360997,10.7943445 C74.9360997,9.95886889 74.7690046,9.65809769 74.3094931,9.65809769 Z M83.4531765,12.8830334 L82.1164156,12.8830334 L82.1164156,10.0089974 C82.1164156,9.79177378 81.999449,9.6748072 81.7404516,9.6748072 C81.4563899,9.6748072 81.214102,9.80848329 81.1221996,9.89203085 L81.1221996,12.8830334 L79.7854387,12.8830334 L79.7854387,10.0089974 C79.7854387,9.79177378 79.6684721,9.6748072 79.4094747,9.6748072 C79.125413,9.6748072 78.8831251,9.80848329 78.7912228,9.89203085 L78.7912228,12.8830334 L77.4544619,12.8830334 L77.4544619,8.70565553 L78.2565184,8.70565553 L78.4236135,9.00642674 C78.7243847,8.74742931 79.3008629,8.58868895 79.7353102,8.58868895 C80.2950788,8.58868895 80.5707858,8.73907455 80.7044619,8.93123393 C81.0052331,8.70565553 81.556647,8.58868895 82.0579323,8.58868895 C83.1440505,8.58868895 83.4531765,9.2403599 83.4531765,9.99228792 L83.4531765,12.8830334 Z" fill="#F7F7F7"></path>
        <path d="M19.5,6 C26.6797017,6 32.5,11.8202983 32.5,19 C32.5,25.0438787 28.3755702,30.1244452 22.787742,31.5806682 C22.7915259,30.5359318 22.7983226,28.8219026 22.8002271,27.5665896 L22.800736,26.9675558 C22.800736,25.7740034 22.4028852,25.0101299 21.9413782,24.6122791 C24.774076,24.2939984 27.75,23.2118442 27.75,18.3262364 C27.75,16.9258015 27.256665,15.7959052 26.4450494,14.9047194 C26.5723616,14.5864388 27.0179545,13.2814881 26.3177371,11.5309446 C26.3177371,11.5309446 25.2514969,11.1808359 22.81665,12.8358952 C21.798152,12.5494427 20.7159978,12.4062164 19.6338436,12.4062164 C18.5516894,12.4062164 17.4695352,12.5494427 16.4510371,12.8358952 C14.0161902,11.1967499 12.94995,11.5309446 12.94995,11.5309446 C12.2497326,13.2814881 12.6953255,14.5864388 12.8226378,14.9047194 C12.0110221,15.7959052 11.5176871,16.9417155 11.5176871,18.3262364 C11.5176871,23.1959302 14.4776971,24.2939984 17.3103949,24.6122791 C16.9443721,24.9305597 16.6101775,25.4875508 16.4987792,26.3150805 C15.7667337,26.6492752 13.93662,27.1903523 12.7908097,25.2647544 C12.5520992,24.8828176 11.8359678,23.9438897 10.8333838,23.9598038 C9.7671436,23.9757178 10.4037049,24.564537 10.8492978,24.8032475 C11.3903749,25.1056141 12.0110221,26.2355104 12.1542484,26.6015331 C12.408873,27.3176645 13.2364026,28.6862713 16.4351231,28.0974521 C16.4351231,28.8550128 16.4431566,30.5900521 16.447808,31.6396048 C10.7403291,30.266036 6.5,25.128209 6.5,19 C6.5,11.8202983 12.3202983,6 19.5,6 Z" fill="#F7F7F7"></path>
    </g>
</svg>