<?xml version="1.0" encoding="UTF-8"?>
<svg width="96px" height="96px" viewBox="0 0 96 96" version="1.1" xmlns="http://www.w3.org/2000/svg" xmlns:xlink="http://www.w3.org/1999/xlink">
    <g transform="translate(4, 4)">
        <circle fill="white" stroke="rgba(0, 0, 0, 0.2)" stroke-width="0.5" cx="44" cy="44" r="44"></circle>
        <polygon fill="rgb(231, 76, 72)" points="44 82.95 41.0750935 84.8955367 38.456837 82.5535452 35.2848231 84.0630215 33.0265169 81.3722513 29.6719686 82.4149387 27.8195852 79.4301662 24.3507915 79.9848386 22.9420402 76.7668251 19.4296157 76.8221909 18.4931744 73.4364459 15.008622 72.991378 14.5635541 69.5068256 11.1778091 68.5703843 11.2331749 65.0579598 8.01516143 63.6492085 8.56983378 60.1804148 5.58506128 58.3280314 6.62774868 54.9734831 3.9369785 52.7151769 5.44645484 49.543163 3.1044633 46.9249065 5.05 44 3.1044633 41.0750935 5.44645484 38.456837 3.9369785 35.2848231 6.62774868 33.0265169 5.58506128 29.6719686 8.56983378 27.8195852 8.01516143 24.3507915 11.2331749 22.9420402 11.1778091 19.4296157 14.5635541 18.4931744 15.008622 15.008622 18.4931744 14.5635541 19.4296157 11.1778091 22.9420402 11.2331749 24.3507915 8.01516143 27.8195852 8.56983378 29.6719686 5.58506128 33.0265169 6.62774868 35.2848231 3.9369785 38.456837 5.44645484 41.0750935 3.1044633 44 5.05 46.9249065 3.1044633 49.543163 5.44645484 52.7151769 3.9369785 54.9734831 6.62774868 58.3280314 5.58506128 60.1804148 8.56983378 63.6492085 8.01516143 65.0579598 11.2331749 68.5703843 11.1778091 69.5068256 14.5635541 72.991378 15.008622 73.4364459 18.4931744 76.8221909 19.4296157 76.7668251 22.9420402 79.9848386 24.3507915 79.4301662 27.8195852 82.4149387 29.6719686 81.3722513 33.0265169 84.0630215 35.2848231 82.5535452 38.456837 84.8955367 41.0750935 82.95 44 84.8955367 46.9249065 82.5535452 49.543163 84.0630215 52.7151769 81.3722513 54.9734831 82.4149387 58.3280314 79.4301662 60.1804148 79.9848386 63.6492085 76.7668251 65.0579598 76.8221909 68.5703843 73.4364459 69.5068256 72.991378 72.991378 69.5068256 73.4364459 68.5703843 76.8221909 65.0579598 76.7668251 63.6492085 79.9848386 60.1804148 79.4301662 58.3280314 82.4149387 54.9734831 81.3722513 52.7151769 84.0630215 49.543163 82.5535452 46.9249065 84.8955367"></polygon>
        <path fill="white" d="M69.3167116,50.8328823 L75.5889488,50.8328823 C76.1320755,50.8328823 76.5,50.4986468 76.5,49.9797023 C76.5,49.4607578 76.1320755,49.1265223 75.5889488,49.1265223 L70.2978437,49.1265223 L70.2978437,45.1860622 L75.2998652,45.1860622 C75.8254717,45.1860622 76.175876,44.8606225 76.175876,44.368065 C76.175876,43.8667118 75.8167116,43.5500677 75.2998652,43.5500677 L70.2978437,43.5500677 L70.2978437,39.8470907 L75.5889488,39.8470907 C76.1320755,39.8470907 76.5,39.5128552 76.5,38.9939107 C76.5,38.4749662 76.1320755,38.1407307 75.5889488,38.1407307 L69.3167116,38.1407307 C68.703504,38.1407307 68.3355795,38.5277402 68.3355795,39.1610284 L68.3355795,49.8125846 C68.3355795,50.4458728 68.703504,50.8328823 69.3167116,50.8328823 Z M54.1091644,50.973613 C54.6698113,50.973613 55.0026954,50.6217862 55.0026954,50.0324763 L55.0026954,41.4918809 L55.0640162,41.4918809 L58.5943396,50.0324763 C58.7958221,50.5250338 59.1199461,50.7537212 59.6105121,50.7537212 C60.1010782,50.7537212 60.416442,50.5250338 60.6266846,50.014885 L64.148248,41.4918809 L64.2095687,41.4918809 L64.2095687,50.0324763 C64.2095687,50.6217862 64.5512129,50.973613 65.1118598,50.973613 C65.6637466,50.973613 66.0053908,50.6217862 66.0053908,50.0324763 L66.0053908,39.2489851 C66.0053908,38.4749662 65.5235849,38 64.7614555,38 C64.0781671,38 63.6752022,38.3078484 63.3773585,39.037889 L59.6455526,48.1589986 L59.5754717,48.1589986 L55.8349057,39.037889 C55.537062,38.2990528 55.1428571,38 54.4770889,38 C53.6974394,38 53.2156334,38.4837618 53.2156334,39.2489851 L53.2156334,50.0324763 C53.2156334,50.6217862 53.5485175,50.973613 54.1091644,50.973613 Z M40.5222372,50.8328823 L46.7944744,50.8328823 C47.3376011,50.8328823 47.7055256,50.4986468 47.7055256,49.9797023 C47.7055256,49.4607578 47.3376011,49.1265223 46.7944744,49.1265223 L41.5033693,49.1265223 L41.5033693,45.1860622 L46.5053908,45.1860622 C47.0309973,45.1860622 47.3814016,44.8606225 47.3814016,44.368065 C47.3814016,43.8667118 47.0222372,43.5500677 46.5053908,43.5500677 L41.5033693,43.5500677 L41.5033693,39.8470907 L46.7944744,39.8470907 C47.3376011,39.8470907 47.7055256,39.5128552 47.7055256,38.9939107 C47.7055256,38.4749662 47.3376011,38.1407307 46.7944744,38.1407307 L40.5222372,38.1407307 C39.9090296,38.1407307 39.5411051,38.5277402 39.5411051,39.1610284 L39.5411051,49.8125846 C39.5411051,50.4458728 39.9090296,50.8328823 40.5222372,50.8328823 Z M29.5107817,51 C30.106469,51 30.4919137,50.6129905 30.4919137,49.9797023 L30.4919137,45.9512855 L33.2338275,45.9512855 L35.6078167,50.3139378 C35.8969003,50.8328823 36.1334232,51 36.5889488,51 C37.1583558,51 37.5876011,50.6129905 37.5876011,50.094046 C37.5876011,49.8741543 37.5350404,49.6894452 37.3773585,49.4167794 L35.2398922,45.6258457 C36.7553908,45.0893099 37.6489218,43.7171854 37.6489218,42.0196211 C37.6489218,39.6535859 36.0283019,38.1407307 33.4265499,38.1407307 L29.5107817,38.1407307 C28.8975741,38.1407307 28.5296496,38.5277402 28.5296496,39.1610284 L28.5296496,49.9797023 C28.5296496,50.6129905 28.9063342,51 29.5107817,51 Z M30.4919137,44.3592693 L30.4919137,39.7943166 L33.190027,39.7943166 C34.7055256,39.7943166 35.6253369,40.6562923 35.6253369,42.0723951 C35.6253369,43.5236806 34.7580863,44.3592693 33.2425876,44.3592693 L30.4919137,44.3592693 Z M25.2183288,50.973613 C25.8227763,50.973613 26.1994609,50.5866035 26.1994609,49.9533153 L26.1994609,39.0202977 C26.1994609,38.3870095 25.8227763,38 25.2183288,38 C24.6051213,38 24.2371968,38.3870095 24.2371968,39.0202977 L24.2371968,49.9533153 C24.2371968,50.5866035 24.6051213,50.973613 25.2183288,50.973613 Z M12.4811321,50.973613 C13.0855795,50.973613 13.4622642,50.5866035 13.4622642,49.9533153 L13.4622642,45.2124493 L19.953504,45.2124493 L19.953504,49.9533153 C19.953504,50.5866035 20.3214286,50.973613 20.9346361,50.973613 C21.5390836,50.973613 21.9157682,50.5866035 21.9157682,49.9533153 L21.9157682,39.0202977 C21.9157682,38.3870095 21.5390836,38 20.9346361,38 C20.3214286,38 19.953504,38.3870095 19.953504,39.0202977 L19.953504,43.5060893 L13.4622642,43.5060893 L13.4622642,39.0202977 C13.4622642,38.3870095 13.0855795,38 12.4811321,38 C11.8679245,38 11.5,38.3870095 11.5,39.0202977 L11.5,49.9533153 C11.5,50.5866035 11.8679245,50.973613 12.4811321,50.973613 Z"></path>
    </g>
</svg>