<?xml version="1.0" encoding="UTF-8"?>
<svg width="192px" height="64px" viewBox="0 0 192 64" version="1.1" xmlns="http://www.w3.org/2000/svg" xmlns:xlink="http://www.w3.org/1999/xlink">
    <g transform="translate(3.5, 15.5)">
        <path fill="rgb(255, 255, 243)" stroke="rgba(0, 0, 0, 0.2)" stroke-width="0.5" d="M157.509947,0.25 L159.0762,2.80095067 L158.066234,4.02059298 L159.169176,4.86644401 L159.169176,6.75587119 L160.283616,9.3063749 L159.213507,10.9196164 L159.213507,12.6603938 L158.616516,14.0621526 L157.620082,15.0590834 L157.620082,18.1485728 L158.655475,18.2796548 L158.655475,20.4404668 L159.018949,23.7627896 L159.096399,25.5364224 L158.319809,26.1916049 L159.214644,27.1598645 L157.967666,29.9540636 L158.211035,31.3321841 L158.058942,32.75 L4.3458278,32.75 C2.93775038,32.75 2.4306611,32.5945532 1.91683173,32.3197542 C1.38373131,32.034649 0.965350981,31.6162687 0.680245756,31.0831683 C0.405446801,30.5693389 0.25,30.0622496 0.25,28.6541722 L0.25,4.3458278 C0.25,2.93775038 0.405446801,2.4306611 0.680245756,1.91683173 C0.965350981,1.38373131 1.38373131,0.965350981 1.91683173,0.680245756 C2.4306611,0.405446801 2.93775038,0.25 4.3458278,0.25 L157.509947,0.25 Z"></path>
        <path fill="rgba(0, 0, 205, 0.8)" transform="translate(80, 18) rotate(2) translate(-80, -18)" d="M108.489952,19.0681623 L108.489952,19.3288699 C108.489952,19.6888948 108.469773,20.2661759 108.429414,21.0607135 C108.429414,21.1103721 108.432777,21.156927 108.439504,21.2003783 C108.44623,21.2438296 108.449594,21.2841772 108.449594,21.3214211 C108.449594,21.433153 108.436141,21.5666105 108.409235,21.7217936 C108.382329,21.8769767 108.34197,22.0228488 108.288159,22.15941 C108.234347,22.2959711 108.163719,22.4139103 108.076275,22.5132275 C107.988831,22.6125447 107.884571,22.6622033 107.763495,22.6622033 C107.521342,22.6622033 107.306096,22.5753007 107.117755,22.4014956 C107.117755,22.2028612 106.579638,21.5138482 105.503405,20.3344565 L105.079638,19.5895776 C104.998921,19.4530164 104.898024,19.3133516 104.776948,19.1705831 C104.655872,19.0278147 104.534795,18.8881499 104.413719,18.7515887 C104.346455,18.7019301 104.242194,18.583991 104.100939,18.3977712 C103.959683,18.2115515 103.818428,18.0129171 103.677172,17.8018681 C103.535916,17.590819 103.408114,17.398392 103.293764,17.2245869 C103.179414,17.0507818 103.122239,16.9638792 103.122239,16.9638792 C102.799369,16.6659276 102.308338,16.0700245 101.649145,15.1761697 C101.649145,15.4741213 101.639055,15.7472436 101.618876,15.9955366 C101.598697,16.2438296 101.575154,16.5293665 101.548248,16.8521474 C101.521342,17.1749283 101.480984,17.5597824 101.427172,18.0067098 C101.37336,18.4536371 101.319549,19.024711 101.265737,19.7199314 L101.265737,19.8130412 C101.265737,19.9123584 101.242194,20.0675416 101.195109,20.2785906 C101.148024,20.4896396 101.094212,20.7037923 101.033674,20.9210487 C100.973136,21.1383051 100.915961,21.3307321 100.86215,21.4983299 C100.808338,21.6659276 100.781432,21.7621412 100.781432,21.7869705 C100.646903,22.0973367 100.40475,22.2525198 100.054975,22.2525198 C99.7321048,22.2525198 99.543764,22.0663001 99.4899523,21.6938606 L99.9338985,19.1426502 C99.9608043,18.6584789 100.041522,17.8887706 100.176051,16.8335254 C100.202957,16.7217936 100.226499,16.5200555 100.246679,16.2283113 C100.266858,15.936567 100.293764,15.6293044 100.327396,15.3065236 C100.361029,14.9837427 100.398024,14.6733764 100.438383,14.3754249 C100.478742,14.0774733 100.525827,13.8602169 100.579638,13.7236558 C100.821791,13.4505335 101.158114,13.3139723 101.588607,13.3139723 C101.763495,13.3760456 102.005647,13.6181312 102.315064,14.0402293 L102.980984,14.971328 C103.169324,15.1823771 103.42493,15.467914 103.7478,15.8279388 C104.07067,16.1879637 104.447351,16.6286837 104.877845,17.150099 C105.36215,17.7460021 105.775827,18.2953504 106.118876,18.7981437 C106.461925,19.300937 106.761253,19.750968 107.016858,20.1482368 C107.057217,20.0365049 107.090849,19.8378705 107.117755,19.5523336 C107.144661,19.2667967 107.158114,18.9191865 107.158114,18.5095031 C107.158114,18.335698 107.15475,18.1867222 107.148024,18.0625757 C107.141298,17.9384292 107.131208,17.8453193 107.117755,17.7832461 C107.131208,17.7708314 107.137934,17.7211728 107.137934,17.6342703 C107.137934,17.5970263 107.127845,17.5008128 107.107665,17.3456297 C107.087486,17.1904466 107.06058,17.0197452 107.026948,16.8335254 C106.993316,16.6473057 106.96641,16.4735006 106.94623,16.3121101 C106.926051,16.1507197 106.915961,16.0389879 106.915961,15.9769146 C106.915961,15.9024267 106.929414,15.8279388 106.95632,15.7534509 C106.929414,15.43067 106.895782,15.0737489 106.855423,14.6826874 C106.815064,14.291626 106.761253,13.8602169 106.693988,13.3884602 C106.788159,12.9042889 107.010132,12.6622033 107.359907,12.6622033 C107.682777,12.6622033 107.92493,12.8173864 108.086365,13.1277526 C108.099818,13.5001921 108.126724,13.8695279 108.167082,14.2357601 C108.207441,14.6019922 108.2478,15.008572 108.288159,15.4554993 C108.328517,15.9024267 108.368876,16.4176347 108.409235,17.0011232 C108.449594,17.5846117 108.476499,18.2736247 108.489952,19.0681623 Z M96.019814,21.8294311 C96.3377068,21.9405422 96.4966532,22.1405422 96.4966532,22.4294311 C96.4966532,22.8405422 96.0452454,23.0460977 95.1424298,23.0460977 C95.0152726,23.0460977 94.8753998,23.0433199 94.7228112,23.0377644 C94.5702227,23.0322088 94.4367077,23.0294311 94.3222663,23.0294311 C94.156962,23.0294311 94.0139102,23.0294311 93.893111,23.0294311 C93.7723117,23.0294311 93.6737649,23.0349866 93.5974706,23.0460977 C93.5720392,23.0349866 93.4067349,23.0210977 93.1015578,23.0044311 C92.7963807,22.9877644 92.3513308,22.9572088 91.766408,22.9127644 C91.4612309,22.9349866 91.2228112,22.9516533 91.0511491,22.9627644 C90.879487,22.9738755 90.7682245,22.9794311 90.7173616,22.9794311 C90.2468803,22.9794311 89.9099139,22.9127644 89.7064625,22.7794311 C89.6428839,22.3905422 89.592021,22.0210977 89.5538739,21.6710977 C89.5157268,21.3210977 89.4966532,20.9849866 89.4966532,20.6627644 C89.4966532,20.0960977 89.5252635,19.5905422 89.5824843,19.1460977 C89.639705,18.7016533 89.6683153,18.3349866 89.6683153,18.0460977 C89.6683153,17.6683199 89.6428839,17.4127644 89.592021,17.2794311 L89.6873889,15.5294311 C89.7891146,14.6516533 89.9353453,14.0572088 90.126081,13.7460977 C90.1769438,13.7016533 90.3390692,13.6516533 90.612457,13.5960977 C90.8858448,13.5405422 91.1751273,13.4877644 91.4803044,13.4377644 C91.7854815,13.3877644 92.0525115,13.3433199 92.2813943,13.3044311 C92.5102772,13.2655422 92.5992872,13.2460977 92.5484243,13.2460977 C92.6247186,13.2238755 92.7900229,13.2016533 93.0443371,13.1794311 C93.2986514,13.1572088 93.5656813,13.1349866 93.845427,13.1127644 C94.1251727,13.0905422 94.3763081,13.0738755 94.598833,13.0627644 C94.821358,13.0516533 94.9262626,13.0460977 94.9135469,13.0460977 L94.9707676,13.0460977 C95.0724933,13.0460977 95.1710401,13.1044311 95.266408,13.2210977 C95.3617758,13.3377644 95.4094597,13.4738755 95.4094597,13.6294311 C95.4094597,13.7294311 95.4031019,13.8155422 95.3903862,13.8877644 C95.3776705,13.9599866 95.3331655,14.0238755 95.2568712,14.0794311 C95.1805769,14.1349866 95.0534198,14.1766533 94.8753998,14.2044311 C94.6973798,14.2322088 94.4430655,14.2516533 94.112457,14.2627644 C93.5402499,14.2849866 93.1524207,14.3238755 92.9489693,14.3794311 L92.8345279,14.3794311 C92.4403408,14.3794311 91.9635015,14.4572088 91.4040101,14.6127644 C91.3404316,14.6683199 91.2832109,14.7738755 91.232348,14.9294311 C91.1814852,15.0849866 91.1401591,15.2572088 91.1083698,15.4460977 C91.0765805,15.6349866 91.0511491,15.8238755 91.0320755,16.0127644 C91.013002,16.2016533 91.0034652,16.3516533 91.0034652,16.4627644 C91.0034652,16.7516533 91.0161809,16.9738755 91.0416123,17.1294311 C91.0670437,17.2849866 91.0734016,17.3627644 91.0606859,17.3627644 C91.4675887,17.3516533 91.8331655,17.3183199 92.1574161,17.2627644 C92.4816668,17.2072088 92.7709493,17.1794311 93.0252635,17.1794311 C93.139705,17.1794311 93.27322,17.1822088 93.4258085,17.1877644 C93.5783971,17.1933199 93.7373435,17.1960977 93.9026477,17.1960977 C94.067952,17.1960977 94.2173616,17.1988755 94.3508766,17.2044311 C94.4843916,17.2099866 94.5892962,17.2127644 94.6655905,17.2127644 C94.7927477,17.2127644 94.8849366,17.2627644 94.9421573,17.3627644 C94.999378,17.4627644 95.0279883,17.5849866 95.0279883,17.7294311 C95.0279883,17.9738755 94.9262626,18.1322088 94.7228112,18.2044311 C94.5193598,18.2766533 94.156962,18.3127644 93.6356178,18.3127644 C93.0252635,18.3127644 92.6437922,18.3294311 92.4912036,18.3627644 C92.427625,18.3627644 92.3545097,18.3599866 92.2718576,18.3544311 C92.1892054,18.3488755 92.1033744,18.3460977 92.0143644,18.3460977 C91.8744915,18.3460977 91.7250819,18.3488755 91.5661355,18.3544311 C91.4071891,18.3599866 91.2387059,18.3683199 91.0606859,18.3794311 C91.0225388,18.4238755 90.9907495,18.5266533 90.965318,18.6877644 C90.9398866,18.8488755 90.920813,19.0183199 90.9080973,19.1960977 C90.8953816,19.3738755 90.8890238,19.5322088 90.8890238,19.6710977 C90.8890238,19.8099866 90.8890238,19.8794311 90.8890238,19.8794311 L90.8890238,20.2294311 C90.8890238,20.6183199 90.8699502,21.1183199 90.8318031,21.7294311 C90.920813,21.7516533 91.102012,21.7738755 91.3753998,21.7960977 C91.6487876,21.8183199 91.9380701,21.8377644 92.2432472,21.8544311 C92.5484243,21.8710977 92.8377068,21.8877644 93.1110946,21.9044311 C93.3844824,21.9210977 93.5593235,21.9349866 93.6356178,21.9460977 C93.6483335,21.9460977 93.7437013,21.9405422 93.9217213,21.9294311 C94.0997413,21.9183199 94.3540556,21.9016533 94.6846641,21.8794311 C95.1551455,21.8460977 95.5239012,21.8294311 95.7909311,21.8294311 L96.019814,21.8294311 Z M87.2955996,14.5739162 C87.1831874,14.6209981 87.0286207,14.644539 86.8318994,14.644539 C86.7616418,14.644539 86.6316652,14.6357112 86.4419696,14.6180554 C86.2522741,14.6003997 86.0625785,14.5798014 85.872883,14.5562604 C85.6831874,14.5327195 85.5110563,14.5121212 85.3564896,14.4944654 C85.2019228,14.4768097 85.1176137,14.4679819 85.1035622,14.4679819 C84.6820165,14.4679819 84.1480586,14.5386047 83.5016886,14.6798504 L83.8178479,16.6749461 C83.8881055,17.2281584 83.9407987,17.7107479 83.9759275,18.1227146 C84.0110563,18.5346812 84.0286207,18.8819103 84.0286207,19.1644017 C84.0286207,19.2585655 84.0286207,19.3468441 84.0286207,19.4292374 C84.0286207,19.5116307 84.0215949,19.5822536 84.0075434,19.641106 C84.0215949,19.8058926 84.0286207,19.964794 84.0286207,20.1178102 C84.0286207,20.2708264 84.0286207,20.4120721 84.0286207,20.5415473 C84.0286207,20.9770549 84.0075434,21.3183987 83.9653889,21.5655787 C83.9232343,21.8127587 83.8635153,21.9981437 83.7862319,22.1217337 C83.7089486,22.2453237 83.6105879,22.3218318 83.49115,22.351258 C83.371712,22.3806842 83.2347097,22.3953973 83.080143,22.3953973 C82.8693701,22.3953973 82.7183163,22.3394875 82.6269814,22.227668 C82.5356465,22.1158485 82.4759275,21.980488 82.4478244,21.8215866 C82.4197214,21.6626852 82.4091828,21.5008411 82.4162085,21.3360545 C82.4232343,21.1712678 82.4267472,21.0359073 82.4267472,20.929973 C82.4267472,20.6945635 82.4478244,20.482695 82.489979,20.2943674 C82.5321336,20.1060397 82.5532109,19.9294826 82.5532109,19.7646959 C82.5532109,19.7293845 82.5426722,19.6234502 82.5215949,19.4468931 C82.5005177,19.270336 82.4794404,19.0408117 82.4583631,18.7583203 C82.4372858,18.4758289 82.4197214,18.1491982 82.4056699,17.7784282 C82.3916184,17.4076582 82.3845926,17.0104046 82.3845926,16.5866675 C82.342438,15.9746028 82.2089486,15.3978495 81.9841242,14.8564076 C81.7030938,14.868178 81.4220633,14.8828911 81.1410329,14.9005469 C80.8600024,14.9182026 80.5930235,14.9388009 80.3400961,14.9623419 C80.0871687,14.9858828 79.8658572,15.015309 79.6761617,15.0506204 C79.4864661,15.0859318 79.342438,15.1212433 79.2440774,15.1565547 C78.7382226,15.1565547 78.4852952,14.9741123 78.4852952,14.6092276 C78.4852952,14.4562114 78.5625785,14.2855395 78.7171453,14.0972119 L82.1738198,13.5675405 L83.2909158,13.4616062 C83.6281523,13.4262948 83.9583631,13.4086391 84.2815481,13.4086391 C84.4080118,13.4086391 84.4677308,13.4056964 84.460705,13.3998112 C84.4536793,13.393926 84.5098853,13.393926 84.6293233,13.3998112 C84.7487612,13.4056964 84.99115,13.4174669 85.3564896,13.4351226 C85.7218291,13.4527783 86.3330704,13.4851471 87.1902132,13.5322291 C87.3869345,13.6263929 87.4852952,13.7970648 87.4852952,14.0442447 C87.4852952,14.2443428 87.4220633,14.4209 87.2955996,14.5739162 Z M76.4742417,19.2874321 C76.4613281,19.6136963 76.4484145,19.8719889 76.4355008,20.0623097 C76.4225872,20.2526305 76.4064451,20.4076061 76.3870747,20.5272363 C76.3677042,20.6468665 76.3354201,20.7529024 76.2902224,20.845344 C76.2450246,20.9377855 76.1836848,21.0546969 76.106203,21.1960781 C75.8350166,21.6963499 75.4153233,22.0824293 74.8471231,22.3543162 C74.2789229,22.6262031 73.5557591,22.7621466 72.6776316,22.7621466 C72.1094314,22.7621466 71.657454,22.7159258 71.3216994,22.6234843 C70.9859447,22.5310427 70.6308196,22.4195691 70.2563241,22.2890634 L69.4427647,21.9627991 C69.145751,21.8431689 68.9100771,21.715382 68.735743,21.5794386 C68.5614088,21.4434951 68.4742417,21.3048328 68.4742417,21.1634516 C68.4742417,20.8154364 68.6744032,20.6196778 69.074726,20.5761759 C69.3846534,20.6631797 69.6429262,20.7365892 69.8495444,20.7964043 C70.0561626,20.8562194 70.2272684,20.9160346 70.3628616,20.9758497 C70.4984548,21.0356648 70.6146776,21.0981988 70.7115299,21.1634516 C70.8083822,21.2287045 70.9020061,21.2993951 70.9924015,21.3755234 C71.5993426,21.5821574 72.2514815,21.6854745 72.948818,21.6854745 C73.0521271,21.6854745 73.1844919,21.6691613 73.3459124,21.6365348 C73.5073329,21.6039084 73.6719819,21.5631254 73.8398592,21.5141857 C74.0077365,21.4652461 74.1627002,21.405431 74.3047502,21.3347404 C74.4468003,21.2640498 74.5565662,21.1960781 74.634048,21.1308252 C74.7244435,20.9785685 74.7986969,20.7773722 74.8568083,20.5272363 C74.9149197,20.2771004 74.9439754,19.9889002 74.9439754,19.662636 C74.9439754,19.3689981 74.8406663,19.1188622 74.634048,18.9122281 C74.4274298,18.7055941 74.169157,18.5315865 73.8592296,18.3902053 C73.5493023,18.2488241 73.2232329,18.126475 72.8810214,18.023158 C72.5388099,17.919841 72.232111,17.8246806 71.9609246,17.7376768 C71.5347744,17.5962956 71.082797,17.3842238 70.6049923,17.1014614 C70.0626195,16.3728045 69.791433,15.8344685 69.791433,15.4864533 C69.791433,14.7142945 70.3596332,13.9693244 71.4960335,13.251543 C72.6324338,12.9252787 73.3685113,12.7621466 73.704266,12.7621466 C73.8204887,12.7621466 73.9851376,12.8002107 74.1982127,12.8763391 C74.4112877,12.9524674 74.6243628,13.0476278 74.8374379,13.1618203 C75.0505129,13.2760128 75.2345323,13.4037996 75.389496,13.5451808 C75.5444597,13.686562 75.6219415,13.8225055 75.6219415,13.9530112 C75.6219415,14.2575245 75.4024096,14.4097812 74.9633459,14.4097812 C74.9375186,14.4097812 74.8568083,14.3744359 74.7212151,14.3037453 C74.5856219,14.2330547 74.4338866,14.1569263 74.2660093,14.0753603 C74.098132,13.9937942 73.9270262,13.9203847 73.7526921,13.8551319 C73.578358,13.789879 73.4330795,13.7572526 73.3168568,13.7572526 C73.0456703,13.7572526 72.7841691,13.81163 72.5323531,13.9203847 C72.2805371,14.0291395 72.0577769,14.165083 71.8640723,14.3282151 C71.6703677,14.4913472 71.515404,14.6680737 71.3991812,14.8583945 C71.2829585,15.0487154 71.2248471,15.2254418 71.2248471,15.388574 C71.2248471,15.6713364 71.3216994,15.9323478 71.515404,16.1716082 C71.7091086,16.4108687 71.9350973,16.5903141 72.1933701,16.7099443 C72.2450246,16.7316952 72.374161,16.7724783 72.5807793,16.8322934 C72.7873975,16.8921085 73.0359851,16.9709557 73.326542,17.068835 C73.6170989,17.1667143 73.9270262,17.2863445 74.2563241,17.4277257 C74.5856219,17.5691069 74.9020061,17.7295201 75.2054766,17.9089655 C75.5089472,18.0884108 75.7736768,18.2950449 75.9996655,18.5288676 C76.2256542,18.7626903 76.3838463,19.0155452 76.4742417,19.2874321 Z M64.7819505,23.8298862 C64.5839307,23.8424886 64.4123136,23.855091 64.267099,23.8676934 C64.1218845,23.8802958 63.9799703,23.8928982 63.8413565,23.9055005 C63.7027426,23.9181029 63.5509274,23.9338559 63.3859109,23.9527595 C63.2208944,23.9716631 63.0129736,23.9937173 62.7621485,24.0189221 C62.6829406,23.9937173 62.6235347,23.9811149 62.5839307,23.9811149 C62.5311254,23.9811149 62.4519175,23.9968679 62.346307,24.0283739 C62.2406964,24.0598799 62.1482872,24.0756329 62.0690792,24.0756329 C61.6994423,24.0756329 61.5146238,23.9055005 61.5146238,23.5652359 C61.5146238,23.4140072 61.5509274,23.297435 61.6235347,23.2155194 C61.6961419,23.1336039 61.7918515,23.0642907 61.9106634,23.0075799 C62.0294753,22.9508692 62.1746898,22.9036102 62.346307,22.865803 C62.5179241,22.8279958 62.7027426,22.7838874 62.9007624,22.7334779 L62.9007624,22.5255384 C62.9007624,22.1222617 62.9403664,21.5992624 63.0195743,20.9565402 C62.9799703,20.8305163 62.9601684,20.6666852 62.9601684,20.4650469 C62.9601684,20.0113607 62.97667,19.6427406 63.0096733,19.3591867 C63.0426766,19.0756329 63.0591783,18.9275547 63.0591783,18.9149523 C63.0591783,18.6881092 63.0327756,18.5305793 62.9799703,18.4423625 L62.9799703,17.9508692 C62.9799703,17.7114237 62.9700693,17.4562252 62.9502674,17.1852737 C62.9304654,16.9143222 62.9106634,16.6591237 62.8908614,16.4196782 C62.8710594,16.1802327 62.8545578,15.9691426 62.8413565,15.7864079 C62.8281551,15.6036732 62.8215545,15.4744987 62.8215545,15.3988843 L62.8215545,15.3043663 C62.5707294,15.3043663 62.267099,15.2854627 61.9106634,15.2476556 C61.7258449,14.9956077 61.6334357,14.781367 61.6334357,14.6049334 C61.6334357,14.5167167 61.646637,14.4379517 61.6730396,14.3686385 C61.6994423,14.2993254 61.7621485,14.2426146 61.8611585,14.1985062 C61.9601684,14.1543978 62.0987822,14.1228919 62.277,14.1039883 C62.4552179,14.0850847 62.7027426,14.0756329 63.0195743,14.0756329 C63.2439967,14.0756329 63.4453169,14.0882353 63.6235347,14.1134401 C63.8017525,14.1386448 63.9502674,14.1701508 64.0690792,14.207958 C64.3727096,14.207958 64.6202344,14.2142592 64.8116535,14.2268616 C65.0030726,14.239464 65.1515875,14.2615182 65.2571981,14.2930242 C65.3628086,14.3245302 65.4321155,14.3717891 65.4651188,14.4348011 C65.4981221,14.4978131 65.5146238,14.5797286 65.5146238,14.6805478 C65.5146238,14.9199933 65.3826106,15.1468364 65.1185842,15.3610771 C65.0525776,15.3610771 64.9832707,15.3579265 64.9106634,15.3516253 C64.8380561,15.3453241 64.7621485,15.3421735 64.6829406,15.3421735 C64.6037327,15.3421735 64.5179241,15.3453241 64.4255149,15.3516253 C64.3331056,15.3579265 64.2340957,15.3610771 64.1284852,15.3610771 C64.1680891,15.5249082 64.1944918,15.7013418 64.2076931,15.8903777 C64.2208944,16.0794136 64.2340957,16.2652989 64.2472971,16.4480336 C64.2604984,16.6307683 64.2703994,16.8009007 64.277,16.9584306 C64.2836007,17.1159605 64.3001023,17.2451351 64.326505,17.3459542 L64.3859109,19.1796026 C64.3727096,19.4820601 64.3661089,19.749861 64.3661089,19.9830053 C64.3661089,20.2161496 64.3661089,20.4146373 64.3661089,20.5784684 C64.3661089,20.9313355 64.3727096,21.1266726 64.3859109,21.1644798 L64.267099,22.6956707 C64.346307,22.6956707 64.4519175,22.6988213 64.5839307,22.7051225 C64.7159439,22.7114237 64.8413565,22.7334779 64.9601684,22.771285 C65.0789802,22.8090922 65.1845908,22.8689536 65.277,22.9508692 C65.3694093,23.0327847 65.4156139,23.1493569 65.4156139,23.3005856 C65.4156139,23.439212 65.3661089,23.5589347 65.267099,23.6597539 C65.1680891,23.760573 65.006373,23.8172838 64.7819505,23.8298862 Z M57.0740852,22.2361868 C57.3597995,22.2835241 57.5026566,22.4787903 57.5026566,22.8219856 C57.5026566,23.0468377 57.4604488,23.1977252 57.3760332,23.2746483 C57.2916176,23.3515714 57.1649943,23.3900329 56.9961631,23.3900329 C56.944215,23.3900329 56.8208384,23.3811572 56.6260332,23.3634057 C56.431228,23.3456542 56.2201891,23.3279028 55.9929163,23.3101513 C55.7656436,23.2923998 55.5448644,23.2746483 55.3305787,23.2568968 C55.116293,23.2391454 54.9572021,23.2302696 54.853306,23.2302696 C54.7623969,23.2302696 54.681228,23.2302696 54.6097995,23.2302696 C54.5383709,23.2302696 54.4701891,23.2361868 54.405254,23.2480211 C52.7948644,23.1770152 51.8857735,23.0290862 51.6779813,22.8042341 C51.6130462,22.6385536 51.5675917,22.4492045 51.5416176,22.2361868 C51.5156436,22.023169 51.5026566,21.7805655 51.5026566,21.5083761 C51.5026566,21.1060093 51.5318774,20.6622223 51.5903189,20.1770152 C51.6487605,19.6918081 51.6779813,19.2657726 51.6779813,18.8989087 C51.6779813,18.8042341 51.6779813,18.7213939 51.6779813,18.650388 C51.6779813,18.579382 51.6649943,18.5142933 51.6390202,18.4551217 C51.7299293,17.9580803 51.7981112,17.5468377 51.8435657,17.2213939 C51.8890202,16.8959501 51.9117475,16.650388 51.9117475,16.4847075 L51.9117475,16.2894412 C51.9117475,16.1829323 51.918241,16.023169 51.931228,15.8101513 C51.944215,15.5971335 51.9799293,15.3870743 52.0383709,15.1799738 C52.0968124,14.9728732 52.1909683,14.7894412 52.3208384,14.6296779 C52.4507086,14.4699146 52.6325267,14.3900329 52.866293,14.3900329 C53.3078514,14.3900329 53.5286306,14.6267193 53.5286306,15.1000921 C53.4766826,15.2539383 53.4247345,15.4639974 53.3727865,15.7302696 C53.3208384,15.9965418 53.2623969,16.3308613 53.1974618,16.7332282 C53.2234358,16.8042341 53.2364228,16.8989087 53.2364228,17.0172519 C53.2364228,17.0882578 53.2234358,17.2243525 53.1974618,17.4255359 C53.1714878,17.6267193 53.1455137,17.8426956 53.1195397,18.0734649 C53.0935657,18.3042341 53.0675917,18.523169 53.0416176,18.7302696 C53.0156436,18.9373702 53.0026566,19.0705063 53.0026566,19.1296779 C53.0026566,19.2243525 53.0156436,19.3071927 53.0416176,19.3781986 C52.9766826,19.9225773 52.9279813,20.3574885 52.8955137,20.6829323 C52.8630462,21.0083761 52.8468124,21.2302696 52.8468124,21.3486128 C52.8468124,21.6208022 52.8727865,21.8219856 52.9247345,21.9521631 C53.6260332,22.058672 54.1585008,22.1119264 54.5221371,22.1119264 C54.6649943,22.1119264 54.8013579,22.1030507 54.931228,22.0852992 C55.0610982,22.0675477 55.1974618,22.058672 55.3403189,22.058672 C55.6000592,22.058672 55.8727865,22.0734649 56.1585008,22.1030507 C56.444215,22.1326365 56.7494099,22.1770152 57.0740852,22.2361868 Z"></path>
        <path fill="rgb(51, 51, 51)" d="M3.8458278,-6.08793116e-16 L33,0 L33,0 L33,33 L3.8458278,33 C2.50854969,33 2.02362033,32.8607616 1.53473144,32.5993009 C1.04584256,32.3378403 0.662159695,31.9541574 0.400699056,31.4652686 C0.139238417,30.9763797 3.2363368e-16,30.4914503 -5.570011e-16,29.1541722 L1.03584031e-16,3.8458278 C-6.01853049e-17,2.50854969 0.139238417,2.02362033 0.400699056,1.53473144 C0.662159695,1.04584256 1.04584256,0.662159695 1.53473144,0.400699056 C2.02362033,0.139238417 2.50854969,3.53726332e-16 3.8458278,-6.08793116e-16 Z"></path>
        <path fill="rgba(194, 135, 78, 0.9)" d="M10.9754098,25.7622951 C10.9754098,27.8267787 9.30169051,29.5 7.23827971,29.5 C5.17371932,29.5 3.5,27.8267787 3.5,25.7622951 C3.5,23.6978115 5.17371932,22.0245902 7.23827971,22.0245902 C9.30169051,22.0257409 10.9754098,23.6978115 10.9754098,25.7622951 Z M3.5,10.312 C14.08,10.358 22.652,18.906 22.683,29.5 L27.5,29.5 C27.47,16.269 16.745,5.546 3.5,5.5 C3.5,8.70800004 3.5,10.312 3.5,10.312 Z M3.52109563,13.6311475 L3.5,18.4360135 C9.5795696,18.5242991 14.4922847,23.4434432 14.5280927,29.4790085 L19.3688525,29.5 C19.3447389,20.8008351 12.2848399,13.7310727 3.52109563,13.6311475 Z"></path>
    </g>
</svg>