<?xml version="1.0" encoding="UTF-8"?>
<svg width="44px" height="44px" viewBox="0 0 44 44" version="1.1" xmlns="http://www.w3.org/2000/svg">
    <path d="M32.8862984,22.775958 L23.4881694,22.775958 L23.4881694,20.0969547 L32.8862984,20.0969547 L32.8862984,22.775958 Z M32.8862984,24.2714284 L23.4881694,24.2714284 L23.4881694,26.9504318 L32.8862984,26.9504318 L32.8862984,24.2714284 Z M20.9787569,43 L37.1982905,43 L37.1982905,40.3208823 L20.9787569,40.3208823 L20.9787569,43 Z M38.5,5.88278822 L38.5,1.00011426 L26.272928,1.00011426 L26.272928,3.67911767 L35.7151263,3.67911767 L35.7151263,4.37052131 L27.7524102,7.24399985 L27.7524102,9.66374118 L35.7151263,12.5372197 L35.7151263,13.2286233 L23.4881694,13.2286233 L23.4881694,15.9076268 L38.5,15.9076268 L38.5,11.0249528 L32.016651,8.79957233 L32.016651,8.10816869 L38.5,5.88278822 Z M23.4881694,6.44450369 L26.272928,6.44450369 L26.272928,3.67911767 L23.4881694,3.67911767 L23.4881694,6.44450369 Z M17.8740076,1 L17.8740076,29.4952908 C17.8740076,35.2548167 13.1793154,39.9168494 7.37955676,39.9168494 L5.5,39.9168494 L5.5,42.9998858 L7.37955676,42.9998858 C14.8901896,42.9998858 20.9787569,36.9536746 20.9787569,29.4952908 L20.9787569,1 L17.8740076,1 Z"></path>
</svg>