<?xml version="1.0" encoding="UTF-8"?>
<svg width="64px" height="64px" viewBox="0 0 64 64" version="1.1" xmlns="http://www.w3.org/2000/svg" xmlns:xlink="http://www.w3.org/1999/xlink">
    <g transform="translate(4, 6)">
        <path fill="white" stroke="rgba(0, 0, 0, 0.2)" stroke-width="0.5" d="M18.2555408,-0.25 L37.7444592,-0.25 C41.3813335,-0.25 42.6966383,0.137510829 44.0252825,0.848077516 C45.3731978,1.56895047 46.4310495,2.62680224 47.1519225,3.97471747 C47.5688266,4.75426032 47.8732733,5.52991726 48.0550979,6.76274666 C50.4827792,6.83244238 51.5052589,7.16280504 52.5368597,7.71451116 C53.7218119,8.34823057 54.6517694,9.27818805 55.2854888,10.4631403 C55.908902,11.6288215 56.25,12.7824833 56.25,15.9735982 L56.25,38.0264018 C56.25,41.2175167 55.908902,42.3711785 55.2854888,43.5368597 C54.6517694,44.7218119 53.7218119,45.6517694 52.5368597,46.2854888 C51.5051662,46.8372445 50.4825931,47.1676215 48.0562059,47.2366269 C47.8732014,48.4702608 47.5687797,49.2458273 47.1519225,50.0252825 C46.4310495,51.3731978 45.3731978,52.4310495 44.0252825,53.1519225 C42.6966383,53.8624892 41.3813335,54.25 37.7444592,54.25 L18.2555408,54.25 C14.6186665,54.25 13.3033617,53.8624892 11.9747175,53.1519225 C10.6268022,52.4310495 9.56895047,51.3731978 8.84807752,50.0252825 C8.43117344,49.2457397 8.12672668,48.4700827 7.94490207,47.2372533 C5.51722084,47.1675576 4.49474109,46.837195 3.46314032,46.2854888 C2.27818805,45.6517694 1.34823057,44.7218119 0.714511164,43.5368597 C0.091098023,42.3711785 -0.25,41.2175167 -0.25,38.0264018 L-0.25,15.9735982 C-0.25,12.7824833 0.091098023,11.6288215 0.714511164,10.4631403 C1.34823057,9.27818805 2.27818805,8.34823057 3.46314032,7.71451116 C4.49483378,7.16275546 5.51740691,6.83237846 7.94379414,6.76337313 C8.12679857,5.52973915 8.43122029,4.75417272 8.84807752,3.97471747 C9.56895047,2.62680224 10.6268022,1.56895047 11.9747175,0.848077516 C13.3033617,0.137510829 14.6186665,-0.25 18.2555408,-0.25 Z"></path>
        <path fill="rgba(34, 34, 34, 0.9)" d="M10.332002,43.4074368 L14.5391279,43.4074368 L14.5391279,40.1826776 L10.289514,40.1826776 C8.39841098,40.1826776 7.44223253,39.2003 7.44223253,37.3210294 L7.44223253,16.9904942 C7.44223253,15.1112236 8.39841098,14.128846 10.289514,14.128846 L45.73173,14.128846 C47.6015593,14.128846 48.5790016,15.1112236 48.5790016,16.9904942 L48.5790016,37.3210294 C48.5790016,39.2003 47.6015593,40.1826776 45.73173,40.1826776 L41.7582686,40.1826776 L41.7582686,43.4074368 L45.6892024,43.4074368 C49.8114116,43.4074368 52,41.314554 52,37.1501595 L52,17.1613641 C52,13.0183408 49.8114116,10.9041365 45.6892024,10.9041365 L10.332002,10.9041365 C6.40105824,10.9041365 4,13.0183408 4,17.1613641 L4,37.1501595 C4,41.314554 6.18857854,43.4074368 10.332002,43.4074368 Z M16.6214962,49.75 L39.3785038,49.75 C42.0770277,49.75 43.4369215,48.5113672 43.4369215,45.6710902 L43.4369215,28.2449456 C43.4369215,25.4045691 42.0770277,24.1659363 39.3785038,24.1659363 L16.6214962,24.1659363 C14.0504562,24.1659363 12.5630785,25.4045691 12.5630785,28.2449456 L12.5630785,45.6710902 C12.5630785,48.5113672 13.9229723,49.75 16.6214962,49.75 Z M17.6838947,46.5253402 C16.5578037,46.5253402 15.9840769,45.9700876 15.9840769,44.8168401 L15.9840769,29.0778245 C15.9840769,27.9245769 16.5578037,27.3906955 17.6838947,27.3906955 L38.3373691,27.3906955 C39.4847239,27.3906955 40.0159231,27.9245769 40.0159231,29.0778245 L40.0159231,44.8168401 C40.0159231,45.9700876 39.4847239,46.5253402 38.3373691,46.5253402 L17.6838947,46.5253402 Z M12.4143407,12.8261395 L15.7078454,12.8261395 L15.7078454,9.53737617 C15.7078454,7.74350075 16.6214962,6.86791928 18.3851055,6.86791928 L37.6148945,6.86791928 C39.3997676,6.86791928 40.2921546,7.74350075 40.2921546,9.53737617 L40.2921546,12.7834369 L43.5856692,12.7834369 L43.5856692,9.77228997 C43.5856692,5.60793524 41.5245646,3.75 37.572367,3.75 L18.427633,3.75 C14.6878755,3.75 12.4143407,5.60793524 12.4143407,9.77228997 L12.4143407,12.8261395 Z M20.6374853,34.5448658 L35.4263061,34.5448658 C36.1699455,34.5448658 36.7224086,33.968242 36.7224086,33.1993772 C36.7224086,32.4733541 36.1699455,31.9181015 35.4263061,31.9181015 L20.6374853,31.9181015 C19.8724832,31.9181015 19.2988552,32.4733541 19.2988552,33.1993772 C19.2988552,33.968242 19.8724832,34.5448658 20.6374853,34.5448658 Z M20.6374853,41.9979342 L35.4263061,41.9979342 C36.1699455,41.9979342 36.7224086,41.4213104 36.7224086,40.6952873 C36.7224086,39.9477937 36.1699455,39.3711699 35.4263061,39.3711699 L20.6374853,39.3711699 C19.8724832,39.3711699 19.2988552,39.9477937 19.2988552,40.6952873 C19.2988552,41.4213104 19.8724832,41.9979342 20.6374853,41.9979342 Z M38.2948415,19.1901335 C38.2948415,20.6850214 39.5272514,21.8595407 40.9721016,21.8595407 C42.3957868,21.8595407 43.606933,20.6850214 43.606933,19.1901335 C43.606933,17.7806308 42.3957868,16.541998 40.9721016,16.541998 C39.5272514,16.541998 38.2948415,17.7806308 38.2948415,19.1901335 Z"></path>
    </g>
</svg>