<?xml version="1.0" encoding="UTF-8"?>
<svg width="114px" height="44px" viewBox="0 0 114 44" version="1.1" xmlns="http://www.w3.org/2000/svg" xmlns:xlink="http://www.w3.org/1999/xlink">
    <defs>
        <path id="path-1" d="M11.3033854,26.6660156 C12.094401,26.6660156 12.563151,26.1875 12.563151,25.3574219 L12.563151,20.7480469 L17.5338542,20.7480469 C18.1979167,20.7480469 18.6373698,20.3574219 18.6373698,19.7226562 C18.6373698,19.0878906 18.1979167,18.6972656 17.5338542,18.6972656 L12.563151,18.6972656 L12.563151,14.5371094 L18.0416667,14.5371094 C18.7252604,14.5371094 19.1940104,14.1269531 19.1940104,13.4726562 C19.1940104,12.8183594 18.735026,12.4082031 18.0416667,12.4082031 L11.3033854,12.4082031 C10.5221354,12.4082031 10.0436198,12.8964844 10.0436198,13.7167969 L10.0436198,25.3574219 C10.0436198,26.1875 10.5221354,26.6660156 11.3033854,26.6660156 Z M23.0895647,26.6953125 C23.8024554,26.6953125 24.3005022,26.2363281 24.3005022,25.4160156 L24.3005022,13.4921875 C24.3005022,12.671875 23.8024554,12.2128906 23.0895647,12.2128906 C22.3766741,12.2128906 21.8688616,12.671875 21.8688616,13.4921875 L21.8688616,25.4160156 C21.8688616,26.2363281 22.3766741,26.6953125 23.0895647,26.6953125 Z M29.0456659,30.3476562 C31.1159784,30.3476562 32.1901972,29.4492188 33.1276972,26.8710938 L36.5359003,17.75 C36.6237909,17.515625 36.672619,17.2421875 36.672619,17.046875 C36.672619,16.4023438 36.1843378,15.9433594 35.4909784,15.9433594 C34.875744,15.9433594 34.5241815,16.2265625 34.3191034,16.890625 L31.8484003,24.4296875 L31.8093378,24.4296875 L29.3386347,16.9003906 C29.1335565,16.2167969 28.7917597,15.9433594 28.1765253,15.9433594 C27.4636347,15.9433594 26.9265253,16.4121094 26.9265253,17.0761719 C26.9265253,17.2714844 26.9753534,17.5253906 27.063244,17.7695312 L30.4519159,26.6855469 L30.2761347,27.1933594 C29.9148065,28.1015625 29.3484003,28.3847656 28.8015253,28.3847656 C28.5769159,28.3847656 28.4792597,28.375 28.2741815,28.375 C27.7077753,28.375 27.3562128,28.6972656 27.3562128,29.1953125 C27.3562128,29.9375 27.9519159,30.3476562 29.0456659,30.3476562 Z M50.5379464,26.5 C53.5457589,26.5 55.3719308,24.9765625 55.3719308,22.4960938 C55.3719308,20.6308594 54.0340402,19.2539062 52.1199777,19.0683594 L52.1199777,18.9902344 C53.5652902,18.7558594 54.6883371,17.4375 54.6883371,15.9238281 C54.6883371,13.7851562 53.0379464,12.4082031 50.4793527,12.4082031 L45.8895089,12.4082031 C45.1082589,12.4082031 44.6297433,12.8964844 44.6297433,13.7167969 L44.6297433,25.1914062 C44.6297433,26.0117188 45.1082589,26.5 45.8895089,26.5 L50.5379464,26.5 Z M49.4539621,18.3457031 L47.1492746,18.3457031 L47.1492746,14.3710938 L49.8445871,14.3710938 C51.3484933,14.3710938 52.1981027,15.0644531 52.1981027,16.2949219 C52.1981027,17.6035156 51.2117746,18.3457031 49.4539621,18.3457031 Z M49.9617746,24.5371094 L47.1492746,24.5371094 L47.1492746,20.1328125 L49.8543527,20.1328125 C51.7879464,20.1328125 52.8035714,20.8847656 52.8035714,22.3203125 C52.8035714,23.765625 51.8172433,24.5371094 49.9617746,24.5371094 Z M62.7147507,26.7050781 C64.687407,26.7050781 66.2303757,25.9335938 66.9139695,24.6152344 C67.0213914,24.4003906 67.0799851,24.1855469 67.0799851,24 C67.0799851,23.4140625 66.6502976,23.0625 66.1034226,23.0625 C65.7616257,23.0625 65.5370164,23.1699219 65.2831101,23.453125 C64.5018601,24.4492188 63.7889695,24.8300781 62.6952195,24.8300781 C61.1131882,24.8300781 60.1073289,23.7167969 60.1073289,21.9882812 L60.1073289,21.9101562 L66.2108445,21.9101562 C66.9335007,21.9101562 67.343657,21.4804688 67.343657,20.7578125 C67.343657,17.9453125 65.4100632,15.9335938 62.578032,15.9335938 C59.5897507,15.9335938 57.6854539,18.0625 57.6854539,21.3632812 C57.6854539,24.7226562 59.5506882,26.7050781 62.7147507,26.7050781 Z M64.9608445,20.3085938 L60.1268601,20.3085938 C60.2245164,18.8242188 61.2206101,17.8183594 62.5877976,17.8183594 C63.9549851,17.8183594 64.9120164,18.8046875 64.9608445,20.3085938 Z M73.5927269,26.6074219 C74.7060082,26.6074219 75.3310082,26.2265625 75.3310082,25.5136719 C75.3310082,24.9472656 74.9989769,24.6738281 74.3544457,24.6152344 L74.1786644,24.5957031 C73.4755394,24.5371094 73.2021019,24.1953125 73.2021019,23.4140625 L73.2021019,18.0234375 L74.3251488,18.0234375 C74.9306176,18.0234375 75.3017113,17.6621094 75.3017113,17.0761719 C75.3017113,16.5 74.9306176,16.1484375 74.3251488,16.1484375 L73.2021019,16.1484375 L73.2021019,14.7714844 C73.2021019,13.9902344 72.7333519,13.5019531 71.9911644,13.5019531 C71.2392113,13.5019531 70.7704613,13.9902344 70.7704613,14.7714844 L70.7704613,16.1484375 L70.1161644,16.1484375 C69.5106957,16.1484375 69.1396019,16.5 69.1396019,17.0761719 C69.1396019,17.6621094 69.5106957,18.0234375 70.1161644,18.0234375 L70.7704613,18.0234375 L70.7704613,23.9414062 C70.7704613,25.7089844 71.6884301,26.6074219 73.4950707,26.6074219 L73.5927269,26.6074219 Z"></path>
        <filter id="filter-1" x="-2.3%" y="-8.3%" width="104.6%" height="116.5%">
            <feOffset dx="0" dy="0" result="offset"></feOffset>
            <feGaussianBlur stdDeviation="0.5" in="offset" result="blur"></feGaussianBlur>
            <feColorMatrix values="0 0 0 0 0   0 0 0 0 0   0 0 0 0 0  0 0 0 0.25 0" type="matrix" in="blur"></feColorMatrix>
        </filter>
        <path id="path-2" d="M91.1741803,8.4007751 C92.1768306,8.97965553 92.520364,10.2617395 91.9414836,11.2643898 L89.0079144,16.3422115 C89.1385576,16.2087441 89.2893502,16.0906513 89.4590164,15.9926945 C90.4616667,15.4138141 91.7437507,15.7573475 92.3226311,16.7599978 L94.6215044,20.7421721 C94.7678246,20.7098333 94.9198884,20.6927833 95.0759345,20.6927833 L97.3628197,20.6927833 C98.5205806,20.6927833 99.4591312,21.6313339 99.4591312,22.7890948 C99.4591312,23.9468556 98.5205806,24.8854062 97.3628197,24.8854062 L97.0132787,24.8845726 L97.2775492,25.3421676 C97.8564296,26.3448179 97.5128962,27.6269019 96.5102459,28.2057823 C95.5075956,28.7846627 94.2255116,28.4411293 93.6466312,27.438479 L91.0663569,22.9680151 C90.9755776,24.042026 90.0750667,24.8854062 88.9775738,24.8854062 L87.9201967,24.8854062 L87.8302787,24.8815726 L81.6052787,24.8815726 L81.8105335,25.0002346 C82.7220338,25.5264896 83.0343369,26.6920205 82.5080819,27.6035208 C81.981827,28.515021 80.8162961,28.8273241 79.9047958,28.3010692 L79.5747124,28.1104954 C78.6632121,27.5842405 78.350909,26.4187096 78.877164,25.5072093 C79.0267769,25.248072 79.2280594,25.0373649 79.4604847,24.8805881 L78.3115902,24.8820514 C77.1538293,24.8820514 76.2152787,23.9435007 76.2152787,22.7857399 C76.2152787,21.627979 77.1538293,20.6894284 78.3115902,20.6894284 L81.6886234,20.689096 C81.7276148,20.5876779 81.7750132,20.4879872 81.8310574,20.3909158 L85.7032787,13.6815726 L84.3085164,11.2643898 C83.729636,10.2617395 84.0731694,8.97965553 85.0758197,8.4007751 C86.07847,7.82189467 87.360554,8.16542804 87.9394344,9.16807835 L88.1242787,9.48857258 L88.3105656,9.16807835 C88.889446,8.16542804 90.17153,7.82189467 91.1741803,8.4007751 Z M88.4888655,17.2416167 L86.4992787,20.6885726 L88.3689672,20.6894284 L88.4682787,20.6925726 L88.9775738,20.6927833 C89.2957221,20.6927833 89.5973171,20.763656 89.8674322,20.8904747 L88.6917131,18.8563092 C88.3978028,18.3472416 88.3416738,17.7661411 88.4888655,17.2416167 Z"></path>
        <filter id="filter-2" x="-6.5%" y="-7.3%" width="112.9%" height="114.7%">
            <feOffset dx="0" dy="0" result="offset"></feOffset>
            <feGaussianBlur stdDeviation="0.5" in="offset" result="blur"></feGaussianBlur>
            <feColorMatrix values="0 0 0 0 0   0 0 0 0 0   0 0 0 0 0  0 0 0 0.5 0" type="matrix" in="blur"></feColorMatrix>
        </filter>
    </defs>
    <g transform="translate(3.000000, 3.000000)">
        <path d="M99.0264018,0.5 L8.9735982,0.5 C5.99488122,0.5 4.90769924,0.792472871 3.81683947,1.37587106 C2.76452179,1.93865672 1.93865672,2.76452179 1.37587106,3.81683947 C0.792472871,4.90769924 0.5,5.99488122 0.5,8.9735982 L0.5,29.0264018 C0.5,32.0051188 0.792472871,33.0923008 1.37587106,34.1831605 C1.93865672,35.2354782 2.76452179,36.0613433 3.81683947,36.6241289 C4.90769924,37.2075271 5.99488122,37.5 8.9735982,37.5 L99.0264018,37.5 C102.005119,37.5 103.092301,37.2075271 104.183161,36.6241289 C105.235478,36.0613433 106.061343,35.2354782 106.624129,34.1831605 C107.207527,33.0923008 107.5,32.0051188 107.5,29.0264018 L107.5,8.9735982 C107.5,5.99488122 107.207527,4.90769924 106.624129,3.81683947 C106.061343,2.76452179 105.235478,1.93865672 104.183161,1.37587106 C103.092301,0.792472871 102.005119,0.5 99.0264018,0.5 Z" stroke="rgba(204, 204, 204, 0.25)" fill="rgb(23, 129, 227)"></path>
        <g>
            <use fill="rgb(0, 0, 0)" filter="url(#filter-1)" xlink:href="#path-1"></use>
            <use fill="rgb(252, 252, 252)" xlink:href="#path-1"></use>
        </g>
        <g>
            <use fill="rgb(0, 0, 0)" filter="url(#filter-2)" xlink:href="#path-2"></use>
            <use fill="rgb(255, 255, 255)" xlink:href="#path-2"></use>
        </g>
    </g>
</svg>